if (_typeface_js && _typeface_js.loadFace) _typeface_js.loadFace({"glyphs":{" ":{"ha":347,"x_min":0,"x_max":0,"o":""},"♩":{"ha":461,"x_min":0,"x_max":0,"o":"m 419 1215 l 461 1215 l 461 65 b 151 -196 461 -67 290 -196 b 0 -65 67 -196 0 -147 b 308 196 0 69 138 196 b 419 160 354 196 393 183 "},"♪":{"ha":768,"x_min":0,"x_max":0,"o":"m 626 825 b 786 349 714 686 786 522 b 750 108 786 240 750 108 b 714 81 743 85 726 79 l 711 82 b 689 122 703 88 689 100 b 693 143 689 128 690 135 b 726 333 717 206 726 271 b 693 542 726 415 714 494 b 461 849 650 643 547 796 l 461 69 b 151 -192 461 -62 290 -192 b 0 -61 67 -192 0 -143 b 308 200 0 74 138 200 b 419 164 354 200 393 188 l 419 865 b 419 865 419 865 419 865 l 419 1192 b 419 1199 419 1194 419 1197 l 419 1200 l 419 1200 b 433 1213 421 1210 426 1213 b 475 1182 460 1213 471 1204 b 626 825 497 1049 556 935 "},"♫":{"ha":1336,"x_min":0,"x_max":0,"o":"m 419 956 l 461 956 l 461 64 b 151 -196 460 -67 290 -196 b 0 -65 67 -196 0 -147 b 308 196 0 69 138 196 b 419 160 354 196 393 182 m 915 782 l 440 782 l 440 956 l 915 956 m 1336 956 l 1336 64 b 1026 -196 1335 -67 1165 -196 b 875 -65 942 -196 875 -147 b 1183 196 875 69 1013 196 b 1294 160 1229 196 1267 182 l 1294 782 l 861 782 l 861 956 "},"♬":{"ha":1338,"x_min":0,"x_max":0,"o":"m 419 956 l 461 956 l 461 64 b 151 -196 460 -67 290 -196 b 0 -65 67 -196 0 -147 b 308 196 0 69 138 196 b 419 160 354 196 393 182 m 1338 956 l 1338 65 b 1028 -194 1336 -65 1167 -194 b 876 -64 943 -194 876 -146 b 1185 197 876 71 1014 197 b 1296 161 1231 197 1268 183 l 1296 522 l 863 522 l 863 696 l 1296 696 l 1296 782 l 863 782 l 863 956 m 906 522 l 431 522 l 431 696 l 906 696 m 906 782 l 431 782 l 431 956 l 906 956 "},"♭":{"ha":314,"x_min":0,"x_max":0,"o":"m 65 -112 b 81 -133 65 -119 68 -133 b 94 -129 85 -133 89 -132 b 194 -25 136 -103 176 -58 b 218 58 211 4 218 33 b 196 124 218 85 210 108 b 161 139 188 133 175 139 b 125 129 150 139 138 136 b 64 71 106 118 69 88 b 61 26 63 65 61 49 b 65 -112 61 -29 65 -112 m 17 -236 b 0 571 6 -222 0 571 b 43 610 1 596 24 610 b 69 586 57 610 69 601 b 60 194 69 558 61 225 b 75 171 60 185 65 175 b 82 169 78 169 79 169 b 113 189 89 169 104 182 b 160 208 128 199 144 204 b 189 213 169 211 179 213 b 314 79 253 208 314 158 b 147 -156 314 15 271 -69 b 38 -240 113 -179 79 -217 b 29 -243 38 -240 33 -243 b 17 -236 25 -243 21 -242 "},"♮":{"ha":235,"x_min":0,"x_max":0,"o":"m 51 -89 b 68 -97 51 -94 58 -97 b 182 -40 103 -97 182 -65 l 182 103 b 169 110 182 108 178 110 b 51 54 136 110 51 74 m 217 258 b 222 260 218 260 221 260 b 233 249 228 260 233 256 l 233 -449 b 217 -465 233 -458 225 -465 l 199 -465 b 182 -449 189 -465 182 -458 l 182 -242 b 158 -226 182 -231 172 -226 b 21 -268 118 -226 40 -260 b 17 -269 19 -269 17 -269 b 11 -271 15 -269 13 -271 b 0 -258 4 -271 0 -267 l 0 457 b 17 474 0 467 7 474 l 35 474 b 51 457 43 474 51 467 l 51 225 b 65 218 51 219 57 218 b 190 250 101 218 190 250 b 196 251 192 250 193 251 "},"♯":{"ha":346,"x_min":0,"x_max":0,"o":"m 233 -62 b 239 26 236 -50 239 -11 b 233 106 239 64 236 99 b 213 114 231 111 222 114 b 111 61 178 114 114 85 b 107 -42 108 50 107 1 b 111 -111 107 -75 108 -106 b 128 -118 113 -115 119 -118 b 233 -62 160 -118 225 -90 m 293 150 b 275 110 282 146 275 119 l 275 -19 b 293 -44 275 -36 285 -44 l 329 -31 b 336 -29 332 -29 333 -29 b 346 -40 342 -29 346 -33 l 346 -139 b 329 -162 346 -147 339 -158 b 290 -178 329 -162 300 -174 b 275 -210 281 -182 275 -199 l 275 -407 b 251 -422 275 -415 267 -422 b 233 -407 242 -422 233 -415 l 233 -233 b 215 -208 233 -225 226 -208 b 210 -210 214 -208 211 -210 l 125 -244 b 111 -275 118 -247 111 -257 l 111 -468 b 88 -483 111 -476 101 -483 b 69 -468 78 -483 69 -476 l 69 -297 b 53 -275 69 -290 63 -275 b 49 -276 51 -275 50 -275 b 17 -289 36 -281 17 -289 b 11 -290 15 -289 13 -290 b 0 -278 4 -290 0 -286 l 0 -179 b 17 -157 0 -171 7 -160 b 54 -142 17 -157 46 -144 b 69 -110 63 -137 69 -125 l 69 28 b 51 53 69 39 61 53 b 47 51 50 53 49 51 b 17 38 38 46 17 38 b 11 36 15 38 13 36 b 0 49 4 36 0 40 l 0 147 b 17 169 0 156 7 167 b 53 185 17 169 44 181 b 69 222 61 189 69 203 l 69 410 b 92 425 69 418 78 425 b 111 410 101 425 111 418 l 111 243 b 128 215 111 232 115 215 b 215 250 151 221 199 240 b 233 290 228 258 232 276 l 233 471 b 256 486 233 479 242 486 b 275 471 267 486 275 479 l 275 301 b 294 283 275 290 285 283 b 329 296 301 285 329 296 b 336 297 332 297 333 297 b 346 286 342 297 346 293 l 346 188 b 329 164 346 179 339 168 "},"":{"ha":117,"x_min":0,"x_max":0,"o":"m 28 692 b 114 486 68 667 114 568 b 113 464 114 478 114 471 b 61 178 103 382 61 251 b 100 24 61 104 93 35 b 107 8 106 17 107 13 b 104 3 107 6 106 4 b 99 0 103 1 101 0 b 88 8 96 0 93 1 b 19 267 57 47 19 128 b 68 551 19 368 68 454 b 3 692 68 642 28 664 b 68 838 42 736 68 772 b 19 1118 68 925 19 981 b 88 1375 19 1257 57 1338 b 99 1385 93 1382 96 1385 b 104 1381 101 1385 103 1382 b 107 1375 106 1381 107 1378 b 100 1361 107 1371 106 1367 b 61 1207 93 1349 61 1279 b 113 919 61 1132 103 1003 b 114 897 114 913 114 904 b 28 692 114 815 68 717 "},"":{"ha":132,"x_min":0,"x_max":0,"o":"m 97 692 b 11 897 57 717 11 815 b 13 919 11 904 11 913 b 64 1207 22 1003 64 1132 b 25 1361 64 1279 32 1349 b 18 1375 19 1367 18 1371 b 21 1381 18 1378 19 1381 b 26 1385 22 1382 24 1385 b 38 1375 29 1385 32 1382 b 106 1118 68 1338 106 1257 b 57 833 106 981 57 925 b 122 692 57 742 97 721 b 57 547 97 664 57 642 b 106 267 57 460 106 404 b 38 8 106 128 68 47 b 26 0 32 1 29 0 b 21 3 24 0 22 1 b 18 8 19 4 18 6 b 25 24 18 13 19 17 b 64 178 32 35 64 104 b 13 464 64 251 22 382 b 11 486 11 471 11 478 b 97 692 11 568 57 667 "},"":{"ha":775,"x_min":0,"x_max":0,"o":"m 0 1588 b 10 1597 0 1596 3 1597 l 151 1597 b 604 1815 417 1617 592 1800 b 640 1835 613 1825 625 1835 b 651 1815 647 1832 651 1826 b 650 1801 651 1811 651 1807 b 174 1425 594 1569 396 1467 l 174 -32 b 649 -408 396 -74 594 -176 b 651 -424 650 -414 651 -419 b 636 -442 651 -433 647 -439 b 604 -422 625 -442 613 -432 b 151 -204 592 -407 417 -224 l 10 -204 b 0 -194 3 -204 0 -203 "},"":{"ha":651,"x_min":0,"x_max":0,"o":"m 0 163 b 11 172 0 171 3 172 l 151 172 b 606 390 417 192 592 375 b 640 410 613 400 628 410 b 651 390 647 407 651 401 b 650 376 651 386 651 382 b 174 0 594 144 396 42 l 0 0 "},"":{"ha":651,"x_min":0,"x_max":0,"o":"m 0 0 l 174 0 b 650 -376 396 -42 594 -144 b 651 -390 651 -382 651 -386 b 640 -410 651 -401 647 -407 b 606 -390 628 -410 613 -400 b 151 -172 592 -375 417 -192 l 11 -172 b 0 -162 3 -172 0 -171 "},"":{"ha":651,"x_min":0,"x_max":0,"o":"m 651 0 l 478 0 b 1 376 256 42 57 144 b 0 390 0 382 0 386 b 11 410 0 401 4 407 b 46 390 24 410 39 400 b 500 172 60 375 235 192 l 640 172 b 651 163 649 172 651 171 "},"":{"ha":651,"x_min":0,"x_max":0,"o":"m 651 -162 b 640 -172 651 -171 649 -172 l 500 -172 b 46 -390 235 -192 60 -375 b 11 -410 39 -400 24 -410 b 0 -390 4 -407 0 -401 b 1 -376 0 -386 0 -382 b 478 0 57 -144 256 -42 l 651 0 "},"":{"ha":1469,"x_min":0,"x_max":0,"o":"m 1469 1144 b 1449 1124 1469 1133 1460 1128 l 21 429 b 15 428 19 428 17 428 b 0 450 7 428 0 439 l 0 744 b 21 776 0 756 6 768 l 1449 1471 b 1454 1472 1450 1472 1453 1472 b 1469 1450 1464 1472 1469 1460 m 1469 622 b 1449 601 1469 614 1458 607 l 21 -93 b 17 -94 19 -93 18 -94 b 0 -72 7 -94 0 -82 l 0 222 b 21 254 0 233 6 246 l 1449 949 b 1454 950 1450 950 1453 950 b 1469 928 1464 950 1469 938 "},"":{"ha":2168,"x_min":0,"x_max":0,"o":"m 2171 633 b 2144 599 2171 615 2158 604 l 47 -82 b 36 -83 43 -83 40 -83 b 1 -50 18 -83 1 -71 l 1 192 b 28 226 1 210 14 222 l 2125 907 b 2136 908 2129 908 2132 908 b 2171 875 2154 908 2171 896 l 2171 633 m 2171 1181 b 2144 1147 2171 1164 2160 1151 l 46 467 b 35 465 42 465 39 465 b 0 499 17 465 0 478 l 0 740 b 28 776 0 760 17 772 l 2125 1457 b 2136 1458 2129 1458 2132 1458 b 2171 1425 2154 1458 2171 1446 "},"":{"ha":3221,"x_min":0,"x_max":0,"o":"m 1 193 b 33 244 1 206 10 239 l 3178 924 b 3188 925 3182 925 3185 925 b 3221 875 3208 925 3221 908 l 3221 619 b 3189 583 3221 600 3206 588 l 44 -96 b 36 -97 42 -96 39 -97 b 3 -61 17 -97 3 -81 m 3219 1181 b 3189 1132 3219 1157 3214 1138 l 38 451 b 0 500 19 451 0 475 l 0 756 b 32 793 0 776 18 789 l 3178 1474 l 3185 1474 b 3221 1446 3203 1474 3214 1458 "},"":{"ha":417,"x_min":0,"x_max":0,"o":"m -210 436 l -210 610 l 207 696 l 207 522 m 207 264 l -210 176 l -210 350 l 207 438 "},"":{"ha":731,"x_min":0,"x_max":0,"o":"m 731 0 l 393 90 l 499 196 l 7 688 b 0 706 1 693 0 699 b 7 724 0 713 1 719 b 25 731 13 728 18 731 b 43 724 31 731 38 728 l 535 232 l 640 338 "},"":{"ha":731,"x_min":0,"x_max":0,"o":"m 640 1051 l 535 1157 l 43 665 b 25 658 38 661 31 658 b 7 665 18 658 13 661 b 0 683 1 669 0 676 b 7 701 0 690 1 696 l 499 1193 l 393 1299 l 731 1389 "},"":{"ha":731,"x_min":0,"x_max":0,"o":"m 640 338 l 731 0 l 393 90 l 499 196 l 7 688 b 0 707 1 693 0 700 b 7 726 0 714 1 721 l 499 1218 l 393 1324 l 731 1414 l 640 1076 l 535 1182 l 58 707 l 535 232 "},"":{"ha":694,"x_min":0,"x_max":0,"o":"m 0 672 l 0 717 l 694 717 l 694 672 "},"":{"ha":694,"x_min":0,"x_max":0,"o":"m 694 499 l 0 499 l 0 543 l 694 543 m 694 846 l 0 846 l 0 890 l 694 890 "},"":{"ha":694,"x_min":0,"x_max":0,"o":"m 694 672 l 0 672 l 0 717 l 694 717 m 694 1019 l 0 1019 l 0 1064 l 694 1064 m 694 325 l 0 325 l 0 369 l 694 369 "},"":{"ha":694,"x_min":0,"x_max":0,"o":"m 694 499 l 0 499 l 0 543 l 694 543 m 694 846 l 0 846 l 0 890 l 694 890 m 694 151 l 0 151 l 0 196 l 694 196 m 694 1193 l 0 1193 l 0 1238 l 694 1238 "},"":{"ha":694,"x_min":0,"x_max":0,"o":"m 694 672 l 0 672 l 0 717 l 694 717 m 694 1019 l 0 1019 l 0 1064 l 694 1064 m 694 325 l 0 325 l 0 369 l 694 369 m 694 1367 l 0 1367 l 0 1411 l 694 1411 m 694 -22 l 0 -22 l 0 22 l 694 22 "},"":{"ha":694,"x_min":0,"x_max":0,"o":"m 694 846 l 0 846 l 0 890 l 694 890 m 694 1193 l 0 1193 l 0 1238 l 694 1238 m 694 499 l 0 499 l 0 543 l 694 543 m 694 1540 l 0 1540 l 0 1585 l 694 1585 m 694 151 l 0 151 l 0 196 l 694 196 m 694 -196 l 0 -196 l 0 -151 l 694 -151 "},"":{"ha":1042,"x_min":0,"x_max":0,"o":"m 0 672 l 0 717 l 1042 717 l 1042 672 "},"":{"ha":1042,"x_min":0,"x_max":0,"o":"m 1042 499 l 0 499 l 0 543 l 1042 543 m 1042 846 l 0 846 l 0 890 l 1042 890 "},"":{"ha":1042,"x_min":0,"x_max":0,"o":"m 1042 672 l 0 672 l 0 717 l 1042 717 m 1042 1019 l 0 1019 l 0 1064 l 1042 1064 m 1042 325 l 0 325 l 0 369 l 1042 369 "},"":{"ha":1042,"x_min":0,"x_max":0,"o":"m 1042 499 l 0 499 l 0 543 l 1042 543 m 1042 846 l 0 846 l 0 890 l 1042 890 m 1042 151 l 0 151 l 0 196 l 1042 196 m 1042 1193 l 0 1193 l 0 1238 l 1042 1238 "},"":{"ha":1042,"x_min":0,"x_max":0,"o":"m 1042 672 l 0 672 l 0 717 l 1042 717 m 1042 1019 l 0 1019 l 0 1064 l 1042 1064 m 1042 325 l 0 325 l 0 369 l 1042 369 m 1042 1367 l 0 1367 l 0 1411 l 1042 1411 m 1042 -22 l 0 -22 l 0 22 l 1042 22 "},"":{"ha":1042,"x_min":0,"x_max":0,"o":"m 1042 846 l 0 846 l 0 890 l 1042 890 m 1042 1193 l 0 1193 l 0 1238 l 1042 1238 m 1042 499 l 0 499 l 0 543 l 1042 543 m 1042 1540 l 0 1540 l 0 1585 l 1042 1585 m 1042 151 l 0 151 l 0 196 l 1042 196 m 1042 -196 l 0 -196 l 0 -151 l 1042 -151 "},"":{"ha":347,"x_min":0,"x_max":0,"o":"m 0 672 l 0 717 l 347 717 l 347 672 "},"":{"ha":347,"x_min":0,"x_max":0,"o":"m 347 499 l 0 499 l 0 543 l 347 543 m 347 846 l 0 846 l 0 890 l 347 890 "},"":{"ha":347,"x_min":0,"x_max":0,"o":"m 347 672 l 0 672 l 0 717 l 347 717 m 347 1019 l 0 1019 l 0 1064 l 347 1064 m 347 325 l 0 325 l 0 369 l 347 369 "},"":{"ha":347,"x_min":0,"x_max":0,"o":"m 347 499 l 0 499 l 0 543 l 347 543 m 347 846 l 0 846 l 0 890 l 347 890 m 347 151 l 0 151 l 0 196 l 347 196 m 347 1193 l 0 1193 l 0 1238 l 347 1238 "},"":{"ha":347,"x_min":0,"x_max":0,"o":"m 347 672 l 0 672 l 0 717 l 347 717 m 347 1019 l 0 1019 l 0 1064 l 347 1064 m 347 325 l 0 325 l 0 369 l 347 369 m 347 1367 l 0 1367 l 0 1411 l 347 1411 m 347 -22 l 0 -22 l 0 22 l 347 22 "},"":{"ha":347,"x_min":0,"x_max":0,"o":"m 347 846 l 0 846 l 0 890 l 347 890 m 347 1193 l 0 1193 l 0 1238 l 347 1238 m 347 499 l 0 499 l 0 543 l 347 543 m 347 1540 l 0 1540 l 0 1585 l 347 1585 m 347 151 l 0 151 l 0 196 l 347 196 m 347 -196 l 0 -196 l 0 -151 l 347 -151 "},"":{"ha":461,"x_min":0,"x_max":0,"o":"m -111 -28 l -111 28 l 572 28 l 572 -28 "},"":{"ha":739,"x_min":0,"x_max":0,"o":"m -111 -28 l -111 28 l 850 28 l 850 -28 "},"":{"ha":183,"x_min":0,"x_max":0,"o":"m -111 -28 l -111 28 l 294 28 l 294 -28 "},"":{"ha":50,"x_min":0,"x_max":0,"o":"m 0 0 l 0 1389 l 50 1389 l 50 0 "},"":{"ha":200,"x_min":0,"x_max":0,"o":"m 0 0 l 0 1389 l 50 1389 l 50 0 m 200 0 l 150 0 l 150 1389 l 200 1389 "},"":{"ha":318,"x_min":0,"x_max":0,"o":"m 0 0 l 0 1389 l 50 1389 l 50 0 m 317 0 l 143 0 l 143 1389 l 317 1389 "},"":{"ha":317,"x_min":0,"x_max":0,"o":"m 267 1389 l 317 1389 l 317 0 l 267 0 m 0 1389 l 174 1389 l 174 0 l 0 0 "},"":{"ha":174,"x_min":0,"x_max":0,"o":"m 174 0 l 0 0 l 0 1389 l 174 1389 "},"":{"ha":476,"x_min":0,"x_max":0,"o":"m 174 0 l 0 0 l 0 1389 l 174 1389 m 476 0 l 303 0 l 303 1389 l 476 1389 "},"":{"ha":50,"x_min":0,"x_max":0,"o":"m 0 1215 l 0 1389 l 50 1389 l 50 1215 m 50 253 l 0 253 l 0 654 l 50 654 m 50 733 l 0 733 l 0 1135 l 50 1135 m 50 0 l 0 0 l 0 174 l 50 174 "},"":{"ha":68,"x_min":0,"x_max":0,"o":"m 35 68 b 68 35 53 68 68 53 b 35 0 68 15 53 0 b 0 35 15 0 0 15 b 35 68 0 53 15 68 m 35 188 b 68 154 53 188 68 172 b 35 119 68 135 53 119 b 0 154 15 119 0 135 b 35 188 0 172 15 188 m 35 308 b 68 274 53 308 68 293 b 35 239 68 256 53 239 b 0 274 15 239 0 256 b 35 308 0 293 15 308 m 35 428 b 68 393 53 428 68 413 b 35 360 68 375 53 360 b 0 393 15 360 0 375 b 35 428 0 413 15 428 m 35 547 b 68 513 53 547 68 532 b 35 479 68 494 53 479 b 0 513 15 479 0 494 b 35 547 0 532 15 547 m 35 667 b 68 633 53 667 68 651 b 35 599 68 614 53 599 b 0 633 15 599 0 614 b 35 667 0 651 15 667 m 35 786 b 68 753 53 786 68 771 b 35 718 68 733 53 718 b 0 753 15 718 0 733 b 35 786 0 771 15 786 m 35 907 b 68 872 53 907 68 892 b 35 838 68 853 53 838 b 0 872 15 838 0 853 b 35 907 0 892 15 907 m 35 1026 b 68 992 53 1026 68 1011 b 35 958 68 974 53 958 b 0 992 15 958 0 974 b 35 1026 0 1011 15 1026 m 35 1146 b 68 1111 53 1146 68 1131 b 35 1078 68 1093 53 1078 b 0 1111 15 1078 0 1093 b 35 1146 0 1131 15 1146 m 35 1385 b 68 1351 53 1385 68 1369 b 35 1317 68 1332 53 1317 b 0 1351 15 1317 0 1332 b 35 1385 0 1369 15 1385 m 68 1232 b 35 1197 68 1213 53 1197 b 0 1232 15 1197 0 1213 b 35 1265 0 1250 15 1265 b 68 1232 53 1265 68 1250 "},"":{"ha":51,"x_min":0,"x_max":0,"o":"m 1 694 l 1 1389 l 51 1389 l 51 694 "},"":{"ha":50,"x_min":0,"x_max":0,"o":"m 0 1206 l 0 1556 l 50 1556 l 50 1206 "},"":{"ha":511,"x_min":0,"x_max":0,"o":"m 267 1389 l 317 1389 l 317 0 l 267 0 m 0 1389 l 174 1389 l 174 0 l 0 0 m 439 444 b 369 514 401 444 369 475 b 439 583 369 551 401 583 b 508 514 478 583 508 551 b 439 444 508 475 478 444 m 439 794 b 369 864 401 794 369 825 b 439 933 369 903 401 933 b 508 864 478 933 508 903 b 439 794 508 825 478 794 "},"":{"ha":510,"x_min":0,"x_max":0,"o":"m 193 0 l 193 1389 l 243 1389 l 243 0 m 510 0 l 336 0 l 336 1389 l 510 1389 m 71 944 b 140 875 108 944 140 914 b 71 806 140 838 108 806 b 1 875 32 806 1 838 b 71 944 1 914 32 944 m 71 594 b 140 525 108 594 140 564 b 71 456 140 486 108 456 b 1 525 32 456 1 486 b 71 594 1 564 32 594 "},"":{"ha":844,"x_min":0,"x_max":0,"o":"m 775 794 b 706 864 738 794 706 825 b 775 933 706 903 738 933 b 844 864 814 933 844 903 b 775 794 844 825 814 794 m 775 444 b 706 514 738 444 706 475 b 775 583 706 551 738 583 b 844 514 814 583 844 551 b 775 444 844 475 814 444 m 603 1389 l 653 1389 l 653 0 l 603 0 m 71 594 b 140 525 108 594 140 564 b 71 456 140 486 108 456 b 1 525 32 456 1 486 b 71 594 1 564 32 594 m 71 944 b 140 875 108 944 140 914 b 71 806 140 838 108 806 b 1 875 32 806 1 838 b 71 944 1 914 32 944 m 510 0 l 336 0 l 336 1389 l 510 1389 m 193 0 l 193 1389 l 243 1389 l 243 0 "},"":{"ha":139,"x_min":0,"x_max":0,"o":"m 69 931 b 139 861 107 931 139 900 b 69 792 139 824 107 792 b 0 861 31 792 0 824 b 69 931 0 900 31 931 m 69 581 b 139 511 107 581 139 550 b 69 442 139 472 107 442 b 0 511 31 442 0 472 b 69 581 0 550 31 581 "},"":{"ha":139,"x_min":0,"x_max":0,"o":"m 69 243 b 139 174 107 243 139 213 b 69 104 139 135 107 104 b 0 174 31 104 0 135 b 69 243 0 213 31 243 "},"":{"ha":1503,"x_min":0,"x_max":0,"o":"m 661 307 b 546 51 661 193 619 103 b 322 0 494 15 428 0 l 15 0 l 15 44 l 28 44 b 97 57 72 44 89 49 b 103 119 103 64 103 68 l 103 482 b 97 544 103 535 103 538 b 28 557 89 553 72 557 l 15 557 l 15 601 l 313 601 b 542 557 431 601 492 590 b 661 307 619 506 661 419 m 494 310 b 324 557 494 476 439 557 l 303 557 b 253 507 263 557 253 547 l 253 99 b 303 44 253 56 261 44 l 319 44 b 494 310 444 44 494 126 m 794 65 b 715 -12 794 22 760 -12 b 638 65 672 -12 638 24 b 715 144 638 110 672 144 b 794 65 760 144 794 110 m 1503 65 b 1424 -12 1503 22 1468 -12 b 1346 65 1381 -12 1346 24 b 1424 144 1346 110 1381 144 b 1503 65 1468 144 1503 110 m 1318 186 b 1097 -12 1318 69 1228 -12 b 926 43 1031 -12 978 6 l 875 -6 l 832 -6 l 832 231 l 875 231 b 1097 31 921 106 1003 31 b 1218 128 1169 31 1218 69 b 1181 194 1218 157 1204 182 b 1122 213 1165 201 1151 206 b 1114 214 1119 213 1117 213 b 1103 217 1111 215 1107 215 b 1090 219 1099 218 1094 218 l 1039 231 b 833 428 908 254 833 326 b 1049 614 833 539 921 614 b 1199 569 1107 614 1153 601 l 1243 607 l 1281 607 l 1290 392 l 1247 392 b 1042 571 1197 510 1128 571 b 929 483 976 571 929 535 b 986 411 929 449 949 425 b 1071 392 1007 404 1007 407 l 1111 382 b 1318 186 1256 351 1318 292 "},"":{"ha":1504,"x_min":0,"x_max":0,"o":"m 661 307 b 546 51 661 193 619 103 b 322 0 494 15 428 0 l 15 0 l 15 44 l 28 44 b 97 57 72 44 89 49 b 103 119 103 64 103 68 l 103 482 b 97 544 103 535 103 538 b 28 557 89 553 72 557 l 15 557 l 15 601 l 313 601 b 542 557 431 601 492 590 b 661 307 619 506 661 419 m 494 310 b 324 557 494 476 439 557 l 303 557 b 253 507 263 557 253 547 l 253 99 b 303 44 253 56 261 44 l 319 44 b 494 310 444 44 494 126 m 1353 208 b 1089 -12 1321 60 1236 -12 b 863 79 990 -12 919 15 b 783 293 810 139 783 207 b 1099 614 783 481 915 614 b 1251 569 1157 614 1196 603 l 1296 611 l 1332 611 l 1340 372 l 1296 368 b 1106 571 1258 507 1197 571 b 949 308 1003 571 949 481 b 1115 39 949 125 1003 39 b 1301 221 1211 39 1278 106 l 1353 208 m 794 65 b 715 -12 794 22 760 -12 b 638 65 672 -12 638 24 b 715 144 638 110 672 144 b 794 65 760 144 794 110 m 1503 65 b 1424 -12 1503 22 1468 -12 b 1346 65 1381 -12 1346 24 b 1424 144 1346 110 1381 144 b 1503 65 1468 144 1503 110 "},"":{"ha":774,"x_min":0,"x_max":0,"o":"m 576 647 b 656 726 576 692 613 726 b 735 647 700 726 735 692 b 656 568 735 604 700 568 b 576 647 613 568 576 604 m 194 367 b 115 288 194 322 160 288 b 36 367 72 288 36 322 b 115 446 36 410 72 446 b 194 367 160 446 194 410 m 179 924 b 104 838 121 914 104 875 b 124 764 104 808 115 779 b 382 617 160 701 369 621 b 396 613 388 614 392 613 b 408 624 401 613 404 617 b 638 1035 417 636 638 1035 b 672 1054 644 1047 658 1054 b 690 1050 678 1054 685 1053 b 711 1015 703 1043 711 1029 b 706 996 711 1008 710 1003 b 483 597 706 996 490 608 b 481 589 482 594 481 592 b 504 567 481 582 488 576 b 761 282 521 558 740 435 b 764 242 763 268 764 254 b 579 -1 764 126 690 36 b 521 -11 558 -8 539 -11 b 354 129 426 -11 364 69 b 353 147 353 136 353 142 b 451 238 353 203 400 225 b 468 240 457 239 463 240 b 542 149 507 240 542 201 l 542 133 b 592 71 542 90 565 71 b 601 72 594 71 599 72 b 679 169 646 79 679 115 b 381 388 679 301 401 383 b 364 381 375 388 364 379 b 144 -17 360 372 144 -17 b 110 -37 138 -29 124 -37 b 90 -32 103 -37 97 -36 b 71 3 78 -25 71 -11 b 75 21 71 8 72 15 b 285 400 75 21 275 381 b 293 422 290 410 293 417 b 285 433 293 428 290 431 b 28 663 274 438 72 561 b 6 765 13 697 6 732 b 213 1022 6 903 115 1022 b 399 935 283 1022 376 999 b 410 869 406 913 410 890 b 354 783 410 831 394 797 b 314 776 339 778 326 776 b 213 896 243 776 222 858 l 210 906 b 188 924 206 921 196 924 "},"":{"ha":1325,"x_min":0,"x_max":0,"o":"m 1301 556 b 1326 522 1321 556 1326 540 b 1301 489 1326 504 1321 489 l 1136 489 b 703 0 1122 229 928 18 l 703 -194 b 669 -219 703 -214 688 -219 b 636 -194 651 -219 636 -214 l 636 0 b 203 489 411 18 218 229 l 19 489 b -6 522 0 489 -6 504 b 19 556 -6 540 0 556 l 203 556 b 636 1044 218 818 411 1026 l 636 1224 b 669 1247 636 1242 651 1247 b 703 1224 688 1247 703 1242 l 703 1044 b 1136 556 928 1026 1122 817 l 1301 556 m 907 556 b 703 967 907 781 897 950 l 703 556 l 907 556 m 636 967 b 439 556 439 950 439 781 l 636 556 l 636 967 m 439 489 b 636 67 440 275 457 88 l 636 489 l 439 489 m 703 67 b 907 489 876 88 903 276 l 703 489 l 703 67 "},"":{"ha":1138,"x_min":0,"x_max":0,"o":"m 1121 556 b 1142 526 1132 556 1142 543 l 1142 515 b 1121 486 1142 497 1132 486 l 949 486 l 949 14 b 929 -10 949 0 939 -10 l 604 -10 l 604 -185 b 575 -214 604 -200 593 -214 l 567 -214 b 538 -185 550 -214 538 -200 l 538 -10 l 213 -10 b 193 14 201 -10 193 0 l 193 486 l 22 486 b 0 515 10 486 0 497 l 0 526 b 22 556 0 543 10 556 l 193 556 l 193 1004 b 213 1025 193 1015 201 1025 l 538 1025 l 538 1225 b 567 1254 538 1242 550 1254 l 575 1254 b 604 1225 593 1254 604 1242 l 604 1025 l 929 1025 b 949 1004 939 1025 949 1015 l 949 556 l 1121 556 m 604 956 l 604 556 l 767 556 l 767 938 b 751 956 767 949 763 956 m 375 556 l 538 556 l 538 956 l 388 956 b 375 943 381 956 375 953 m 538 60 l 538 486 l 375 486 l 375 81 b 392 60 375 67 382 60 m 767 486 l 604 486 l 604 60 l 753 60 b 767 81 763 60 767 67 "},"":{"ha":558,"x_min":0,"x_max":0,"o":"m 383 400 b 407 397 392 399 400 397 b 454 433 429 397 443 408 b 461 460 460 443 461 451 b 433 515 461 483 446 506 b 164 660 414 531 174 654 b 142 665 160 663 151 665 b 81 624 124 665 100 656 b 74 601 76 617 74 608 b 151 515 74 571 126 533 b 383 400 151 515 344 410 m 396 743 b 421 739 406 740 414 739 b 465 772 442 739 453 750 b 472 799 471 781 472 790 b 446 849 472 821 458 840 b 186 983 428 864 199 976 b 168 988 182 986 176 988 b 108 950 151 988 128 979 b 101 928 104 942 101 935 b 175 849 101 892 151 865 b 396 743 175 849 360 751 m 288 1432 b 514 1299 350 1431 514 1393 b 436 1213 514 1225 472 1213 b 342 1286 399 1213 368 1224 b 228 1361 321 1338 249 1361 b 122 1279 199 1361 122 1349 b 331 1099 122 1214 263 1136 l 364 1081 b 560 876 428 1044 560 971 b 492 710 560 772 514 736 b 481 686 483 699 481 692 b 492 667 481 678 486 672 l 496 661 b 550 515 507 646 550 586 b 469 363 550 438 485 381 b 461 340 463 354 461 347 b 471 318 461 332 465 325 l 474 314 b 533 176 489 299 533 251 l 533 164 b 288 -46 528 78 472 -46 b 49 110 106 -46 49 67 b 117 185 49 154 74 185 b 201 131 158 185 181 161 b 329 4 221 100 254 4 b 435 106 404 4 433 60 b 281 269 435 150 339 232 b 3 560 217 310 3 397 b 63 710 3 622 54 696 b 71 728 67 717 71 722 b 58 750 71 733 67 740 b 8 883 43 768 8 819 b 83 1028 8 949 61 1013 b 96 1049 92 1033 96 1040 b 88 1068 96 1054 93 1061 l 83 1072 b 26 1226 67 1092 26 1139 b 281 1432 26 1322 113 1432 "},"":{"ha":558,"x_min":0,"x_max":0,"o":"m 354 775 b 365 754 354 767 358 757 b 394 743 378 749 389 746 b 419 740 404 742 413 740 b 465 774 442 740 454 750 b 472 799 469 782 472 790 b 446 850 472 819 458 840 b 364 893 446 851 392 893 b 354 881 360 893 354 889 m 354 432 b 364 408 354 419 357 411 b 379 401 371 404 376 403 b 404 397 389 399 397 397 b 453 433 426 397 439 410 b 460 461 457 443 460 451 b 432 517 460 485 446 507 b 372 550 426 522 403 533 b 365 553 371 551 368 553 b 354 543 360 553 354 550 m 314 563 b 301 589 314 579 306 586 b 272 603 294 592 279 603 b 263 590 268 603 263 599 b 261 476 261 585 261 513 b 269 453 261 465 263 458 l 300 438 b 304 436 301 436 303 436 b 314 447 308 436 314 440 m 150 517 l 201 489 b 213 486 204 488 208 486 b 222 493 218 486 222 489 l 222 613 b 207 636 222 625 211 633 b 161 660 182 650 164 658 b 140 665 157 663 150 665 b 81 625 122 665 99 657 b 74 601 76 617 74 608 b 146 519 74 568 118 529 m 185 982 b 164 986 181 985 174 986 b 106 951 147 986 124 979 b 100 931 101 944 100 938 b 165 856 100 899 139 872 l 174 850 b 206 833 174 850 186 843 l 211 833 b 222 842 217 833 222 835 l 222 954 b 211 969 222 961 214 968 m 314 903 b 306 922 314 917 308 921 b 269 940 293 928 271 940 b 263 933 267 940 263 938 b 261 886 261 931 261 910 b 263 818 261 863 261 835 b 271 800 263 810 268 801 b 308 782 279 794 299 782 b 314 789 311 782 314 783 m 354 1100 b 365 1078 354 1089 360 1081 b 558 876 431 1040 558 967 b 490 711 558 774 511 738 b 479 686 482 700 479 693 b 490 664 479 679 485 669 b 549 515 499 654 549 594 b 468 363 549 439 482 382 b 460 340 463 354 460 347 b 469 318 460 332 464 325 b 531 175 478 306 531 257 l 531 165 b 286 -46 526 78 471 -46 b 47 111 103 -46 47 68 b 115 186 47 156 71 186 b 199 132 158 186 179 161 b 326 4 219 100 251 4 b 433 104 403 4 432 60 b 361 207 433 104 400 207 b 354 201 357 207 354 204 b 333 182 354 192 346 182 b 314 201 324 182 314 192 l 314 235 b 301 254 314 240 306 250 l 279 269 b 274 272 278 269 274 272 b 263 261 269 272 263 267 l 263 201 b 242 182 263 192 251 182 b 222 201 231 182 222 192 l 222 286 b 199 315 222 294 206 310 b 1 561 111 365 1 442 b 63 711 1 622 54 696 b 69 729 67 718 69 724 b 58 751 69 735 67 742 b 6 883 42 769 6 819 b 83 1028 6 947 61 1014 b 94 1047 90 1032 94 1039 b 83 1071 94 1053 92 1060 b 24 1226 67 1089 24 1135 b 279 1432 24 1322 110 1432 l 286 1432 b 511 1300 349 1431 511 1393 b 435 1213 511 1225 471 1213 b 339 1288 396 1213 367 1222 b 226 1361 318 1338 247 1361 b 121 1279 197 1361 121 1349 b 208 1171 121 1243 161 1206 b 215 1168 210 1169 213 1168 b 222 1172 218 1168 221 1169 l 222 1181 b 242 1201 222 1192 231 1201 b 263 1181 251 1201 263 1192 l 263 1147 b 269 1132 263 1139 267 1133 b 308 1110 278 1126 303 1110 b 314 1124 313 1110 314 1118 l 314 1181 b 333 1201 314 1192 324 1201 b 354 1181 346 1201 354 1192 "},"":{"ha":515,"x_min":0,"x_max":0,"o":"m 267 1208 l 317 1208 l 317 174 l 267 174 m 0 1208 l 174 1208 l 174 174 l 0 174 m 439 444 b 369 514 401 444 369 475 b 439 583 369 551 401 583 b 508 514 478 583 508 551 b 439 444 508 475 478 444 m 439 794 b 369 864 401 794 369 825 b 439 933 369 903 401 933 b 508 864 478 933 508 903 b 439 794 508 825 478 794 "},"":{"ha":515,"x_min":0,"x_max":0,"o":"m 242 174 l 192 174 l 192 1208 l 242 1208 m 508 174 l 335 174 l 335 1208 l 508 1208 m 69 444 b 0 514 31 444 0 475 b 69 583 0 551 31 583 b 139 514 107 583 139 551 b 69 444 139 475 107 444 m 69 794 b 0 864 31 794 0 825 b 69 933 0 903 31 933 b 139 864 107 933 139 903 b 69 794 139 825 107 794 "},"":{"ha":932,"x_min":0,"x_max":0,"o":"m 653 1310 b 468 960 568 1310 468 1176 b 476 832 468 915 471 868 b 494 821 479 814 485 813 b 582 903 526 849 560 881 b 736 1196 690 1011 736 1100 b 653 1310 736 1272 699 1310 m 665 -253 b 688 -261 668 -269 671 -269 b 818 -64 765 -222 818 -151 b 613 163 818 58 725 153 b 597 143 596 164 594 160 m 472 542 b 453 547 469 557 467 558 b 240 350 388 494 324 443 b 111 28 125 219 111 110 b 511 -300 111 -165 268 -300 b 589 -293 539 -300 567 -297 b 608 -274 610 -289 611 -289 l 539 140 b 511 151 536 156 533 157 b 372 -11 426 128 372 68 b 472 -160 372 -75 414 -135 b 493 -178 482 -164 493 -168 b 476 -193 493 -186 488 -193 b 439 -185 467 -193 450 -189 b 279 61 344 -153 279 -64 b 481 331 279 179 358 289 b 501 364 506 339 506 338 m 557 375 b 597 350 561 350 561 350 b 932 15 801 350 932 193 b 699 -315 932 -142 839 -260 b 681 -339 679 -324 678 -322 b 721 -636 696 -425 721 -557 b 447 -914 721 -872 540 -914 b 183 -687 238 -914 183 -778 b 332 -528 183 -601 239 -528 b 465 -669 417 -528 465 -593 b 372 -800 465 -750 415 -787 b 328 -824 340 -810 328 -814 b 439 -864 328 -842 364 -864 b 660 -633 521 -864 660 -839 b 622 -354 660 -568 639 -447 b 601 -342 619 -337 617 -339 b 506 -350 574 -347 538 -350 b 0 121 165 -350 0 -121 b 156 518 0 269 60 399 b 413 765 228 607 324 692 b 425 799 429 779 428 782 b 406 1026 415 856 406 946 b 542 1458 406 1171 439 1344 b 632 1525 569 1489 613 1525 b 704 1456 647 1525 683 1486 b 794 1132 761 1372 794 1253 b 608 682 794 975 725 810 b 531 603 582 653 553 624 b 522 576 522 594 519 593 "},"":{"ha":932,"x_min":0,"x_max":0,"o":"m 665 -253 b 688 -261 668 -269 671 -269 b 818 -64 765 -222 818 -151 b 613 163 818 58 725 153 b 597 143 596 164 594 160 m 653 1310 b 468 960 568 1310 468 1176 b 476 832 468 915 471 868 b 494 821 479 814 485 813 b 582 903 526 849 560 881 b 736 1196 690 1011 736 1100 b 653 1310 736 1272 699 1310 m 472 542 b 453 547 469 557 467 558 b 240 350 388 494 324 443 b 111 28 125 219 111 110 b 511 -300 111 -165 268 -300 b 589 -293 539 -300 567 -297 b 608 -274 610 -289 611 -289 l 539 140 b 511 151 536 156 533 157 b 372 -11 426 128 372 68 b 472 -160 372 -75 414 -135 b 493 -178 482 -164 493 -168 b 476 -193 493 -186 488 -193 b 439 -185 467 -193 450 -189 b 279 61 344 -153 279 -64 b 481 331 279 179 358 289 b 501 364 506 339 506 338 m 557 375 b 597 350 561 350 561 350 b 932 15 801 350 932 193 b 699 -315 932 -142 839 -260 b 681 -339 679 -324 678 -322 b 721 -636 696 -425 721 -557 b 518 -906 721 -819 611 -886 b 564 -911 529 -908 544 -911 b 628 -903 589 -911 610 -908 b 649 -897 639 -900 643 -897 b 657 -906 653 -897 657 -901 b 644 -924 657 -911 653 -917 b 529 -972 618 -949 579 -972 b 496 -969 518 -972 506 -971 b 481 -976 488 -968 483 -968 l 468 -1015 b 479 -1025 465 -1024 467 -1029 b 519 -1019 490 -1021 503 -1019 b 610 -1089 575 -1019 610 -1039 b 472 -1224 610 -1169 551 -1224 b 385 -1158 413 -1224 385 -1192 b 426 -1108 385 -1129 403 -1108 b 460 -1139 444 -1108 460 -1118 b 438 -1176 460 -1161 447 -1172 b 426 -1186 431 -1179 426 -1181 b 457 -1201 426 -1194 440 -1201 b 540 -1090 514 -1201 540 -1132 b 501 -1047 540 -1067 531 -1047 b 450 -1072 475 -1047 457 -1065 b 433 -1082 443 -1079 439 -1082 b 419 -1068 425 -1082 419 -1076 b 424 -1053 419 -1064 421 -1061 l 471 -914 l 471 -912 b 447 -914 463 -914 454 -914 b 404 -911 432 -914 418 -912 b 403 -917 404 -912 403 -914 l 319 -1179 b 322 -1190 318 -1186 317 -1190 l 351 -1193 b 364 -1206 360 -1194 364 -1199 b 350 -1217 364 -1212 360 -1217 l 207 -1217 b 193 -1206 197 -1217 193 -1212 b 206 -1193 193 -1199 197 -1194 l 235 -1190 b 246 -1182 243 -1190 243 -1187 l 304 -999 b 306 -989 306 -994 306 -992 b 301 -983 306 -985 304 -983 b 290 -992 297 -983 294 -986 l 258 -1026 b 243 -1035 254 -1032 250 -1035 b 229 -1022 236 -1035 229 -1029 b 236 -1008 229 -1018 232 -1014 l 328 -906 b 338 -899 331 -901 333 -899 b 183 -687 218 -860 183 -758 b 332 -528 183 -601 239 -528 b 465 -669 417 -528 465 -593 b 372 -800 465 -750 415 -787 b 328 -824 340 -810 328 -814 b 439 -864 328 -842 364 -864 b 660 -633 521 -864 660 -839 b 622 -354 660 -568 639 -447 b 601 -342 619 -337 617 -339 b 506 -350 574 -347 538 -350 b 0 121 165 -350 0 -121 b 156 518 0 269 60 399 b 413 765 228 607 324 692 b 425 799 429 779 428 782 b 406 1026 415 856 406 946 b 542 1458 406 1171 439 1344 b 632 1525 569 1489 613 1525 b 704 1456 647 1525 683 1486 b 794 1132 761 1372 794 1253 b 608 682 794 975 725 810 b 531 603 582 653 553 624 b 522 576 522 594 519 593 "},"":{"ha":922,"x_min":0,"x_max":0,"o":"m 488 -912 b 435 -961 457 -912 435 -931 b 478 -1018 435 -981 446 -993 b 499 -1021 489 -1025 493 -1025 b 532 -957 522 -1004 532 -981 b 488 -912 532 -935 521 -912 m 410 -1074 b 371 -1146 381 -1092 371 -1124 b 426 -1199 371 -1171 385 -1199 b 486 -1143 460 -1199 486 -1179 b 431 -1078 486 -1122 475 -1112 b 410 -1074 421 -1071 417 -1069 m 665 -253 b 688 -261 668 -269 671 -269 b 818 -64 765 -222 818 -151 b 613 163 818 58 725 153 b 597 143 596 164 594 160 m 653 1310 b 468 960 568 1310 468 1176 b 476 832 468 915 471 868 b 494 821 479 814 485 813 b 582 903 526 849 560 881 b 736 1196 690 1011 736 1100 b 653 1310 736 1272 699 1310 m 472 542 b 453 547 469 557 467 558 b 240 350 388 494 324 443 b 111 28 125 219 111 110 b 511 -300 111 -165 268 -300 b 589 -293 539 -300 567 -297 b 608 -274 610 -289 611 -289 l 539 140 b 511 151 536 156 533 157 b 372 -11 426 128 372 68 b 472 -160 372 -75 414 -135 b 493 -178 482 -164 493 -168 b 476 -193 493 -186 488 -193 b 439 -185 467 -193 450 -189 b 279 61 344 -153 279 -64 b 481 331 279 179 358 289 b 501 364 506 339 506 338 m 557 375 b 597 350 561 350 561 350 b 932 15 801 350 932 193 b 699 -315 932 -142 839 -260 b 681 -339 679 -324 678 -322 b 721 -636 696 -425 721 -557 b 542 -900 721 -804 628 -874 b 585 -964 571 -912 585 -936 b 533 -1037 585 -989 571 -1018 b 529 -1060 517 -1046 519 -1049 b 551 -1121 546 -1078 551 -1096 b 425 -1219 551 -1185 493 -1219 b 317 -1137 350 -1219 317 -1183 b 379 -1056 317 -1104 335 -1074 b 386 -1036 396 -1049 393 -1046 b 369 -985 375 -1022 369 -1006 b 408 -912 369 -953 383 -928 b 183 -687 231 -896 183 -772 b 332 -528 183 -601 239 -528 b 465 -669 417 -528 465 -593 b 372 -800 465 -750 415 -787 b 328 -824 340 -810 328 -814 b 439 -864 328 -842 364 -864 b 660 -633 521 -864 660 -839 b 622 -354 660 -568 639 -447 b 601 -342 619 -337 617 -339 b 506 -350 574 -347 538 -350 b 0 121 165 -350 0 -121 b 156 518 0 269 60 399 b 413 765 228 607 324 692 b 425 799 429 779 428 782 b 406 1026 415 856 406 946 b 542 1458 406 1171 439 1344 b 632 1525 569 1489 613 1525 b 704 1456 647 1525 683 1486 b 794 1132 761 1372 794 1253 b 608 682 794 975 725 810 b 531 603 582 653 553 624 b 522 576 522 594 519 593 "},"":{"ha":932,"x_min":0,"x_max":0,"o":"m 697 1813 b 644 1764 667 1813 644 1794 b 688 1707 644 1743 656 1731 b 708 1704 699 1699 703 1700 b 742 1767 732 1719 742 1744 b 697 1813 742 1790 731 1813 m 636 1525 b 696 1581 669 1525 696 1546 b 640 1646 696 1601 685 1611 b 619 1650 631 1654 626 1654 b 581 1579 590 1632 581 1600 b 629 1525 581 1556 593 1528 m 665 -253 b 688 -261 668 -269 671 -269 b 818 -64 765 -222 818 -151 b 613 163 818 58 725 153 b 597 143 596 164 594 160 m 653 1310 b 468 960 568 1310 468 1176 b 476 832 468 915 471 868 b 494 821 479 814 485 813 b 582 903 526 849 560 881 b 736 1196 690 1011 736 1100 b 653 1310 736 1272 699 1310 m 472 542 b 453 547 469 557 467 558 b 240 350 388 494 324 443 b 111 28 125 219 111 110 b 511 -300 111 -165 268 -300 b 589 -293 539 -300 567 -297 b 608 -274 610 -289 611 -289 l 539 140 b 511 151 536 156 533 157 b 372 -11 426 128 372 68 b 472 -160 372 -75 414 -135 b 493 -178 482 -164 493 -168 b 476 -193 493 -186 488 -193 b 439 -185 467 -193 450 -189 b 279 61 344 -153 279 -64 b 481 331 279 179 358 289 b 501 364 506 339 506 338 m 557 375 b 597 350 561 350 561 350 b 932 15 801 350 932 193 b 699 -315 932 -142 839 -260 b 681 -339 679 -324 678 -322 b 721 -636 696 -425 721 -557 b 447 -914 721 -872 540 -914 b 183 -687 238 -914 183 -778 b 332 -528 183 -601 239 -528 b 465 -669 417 -528 465 -593 b 372 -800 465 -750 415 -787 b 328 -824 340 -810 328 -814 b 439 -864 328 -842 364 -864 b 660 -633 521 -864 660 -839 b 622 -354 660 -568 639 -447 b 601 -342 619 -337 617 -339 b 506 -350 574 -347 538 -350 b 0 121 165 -350 0 -121 b 156 518 0 269 60 399 b 413 765 228 607 324 692 b 425 799 429 779 428 782 b 406 1026 415 856 406 946 b 542 1458 406 1171 439 1344 b 596 1507 557 1475 578 1494 b 526 1586 547 1518 526 1549 b 589 1668 526 1619 544 1650 b 596 1689 606 1675 603 1679 b 579 1739 585 1701 579 1719 b 699 1833 579 1799 628 1833 b 794 1761 767 1833 794 1800 b 743 1688 794 1735 781 1707 b 739 1664 726 1679 729 1675 b 761 1603 756 1647 761 1629 b 661 1506 761 1549 717 1514 b 704 1456 676 1492 693 1472 b 794 1132 761 1372 794 1253 b 608 682 794 975 725 810 b 531 603 582 653 553 624 b 522 576 522 594 519 593 "},"":{"ha":932,"x_min":0,"x_max":0,"o":"m 569 1824 b 582 1831 574 1828 576 1831 b 608 1822 593 1831 599 1822 b 638 1831 618 1822 629 1831 b 646 1822 643 1831 646 1826 b 644 1813 646 1819 646 1817 l 561 1550 b 564 1538 560 1543 558 1539 l 593 1535 b 606 1524 601 1535 606 1531 b 592 1511 606 1517 601 1511 l 449 1511 b 435 1524 439 1511 435 1517 b 447 1535 435 1531 439 1535 l 476 1538 b 488 1547 485 1539 485 1540 l 546 1729 b 547 1739 547 1733 547 1736 b 543 1744 547 1743 546 1744 b 532 1738 539 1744 536 1743 l 500 1703 b 485 1693 496 1697 492 1693 b 471 1706 478 1693 471 1700 b 478 1721 471 1711 474 1715 m 713 1814 b 731 1829 715 1824 721 1829 b 754 1824 738 1829 742 1828 b 806 1818 764 1821 782 1818 b 869 1825 831 1818 851 1821 b 890 1832 881 1829 888 1832 b 899 1824 894 1832 899 1828 b 886 1804 899 1818 894 1813 b 771 1757 860 1781 821 1757 b 738 1760 760 1757 747 1758 b 722 1753 729 1761 725 1761 l 710 1714 b 721 1704 707 1706 708 1700 b 761 1710 732 1707 744 1710 b 851 1639 817 1710 851 1689 b 714 1504 851 1558 793 1504 b 626 1571 654 1504 626 1536 b 668 1621 626 1599 644 1621 b 701 1589 686 1621 701 1610 b 679 1553 701 1567 689 1557 b 668 1542 672 1549 668 1547 b 699 1526 668 1533 682 1526 b 782 1638 756 1526 782 1596 b 743 1682 782 1663 772 1682 b 692 1656 717 1682 699 1664 b 675 1647 685 1650 681 1647 b 661 1660 667 1647 661 1651 b 665 1676 661 1665 663 1668 m 653 1310 b 468 960 568 1310 468 1176 b 476 832 468 915 471 868 b 494 821 479 814 485 813 b 582 903 526 849 560 881 b 736 1196 690 1011 736 1100 b 653 1310 736 1272 699 1310 m 665 -253 b 688 -261 668 -269 671 -269 b 818 -64 765 -222 818 -151 b 613 163 818 58 725 153 b 597 143 596 164 594 160 m 472 542 b 453 547 469 557 467 558 b 240 350 388 494 324 443 b 111 28 125 219 111 110 b 511 -300 111 -165 268 -300 b 589 -293 539 -300 567 -297 b 608 -274 610 -289 611 -289 l 539 140 b 511 151 536 156 533 157 b 372 -11 426 128 372 68 b 472 -160 372 -75 414 -135 b 493 -178 482 -164 493 -168 b 476 -193 493 -186 488 -193 b 439 -185 467 -193 450 -189 b 279 61 344 -153 279 -64 b 481 331 279 179 358 289 b 501 364 506 339 506 338 m 557 375 b 597 350 561 350 561 350 b 932 15 801 350 932 193 b 699 -315 932 -142 839 -260 b 681 -339 679 -324 678 -322 b 721 -636 696 -425 721 -557 b 447 -914 721 -872 540 -914 b 183 -687 238 -914 183 -778 b 332 -528 183 -601 239 -528 b 465 -669 417 -528 465 -593 b 372 -800 465 -750 415 -787 b 328 -824 340 -810 328 -814 b 439 -864 328 -842 364 -864 b 660 -633 521 -864 660 -839 b 622 -354 660 -568 639 -447 b 601 -342 619 -337 617 -339 b 506 -350 574 -347 538 -350 b 0 121 165 -350 0 -121 b 156 518 0 269 60 399 b 413 765 228 607 324 692 b 425 799 429 779 428 782 b 406 1026 415 856 406 946 b 542 1458 406 1171 439 1344 b 632 1525 569 1489 613 1525 b 704 1456 647 1525 683 1486 b 794 1132 761 1372 794 1253 b 608 682 794 975 725 810 b 531 603 582 653 553 624 b 522 576 522 594 519 593 "},"":{"ha":1450,"x_min":0,"x_max":0,"o":"m 699 -254 b 660 -221 685 -244 672 -233 l 665 -253 b 688 -261 668 -269 671 -269 m 990 542 b 971 547 988 557 985 558 b 758 350 906 494 842 443 b 735 322 750 340 742 332 b 857 231 785 301 825 269 b 999 331 892 275 940 310 b 1019 364 1024 339 1024 338 m 818 -51 b 799 28 808 -28 801 0 b 646 157 771 93 714 140 b 629 28 632 108 629 65 b 750 -218 629 -74 672 -160 b 818 -64 792 -178 818 -125 m 1183 -253 b 1206 -261 1186 -269 1189 -269 b 1336 -64 1283 -222 1336 -151 b 1131 163 1336 58 1243 153 b 1115 143 1114 164 1113 160 m 1057 140 b 1029 151 1054 156 1051 157 b 925 88 985 139 949 117 b 932 15 929 64 932 39 b 915 -94 932 -24 926 -61 b 990 -160 933 -124 958 -146 b 1011 -178 1000 -164 1011 -168 b 994 -193 1011 -186 1006 -193 b 957 -185 985 -193 968 -189 b 892 -150 933 -176 911 -165 b 807 -253 871 -189 842 -224 b 1029 -300 868 -282 943 -300 b 1107 -293 1057 -300 1085 -297 b 1126 -274 1128 -289 1129 -289 m 1171 1310 b 986 960 1086 1310 986 1176 b 994 832 986 915 989 868 b 1013 821 997 814 1003 813 b 1100 903 1044 849 1078 881 b 1254 1196 1208 1011 1254 1100 b 1171 1310 1254 1272 1217 1310 m 653 1310 b 468 960 568 1310 468 1176 b 476 832 468 915 471 868 b 494 821 479 814 485 813 b 582 903 526 849 560 881 b 736 1196 690 1011 736 1100 b 653 1310 736 1272 699 1310 m 681 -339 b 719 -606 693 -414 715 -526 b 850 -528 743 -560 789 -528 b 983 -669 935 -528 983 -593 b 890 -800 983 -750 933 -787 b 846 -824 858 -810 846 -814 b 957 -864 846 -842 882 -864 b 1178 -633 1039 -864 1178 -839 b 1140 -354 1178 -568 1157 -447 b 1119 -342 1138 -337 1135 -339 b 1024 -350 1092 -347 1056 -350 b 754 -287 917 -350 826 -326 b 699 -315 736 -299 718 -307 b 681 -339 679 -324 678 -322 m 472 542 b 453 547 469 557 467 558 b 240 350 388 494 324 443 b 111 28 125 219 111 110 b 511 -300 111 -165 268 -300 b 589 -293 539 -300 567 -297 b 608 -274 610 -289 611 -289 l 583 -126 b 518 121 539 -51 518 33 l 518 153 b 511 151 517 153 514 151 b 372 -11 426 128 372 68 b 472 -160 372 -75 414 -135 b 493 -178 482 -164 493 -168 b 476 -193 493 -186 488 -193 b 439 -185 467 -193 450 -189 b 279 61 344 -153 279 -64 b 481 331 279 179 358 289 b 501 364 506 339 506 338 m 557 375 b 568 349 560 356 560 350 b 674 518 594 408 631 464 b 931 765 746 607 842 692 b 943 799 947 779 946 782 b 924 1026 933 856 924 946 b 1060 1458 924 1171 957 1344 b 1150 1525 1088 1489 1131 1525 b 1222 1456 1165 1525 1201 1486 b 1313 1132 1279 1372 1313 1253 b 1126 682 1313 975 1243 810 b 1049 603 1100 653 1071 624 b 1040 576 1040 594 1038 593 l 1075 375 b 1115 350 1079 350 1079 350 b 1450 15 1319 350 1450 193 b 1217 -315 1450 -142 1357 -260 b 1199 -339 1197 -324 1196 -322 b 1239 -636 1214 -425 1239 -557 b 965 -914 1239 -872 1058 -914 b 707 -737 792 -914 725 -821 b 447 -914 663 -885 525 -914 b 183 -687 238 -914 183 -778 b 332 -528 183 -601 239 -528 b 465 -669 417 -528 465 -593 b 372 -800 465 -750 415 -787 b 328 -824 340 -810 328 -814 b 439 -864 328 -842 364 -864 b 660 -633 521 -864 660 -839 b 622 -354 660 -568 639 -447 b 601 -342 619 -337 617 -339 b 506 -350 574 -347 538 -350 b 0 121 165 -350 0 -121 b 156 518 0 269 60 399 b 413 765 228 607 324 692 b 425 799 429 779 428 782 b 406 1026 415 856 406 946 b 542 1458 406 1171 439 1344 b 632 1525 569 1489 613 1525 b 704 1456 647 1525 683 1486 b 794 1132 761 1372 794 1253 b 608 682 794 975 725 810 b 531 603 582 653 553 624 b 522 576 522 594 519 593 "},"":{"ha":1169,"x_min":0,"x_max":0,"o":"m 1151 478 b 1169 460 1164 478 1169 472 l 1169 -196 b 1143 -225 1169 -214 1161 -225 b 1117 -196 1125 -225 1117 -214 l 1117 336 b 1103 350 1117 346 1113 350 l 872 350 b 854 368 860 350 854 356 l 854 460 b 872 478 854 472 860 478 m 872 564 b 854 582 860 564 854 569 l 854 674 b 872 692 854 686 860 692 l 1103 692 b 1117 706 1113 692 1117 696 l 1117 1238 b 1143 1267 1117 1256 1125 1267 b 1169 1238 1161 1267 1169 1256 l 1169 582 b 1151 564 1169 569 1164 564 m 653 1310 b 468 960 568 1310 468 1176 b 476 832 468 915 471 868 b 494 821 479 814 485 813 b 582 903 526 849 560 881 b 736 1196 690 1011 736 1100 b 653 1310 736 1272 699 1310 m 665 -253 b 688 -261 668 -269 671 -269 b 818 -64 765 -222 818 -151 b 613 163 818 58 725 153 b 597 143 596 164 594 160 m 472 542 b 453 547 469 557 467 558 b 240 350 388 494 324 443 b 111 28 125 219 111 110 b 511 -300 111 -165 268 -300 b 589 -293 539 -300 567 -297 b 608 -274 610 -289 611 -289 l 539 140 b 511 151 536 156 533 157 b 372 -11 426 128 372 68 b 472 -160 372 -75 414 -135 b 493 -178 482 -164 493 -168 b 476 -193 493 -186 488 -193 b 439 -185 467 -193 450 -189 b 279 61 344 -153 279 -64 b 481 331 279 179 358 289 b 501 364 506 339 506 338 m 557 375 b 597 350 561 350 561 350 b 932 15 801 350 932 193 b 699 -315 932 -142 839 -260 b 681 -339 679 -324 678 -322 b 721 -636 696 -425 721 -557 b 447 -914 721 -872 540 -914 b 183 -687 238 -914 183 -778 b 332 -528 183 -601 239 -528 b 465 -669 417 -528 465 -593 b 372 -800 465 -750 415 -787 b 328 -824 340 -810 328 -814 b 439 -864 328 -842 364 -864 b 660 -633 521 -864 660 -839 b 622 -354 660 -568 639 -447 b 601 -342 619 -337 617 -339 b 506 -350 574 -347 538 -350 b 0 121 165 -350 0 -121 b 156 518 0 269 60 399 b 413 765 228 607 324 692 b 425 799 429 779 428 782 b 406 1026 415 856 406 946 b 542 1458 406 1171 439 1344 b 632 1525 569 1489 613 1525 b 704 1456 647 1525 683 1486 b 794 1132 761 1372 794 1253 b 608 682 794 975 725 810 b 531 603 582 653 553 624 b 522 576 522 594 519 593 "},"":{"ha":922,"x_min":0,"x_max":0,"o":"m 592 363 b 925 46 767 363 915 224 l 925 24 b 675 -314 925 -129 828 -254 l 707 -517 b 717 -617 714 -553 717 -586 b 574 -871 717 -761 649 -836 b 694 -1060 657 -917 694 -982 b 574 -1249 694 -1136 658 -1203 b 572 -1250 574 -1250 574 -1250 l 571 -1247 l 571 -1237 b 574 -1232 571 -1235 572 -1233 b 642 -1060 622 -1193 642 -1143 b 574 -887 642 -976 624 -925 b 571 -882 571 -886 571 -882 l 571 -874 l 571 -872 b 525 -889 556 -879 540 -885 b 579 -956 554 -899 579 -921 b 538 -1022 579 -1000 550 -1008 b 526 -1040 529 -1028 526 -1033 b 532 -1061 526 -1046 529 -1053 b 544 -1107 540 -1076 544 -1092 b 485 -1193 544 -1144 522 -1179 b 428 -1201 465 -1201 447 -1201 b 308 -1124 383 -1201 321 -1174 b 307 -1111 307 -1119 307 -1115 b 375 -1022 307 -1074 342 -1032 b 383 -1015 381 -1021 383 -1018 b 381 -1008 383 -1012 382 -1010 b 358 -956 365 -992 358 -974 b 389 -896 358 -933 369 -911 b 328 -882 367 -893 346 -889 b 326 -885 328 -883 326 -885 b 258 -1057 276 -922 258 -972 b 326 -1231 258 -1142 278 -1192 b 329 -1235 328 -1231 329 -1232 l 329 -1244 b 328 -1247 329 -1246 328 -1247 l 326 -1247 b 206 -1057 242 -1200 206 -1133 b 311 -876 206 -983 239 -922 b 179 -675 199 -832 179 -733 b 185 -629 179 -647 183 -629 b 313 -514 194 -565 246 -517 l 322 -514 b 460 -644 394 -514 454 -574 l 460 -651 b 364 -783 460 -714 421 -764 b 331 -793 353 -790 343 -790 b 319 -803 324 -794 319 -799 b 331 -818 319 -807 322 -811 b 446 -846 360 -839 400 -846 l 468 -846 b 656 -615 485 -846 656 -843 b 647 -522 656 -587 653 -557 l 617 -333 l 608 -333 b 522 -339 581 -336 551 -339 b 3 101 294 -339 31 -235 b 1 143 1 115 1 129 b 428 786 1 411 228 613 l 415 874 b 406 1017 408 922 406 971 b 628 1529 406 1265 493 1471 b 731 1400 628 1529 679 1519 b 790 1133 769 1310 790 1221 b 514 594 790 946 697 767 b 557 360 525 519 542 449 b 576 363 563 363 568 363 m 428 -1186 b 476 -1139 454 -1186 476 -1161 b 474 -1121 476 -1133 476 -1126 b 439 -1074 465 -1101 454 -1086 b 418 -1056 432 -1067 422 -1061 b 399 -1044 413 -1053 406 -1044 b 378 -1056 389 -1044 383 -1053 b 372 -1067 375 -1058 372 -1061 b 357 -1108 363 -1076 357 -1093 b 358 -1118 357 -1111 358 -1115 b 428 -1186 367 -1161 401 -1186 m 532 -949 b 519 -918 532 -936 526 -922 b 465 -896 506 -904 485 -896 b 422 -929 444 -899 425 -907 b 447 -975 422 -949 435 -962 b 482 -1006 457 -985 468 -997 b 500 -1012 489 -1010 494 -1012 b 532 -958 522 -1012 529 -978 m 639 1311 b 460 939 529 1304 460 1081 b 463 894 460 922 461 908 b 476 826 463 886 468 860 b 726 1169 625 939 707 1054 b 728 1199 728 1179 728 1189 b 639 1311 728 1274 685 1311 m 111 21 b 514 -287 118 -221 363 -287 b 606 -276 553 -287 585 -283 l 532 164 b 368 8 439 149 368 103 l 368 -6 b 460 -142 372 -61 432 -131 b 481 -167 472 -147 481 -158 b 463 -178 481 -174 475 -178 b 435 -174 456 -178 446 -176 b 286 11 372 -151 308 -82 b 279 69 282 31 279 50 b 500 349 279 193 375 313 l 465 564 b 111 35 286 433 111 264 m 811 -36 b 593 169 806 79 707 169 l 588 169 b 665 -260 617 14 643 -136 b 811 -51 760 -219 811 -149 "},"":{"ha":961,"x_min":0,"x_max":0,"o":"m 683 -275 b 833 -49 783 -231 833 -158 b 604 161 833 67 726 161 m 121 11 b 529 -303 128 -233 375 -303 b 624 -290 567 -303 601 -297 l 549 156 b 382 -6 454 139 382 92 l 382 -18 b 476 -156 385 -74 447 -143 b 494 -181 485 -162 494 -171 b 479 -193 494 -187 492 -193 b 451 -187 476 -193 464 -190 b 300 1 385 -165 322 -96 b 294 61 294 21 294 42 b 517 343 294 186 388 306 l 482 560 b 121 24 300 428 121 256 m 658 1317 b 476 943 544 1310 476 1088 b 479 896 476 926 476 911 b 492 826 479 889 485 861 b 746 1175 642 939 726 1058 b 749 1203 746 1185 749 1193 b 658 1317 749 1278 701 1317 m 947 14 b 693 -328 947 -143 849 -268 b 726 -535 711 -454 726 -535 b 736 -632 733 -569 736 -604 b 489 -918 736 -849 589 -911 l 215 -918 l 215 -899 l 388 -899 l 485 -899 b 674 -642 501 -899 674 -871 b 664 -542 674 -611 671 -579 l 656 -496 b 624 -347 629 -351 629 -347 l 610 -347 b 532 -353 583 -350 558 -353 b 11 92 303 -353 40 -247 b 8 133 11 106 8 121 b 444 786 8 403 240 610 l 429 874 b 419 1015 422 921 419 968 b 646 1539 419 1269 510 1479 b 750 1407 646 1539 696 1529 b 808 1140 790 1317 808 1228 b 529 592 808 949 714 764 l 574 353 b 592 356 579 356 586 356 l 608 356 b 947 36 786 356 938 215 "},"":{"ha":932,"x_min":0,"x_max":0,"o":"m 665 -253 b 688 -261 668 -269 671 -269 b 818 -64 765 -222 818 -151 b 613 163 818 58 725 153 b 597 143 596 164 594 160 m 472 542 b 453 547 469 557 467 558 b 240 350 388 494 324 443 b 111 28 125 219 111 110 b 511 -300 111 -165 268 -300 b 589 -293 539 -300 567 -297 b 608 -274 610 -289 611 -289 l 539 140 b 511 151 536 156 533 157 b 372 -11 426 128 372 68 b 472 -160 372 -75 414 -135 b 493 -178 482 -164 493 -168 b 476 -193 493 -186 488 -193 b 439 -185 467 -193 450 -189 b 279 61 344 -153 279 -64 b 481 331 279 179 358 289 b 501 364 506 339 506 338 m 557 375 b 597 350 561 350 561 350 b 932 15 801 350 932 193 b 699 -315 932 -142 839 -260 b 681 -339 679 -324 678 -322 b 721 -636 696 -425 721 -557 b 447 -914 721 -872 540 -914 b 183 -687 238 -914 183 -778 b 332 -528 183 -601 239 -528 b 465 -669 417 -528 465 -593 b 372 -800 465 -750 415 -787 b 328 -824 340 -810 328 -814 b 439 -864 328 -842 364 -864 b 660 -633 521 -864 660 -839 b 622 -354 660 -568 639 -447 b 601 -342 619 -337 617 -339 b 506 -350 574 -347 538 -350 b 0 121 165 -350 0 -121 b 156 518 0 269 60 399 b 413 765 228 607 324 692 b 425 799 429 779 428 782 b 406 1026 415 856 406 946 b 542 1458 406 1171 440 1346 b 649 1528 578 1499 617 1528 b 686 1489 669 1528 683 1497 b 685 1443 692 1475 689 1461 b 653 1333 675 1406 664 1369 b 615 1301 647 1314 629 1307 b 468 960 547 1274 468 1154 b 476 832 468 915 471 868 b 494 821 479 814 485 813 b 582 903 526 849 560 881 b 732 1147 672 993 718 1069 b 764 1190 738 1179 739 1190 b 794 1132 792 1190 794 1183 b 608 682 794 975 725 810 b 531 603 582 653 553 624 b 522 576 522 594 519 593 "},"":{"ha":929,"x_min":0,"x_max":0,"o":"m 665 -253 b 688 -261 668 -269 671 -269 b 818 -64 765 -222 818 -151 b 613 163 818 58 725 153 b 597 143 596 164 594 160 m 510 1257 b 503 1236 513 1250 514 1239 b 424 1222 499 1236 432 1224 b 413 1197 414 1221 410 1210 b 476 832 414 1186 476 832 b 494 821 479 814 485 813 b 582 903 526 849 560 881 b 694 1186 665 986 694 1082 b 651 1339 694 1258 667 1318 b 649 1367 643 1351 643 1361 b 685 1357 654 1372 667 1375 b 781 1093 729 1311 781 1231 b 608 682 781 953 725 810 b 531 603 582 653 553 624 b 522 576 522 594 519 593 l 557 375 b 597 350 561 350 561 350 b 932 15 801 350 932 193 b 699 -315 932 -142 839 -260 b 681 -339 679 -324 678 -322 b 721 -636 696 -425 721 -557 b 447 -914 721 -872 540 -914 b 183 -687 238 -914 183 -778 b 332 -528 183 -601 239 -528 b 465 -669 417 -528 465 -593 b 372 -800 465 -750 415 -787 b 328 -824 340 -810 328 -814 b 439 -864 328 -842 364 -864 b 660 -633 521 -864 660 -839 b 622 -354 660 -568 639 -447 b 601 -342 619 -337 617 -339 b 506 -350 574 -347 538 -350 b 0 121 165 -350 0 -121 b 156 518 0 269 60 399 b 413 765 228 607 324 692 b 425 799 429 779 428 782 b 360 1189 425 799 363 1175 b 346 1208 357 1204 351 1210 l 263 1193 b 247 1203 254 1192 249 1194 l 247 1213 l 299 1657 b 304 1668 299 1664 299 1668 b 314 1660 310 1669 313 1665 m 472 542 b 453 547 469 557 467 558 b 240 350 388 494 324 443 b 111 28 125 219 111 110 b 511 -300 111 -165 268 -300 b 589 -293 539 -300 567 -297 b 608 -274 610 -289 611 -289 l 539 140 b 511 151 536 156 533 157 b 372 -11 426 128 372 68 b 472 -160 372 -75 414 -135 b 493 -178 482 -164 493 -168 b 476 -193 493 -186 488 -193 b 439 -185 467 -193 450 -189 b 279 61 344 -153 279 -64 b 481 331 279 179 358 289 b 501 364 506 339 506 338 "},"":{"ha":935,"x_min":0,"x_max":0,"o":"m 665 -257 b 688 -265 668 -274 671 -274 b 818 -68 765 -226 818 -156 b 613 158 818 54 725 149 b 597 139 596 160 594 156 m 472 538 b 453 543 469 553 467 554 b 240 346 388 490 324 439 b 111 24 125 215 111 106 b 511 -304 111 -169 268 -304 b 589 -297 539 -304 567 -301 b 608 -278 610 -293 611 -293 l 539 136 b 511 147 536 151 533 153 b 372 -15 426 124 372 64 b 472 -164 372 -79 414 -139 b 493 -182 482 -168 493 -172 b 476 -197 493 -190 488 -197 b 439 -189 467 -197 450 -193 b 279 57 344 -157 279 -68 b 481 326 279 175 358 285 b 501 360 506 335 506 333 m 468 956 b 476 828 468 911 471 864 b 494 817 479 810 485 808 b 582 899 526 844 560 876 b 736 1192 690 1007 736 1096 b 653 1306 736 1268 699 1306 b 468 956 568 1306 468 1172 m 806 -521 b 819 -529 814 -519 818 -521 l 819 -539 l 768 -983 b 763 -994 768 -990 768 -994 b 753 -986 757 -996 754 -992 l 557 -583 b 554 -574 554 -578 554 -575 b 564 -562 553 -565 556 -564 l 636 -550 b 651 -528 653 -547 654 -544 l 622 -358 b 601 -346 619 -342 617 -343 b 506 -354 574 -351 538 -354 b 0 117 165 -354 0 -125 b 156 514 0 265 60 394 b 413 761 228 603 324 688 b 425 794 429 775 428 778 b 406 1022 415 851 406 942 b 542 1454 406 1167 439 1340 b 632 1521 569 1485 613 1521 b 704 1451 647 1521 683 1482 b 794 1128 761 1368 794 1249 b 608 678 794 971 725 806 b 531 599 582 649 553 619 b 522 572 522 590 519 589 l 557 371 b 597 346 561 346 561 346 b 932 11 801 346 932 189 b 699 -319 932 -146 839 -264 b 681 -343 679 -328 678 -326 l 708 -515 b 722 -535 711 -528 713 -535 "},"":{"ha":971,"x_min":0,"x_max":0,"o":"m 149 699 b 178 669 168 699 178 689 l 178 -669 b 149 -699 178 -689 168 -699 l 29 -699 b 0 -669 10 -699 0 -689 l 0 669 b 29 699 0 689 10 699 m 319 61 b 332 53 319 50 326 51 b 456 256 368 63 426 99 b 482 290 460 278 468 290 b 511 253 497 290 504 276 b 660 124 529 192 561 124 b 775 394 750 124 775 213 b 628 658 775 576 743 658 b 547 647 597 658 569 654 b 510 621 524 640 510 631 b 547 600 510 614 532 606 b 603 510 575 590 603 563 b 508 414 603 449 563 414 b 401 528 449 414 401 454 b 643 703 401 615 478 703 b 971 399 871 703 971 543 b 681 74 971 207 865 74 b 596 86 640 74 614 81 b 556 85 582 90 568 93 b 506 0 536 72 506 28 b 556 -85 506 -28 536 -72 b 596 -86 568 -93 582 -90 b 681 -74 614 -81 640 -74 b 971 -399 865 -74 971 -207 b 643 -703 971 -543 871 -703 b 401 -528 478 -703 401 -615 b 508 -414 401 -454 449 -414 b 603 -510 563 -414 603 -449 b 547 -600 603 -562 575 -590 b 510 -621 532 -606 510 -614 b 547 -647 510 -631 524 -640 b 628 -658 569 -654 597 -658 b 775 -394 743 -658 775 -576 b 660 -124 775 -212 750 -124 b 511 -253 561 -124 529 -192 b 482 -290 504 -276 497 -290 b 456 -256 468 -290 460 -278 b 332 -53 426 -99 368 -62 b 319 -61 326 -51 319 -50 l 319 -669 b 290 -699 319 -689 310 -699 l 289 -699 b 260 -669 269 -699 260 -689 l 260 669 b 289 699 260 689 269 699 l 290 699 b 319 669 310 699 319 689 "},"":{"ha":971,"x_min":0,"x_max":0,"o":"m 482 -722 b 429 -771 451 -722 429 -740 b 472 -828 429 -790 440 -803 b 493 -831 483 -835 488 -835 b 526 -767 517 -814 526 -790 b 482 -722 526 -744 515 -722 m 404 -883 b 365 -956 375 -901 365 -933 b 421 -1008 365 -981 379 -1008 b 481 -953 454 -1008 481 -989 b 425 -887 481 -932 469 -922 b 404 -883 415 -881 411 -879 m 483 -701 b 579 -774 551 -701 579 -733 b 528 -847 579 -799 565 -828 b 524 -869 511 -856 514 -858 b 546 -931 540 -887 546 -906 b 419 -1029 546 -994 488 -1029 b 311 -947 344 -1029 311 -993 b 374 -865 311 -914 329 -883 b 381 -846 390 -858 388 -856 b 364 -794 369 -832 364 -815 b 483 -701 364 -736 413 -701 m 149 699 b 178 669 168 699 178 689 l 178 -669 b 149 -699 178 -689 168 -699 l 29 -699 b 0 -669 10 -699 0 -689 l 0 669 b 29 699 0 689 10 699 m 319 61 b 332 53 319 50 326 51 b 456 256 368 63 426 99 b 482 290 460 278 468 290 b 511 253 497 290 504 276 b 660 124 529 192 561 124 b 775 394 750 124 775 213 b 628 658 775 576 743 658 b 547 647 597 658 569 654 b 510 621 524 640 510 631 b 547 600 510 614 532 606 b 603 510 575 590 603 563 b 508 414 603 449 563 414 b 401 528 449 414 401 454 b 643 703 401 615 478 703 b 971 399 871 703 971 543 b 681 74 971 207 865 74 b 596 86 640 74 614 81 b 556 85 582 90 568 93 b 506 0 536 72 506 28 b 556 -85 506 -28 536 -72 b 596 -86 568 -93 582 -90 b 681 -74 614 -81 640 -74 b 971 -399 865 -74 971 -207 b 643 -703 971 -543 871 -703 b 401 -528 478 -703 401 -615 b 508 -414 401 -454 449 -414 b 603 -510 563 -414 603 -449 b 547 -600 603 -562 575 -590 b 510 -621 532 -606 510 -614 b 547 -647 510 -631 524 -640 b 628 -658 569 -654 597 -658 b 775 -394 743 -658 775 -576 b 660 -124 775 -212 750 -124 b 511 -253 561 -124 529 -192 b 482 -290 504 -276 497 -290 b 456 -256 468 -290 460 -278 b 332 -53 426 -99 368 -62 b 319 -61 326 -51 319 -50 l 319 -669 b 290 -699 319 -689 310 -699 l 289 -699 b 260 -669 269 -699 260 -689 l 260 669 b 289 699 260 689 269 699 l 290 699 b 319 669 310 699 319 689 "},"":{"ha":971,"x_min":0,"x_max":0,"o":"m 228 825 b 229 815 229 819 229 817 b 217 806 229 807 225 806 l 126 806 b 114 793 117 806 114 803 l 114 714 b 129 699 114 701 117 699 l 149 699 b 178 669 168 699 178 689 l 178 -669 b 149 -699 178 -689 168 -699 l 29 -699 b 0 -669 10 -699 0 -689 l 0 669 b 29 699 0 689 10 699 l 49 699 b 64 714 61 699 64 701 l 64 793 b 51 806 64 803 61 806 l -28 806 b -40 815 -36 806 -40 807 b -39 825 -40 817 -40 819 l 86 1256 b 94 1265 88 1261 89 1265 b 103 1256 100 1265 101 1261 m 319 61 b 332 53 319 50 326 51 b 456 256 368 63 426 99 b 482 290 460 278 468 290 b 511 253 497 290 504 276 b 660 124 529 192 561 124 b 775 394 750 124 775 213 b 628 658 775 576 743 658 b 547 647 597 658 569 654 b 510 621 524 640 510 631 b 547 600 510 614 532 606 b 603 510 575 590 603 563 b 508 414 603 449 563 414 b 401 528 449 414 401 454 b 643 703 401 615 478 703 b 971 399 871 703 971 543 b 681 74 971 207 865 74 b 596 86 640 74 614 81 b 556 85 582 90 568 93 b 506 0 536 72 506 28 b 556 -85 506 -28 536 -72 b 596 -86 568 -93 582 -90 b 681 -74 614 -81 640 -74 b 971 -399 865 -74 971 -207 b 643 -703 971 -543 871 -703 b 401 -528 478 -703 401 -615 b 508 -414 401 -454 449 -414 b 603 -510 563 -414 603 -449 b 547 -600 603 -562 575 -590 b 510 -621 532 -606 510 -614 b 547 -647 510 -631 524 -640 b 628 -658 569 -654 597 -658 b 775 -394 743 -658 775 -576 b 660 -124 775 -212 750 -124 b 511 -253 561 -124 529 -192 b 482 -290 504 -276 497 -290 b 456 -256 468 -290 460 -278 b 332 -53 426 -99 368 -62 b 319 -61 326 -51 319 -50 l 319 -669 b 290 -699 319 -689 310 -699 l 289 -699 b 260 -669 269 -699 260 -689 l 260 669 b 289 699 260 689 269 699 l 290 699 b 319 669 310 699 319 689 "},"":{"ha":972,"x_min":0,"x_max":0,"o":"m 211 -806 b 224 -815 219 -806 224 -807 b 222 -825 224 -817 224 -819 l 97 -1256 b 89 -1265 96 -1261 94 -1265 b 81 -1256 83 -1265 82 -1261 l -44 -825 b -46 -815 -46 -819 -46 -817 b -33 -806 -46 -807 -42 -806 l 51 -806 b 64 -793 61 -806 64 -803 l 64 -714 b 49 -699 64 -701 61 -699 l 29 -699 b 0 -669 10 -699 0 -689 l 0 669 b 29 699 0 689 10 699 l 149 699 b 178 669 168 699 178 689 l 178 -669 b 149 -699 178 -689 168 -699 l 129 -699 b 114 -714 117 -699 114 -701 l 114 -793 b 126 -806 114 -803 117 -806 m 319 61 b 332 53 319 50 326 51 b 456 256 368 63 426 99 b 482 290 460 278 468 290 b 511 253 497 290 504 276 b 660 124 529 192 561 124 b 775 394 750 124 775 213 b 628 658 775 576 743 658 b 547 647 597 658 569 654 b 510 621 524 640 510 631 b 547 600 510 614 532 606 b 603 510 575 590 603 563 b 508 414 603 449 563 414 b 401 528 449 414 401 454 b 643 703 401 615 478 703 b 971 399 871 703 971 543 b 681 74 971 207 865 74 b 596 86 640 74 614 81 b 556 85 582 90 568 93 b 506 0 536 72 506 28 b 556 -85 506 -28 536 -72 b 596 -86 568 -93 582 -90 b 681 -74 614 -81 640 -74 b 971 -399 865 -74 971 -207 b 643 -703 971 -543 871 -703 b 401 -528 478 -703 401 -615 b 508 -414 401 -454 449 -414 b 603 -510 563 -414 603 -449 b 547 -600 603 -562 575 -590 b 510 -621 532 -606 510 -614 b 547 -647 510 -631 524 -640 b 628 -658 569 -654 597 -658 b 775 -394 743 -658 775 -576 b 660 -124 775 -212 750 -124 b 511 -253 561 -124 529 -192 b 482 -290 504 -276 497 -290 b 456 -256 468 -290 460 -278 b 332 -53 426 -99 368 -62 b 319 -61 326 -51 319 -50 l 319 -669 b 290 -699 319 -689 310 -699 l 289 -699 b 260 -669 269 -699 260 -689 l 260 669 b 289 699 260 689 269 699 l 290 699 b 319 669 310 699 319 689 "},"":{"ha":811,"x_min":0,"x_max":0,"o":"m 29 693 b 58 664 49 693 58 683 l 58 -604 b 29 -633 58 -624 49 -633 b 0 -604 10 -633 0 -624 l 0 664 b 29 693 0 683 10 693 m 632 633 b 661 604 651 633 661 624 l 661 -664 b 632 -693 661 -683 651 -693 b 603 -664 613 -693 603 -683 l 603 -287 b 586 -268 603 -274 600 -269 l 225 -239 b 208 -254 208 -237 208 -243 l 208 -604 b 179 -633 208 -624 199 -633 b 150 -604 160 -633 150 -624 l 150 664 b 179 693 150 683 160 693 b 208 664 199 693 208 683 l 208 288 b 225 268 208 274 211 269 l 586 239 b 603 254 603 238 603 243 l 603 604 b 632 633 603 624 613 633 m 782 633 b 811 604 801 633 811 624 l 811 -664 b 782 -693 811 -683 801 -693 b 753 -664 763 -693 753 -683 l 753 604 b 782 633 753 624 763 633 m 225 94 b 208 79 208 96 208 90 l 208 -46 b 225 -65 208 -60 211 -64 l 586 -94 b 603 -79 603 -96 603 -90 l 603 46 b 586 65 603 60 600 64 "},"":{"ha":324,"x_min":0,"x_max":0,"o":"m 18 43 b 0 61 6 43 0 49 l 0 153 b 18 171 0 165 6 171 l 249 171 b 263 185 258 171 263 175 l 263 717 b 289 746 263 735 271 746 b 315 717 307 746 315 735 l 315 61 b 297 43 315 49 310 43 m 297 -43 b 315 -61 310 -43 315 -49 l 315 -717 b 289 -746 315 -735 307 -746 b 263 -717 271 -746 263 -735 l 263 -185 b 249 -171 263 -175 258 -171 l 18 -171 b 0 -153 6 -171 0 -165 l 0 -61 b 18 -43 0 -49 6 -43 "},"":{"ha":950,"x_min":0,"x_max":0,"o":"m 350 364 b 738 -39 590 364 738 203 b 544 -521 738 -221 665 -390 b 35 -875 397 -679 219 -785 b 11 -882 26 -879 18 -882 b -7 -865 -1 -882 -7 -874 b 14 -840 -7 -854 1 -847 b 413 -494 186 -742 329 -624 b 529 -51 499 -361 529 -194 b 318 311 529 167 465 311 b 93 154 176 311 93 210 b 115 129 93 140 97 129 b 185 139 133 129 147 139 b 318 -6 253 139 318 83 b 171 -153 318 -92 258 -153 b 0 54 58 -153 0 -57 b 350 364 0 188 108 364 m 875 -99 b 950 -174 918 -99 950 -131 b 875 -249 950 -217 918 -249 b 800 -174 832 -249 800 -217 b 875 -99 800 -131 832 -99 m 874 250 b 950 174 917 250 950 217 b 874 97 950 131 917 97 b 797 174 831 97 797 131 b 874 250 797 217 831 250 "},"":{"ha":950,"x_min":0,"x_max":0,"o":"m 875 -99 b 950 -174 918 -99 950 -131 b 875 -249 950 -217 918 -249 b 800 -174 832 -249 800 -217 b 875 -99 800 -131 832 -99 m 874 250 b 950 174 917 250 950 217 b 874 97 950 131 917 97 b 797 174 831 97 797 131 b 874 250 797 217 831 250 m 447 -721 b 465 -706 450 -711 456 -706 b 489 -711 472 -706 476 -707 b 540 -717 499 -714 517 -717 b 604 -710 565 -717 586 -714 b 625 -703 615 -706 622 -703 b 633 -711 629 -703 633 -707 b 621 -731 633 -717 629 -722 b 506 -778 594 -754 556 -778 b 472 -775 494 -778 482 -776 b 457 -782 464 -774 460 -774 l 444 -821 b 456 -831 442 -829 443 -835 b 496 -825 467 -828 479 -825 b 586 -896 551 -825 586 -846 b 449 -1031 586 -976 528 -1031 b 361 -964 389 -1031 361 -999 b 403 -914 361 -936 379 -914 b 436 -946 421 -914 436 -925 b 414 -982 436 -968 424 -978 b 403 -993 407 -986 403 -987 b 433 -1008 403 -1001 417 -1008 b 517 -897 490 -1008 517 -939 b 478 -853 517 -872 507 -853 b 426 -879 451 -853 433 -871 b 410 -887 419 -885 415 -887 b 396 -875 401 -887 396 -883 b 400 -858 396 -869 397 -867 m 278 -739 b 35 -875 200 -790 118 -833 b 11 -882 26 -879 18 -882 b -7 -865 -1 -882 -7 -874 b 14 -840 -7 -854 1 -847 b 413 -494 186 -742 329 -624 b 529 -51 499 -361 529 -194 b 318 311 529 167 465 311 b 93 154 176 311 93 210 b 115 129 93 140 97 129 b 185 139 133 129 147 139 b 318 -6 253 139 318 83 b 171 -153 318 -92 258 -153 b 0 54 58 -153 0 -57 b 350 364 0 188 108 364 b 738 -39 590 364 738 203 b 544 -521 738 -221 665 -390 b 328 -707 478 -592 404 -653 b 343 -712 332 -708 338 -712 b 372 -704 353 -712 364 -704 b 381 -712 378 -704 381 -708 b 379 -722 381 -715 381 -718 l 296 -985 b 299 -997 294 -992 293 -996 l 328 -1000 b 340 -1011 336 -1000 340 -1004 b 326 -1024 340 -1018 336 -1024 l 183 -1024 b 169 -1011 174 -1024 169 -1018 b 182 -1000 169 -1004 174 -1000 l 211 -997 b 222 -987 219 -996 219 -994 l 281 -806 b 282 -796 282 -801 282 -799 b 278 -790 282 -792 281 -790 b 267 -797 274 -790 271 -792 l 235 -832 b 219 -842 231 -837 226 -842 b 206 -829 213 -842 206 -835 b 213 -814 206 -824 208 -819 "},"":{"ha":950,"x_min":0,"x_max":0,"o":"m 875 -99 b 950 -174 918 -99 950 -131 b 875 -249 950 -217 918 -249 b 800 -174 832 -249 800 -217 b 875 -99 800 -131 832 -99 m 874 250 b 950 174 917 250 950 217 b 874 97 950 131 917 97 b 797 174 831 97 797 131 b 874 250 797 217 831 250 m 376 -704 b 472 -776 444 -704 472 -737 b 421 -850 472 -803 458 -831 b 417 -874 404 -858 407 -862 b 439 -935 433 -890 439 -908 b 313 -1033 439 -997 381 -1033 b 204 -951 238 -1033 204 -997 b 267 -869 204 -918 222 -887 b 274 -849 283 -862 281 -858 b 257 -799 263 -836 257 -818 b 278 -740 257 -775 264 -756 b 35 -875 199 -790 118 -835 b 11 -882 26 -879 18 -882 b -7 -865 -1 -882 -7 -874 b 14 -840 -7 -854 1 -847 b 413 -494 186 -742 329 -624 b 529 -51 499 -361 529 -194 b 318 311 529 167 465 311 b 93 154 176 311 93 210 b 115 129 93 140 97 129 b 185 139 133 129 147 139 b 318 -6 253 139 318 83 b 171 -153 318 -92 258 -153 b 0 54 58 -153 0 -57 b 350 364 0 188 108 364 b 738 -39 590 364 738 203 b 544 -521 738 -221 665 -390 b 318 -714 475 -596 399 -658 b 376 -704 335 -707 354 -704 m 297 -887 b 258 -958 268 -906 258 -937 b 314 -1012 258 -983 272 -1012 b 374 -957 347 -1012 374 -992 b 318 -892 374 -936 363 -926 b 297 -887 308 -883 304 -883 m 375 -725 b 322 -774 344 -725 322 -743 b 365 -831 322 -794 333 -807 b 386 -833 376 -839 381 -837 b 419 -771 410 -818 419 -793 b 375 -725 419 -747 408 -725 "},"":{"ha":950,"x_min":0,"x_max":0,"o":"m 875 -99 b 950 -174 918 -99 950 -131 b 875 -249 950 -217 918 -249 b 800 -174 832 -249 800 -217 b 875 -99 800 -131 832 -99 m 874 250 b 950 174 917 250 950 217 b 874 97 950 131 917 97 b 797 174 831 97 797 131 b 874 250 797 217 831 250 m 440 688 b 536 615 508 688 536 654 b 485 542 536 589 522 561 b 481 518 468 533 471 529 b 503 457 497 501 503 483 b 407 360 503 404 461 369 b 738 -39 613 336 738 183 b 544 -521 738 -221 665 -390 b 35 -875 397 -679 219 -785 b 11 -882 26 -879 18 -882 b -7 -865 -1 -882 -7 -874 b 14 -840 -7 -854 1 -847 b 413 -494 186 -742 329 -624 b 529 -51 499 -361 529 -194 b 318 311 529 167 465 311 b 93 154 176 311 93 210 b 115 129 93 140 97 129 b 185 139 133 129 147 139 b 318 -6 253 139 318 83 b 171 -153 318 -92 258 -153 b 0 54 58 -153 0 -57 b 331 364 0 183 101 354 b 268 440 288 375 268 404 b 331 522 268 474 286 504 b 338 543 347 529 344 533 b 321 593 326 556 321 574 b 440 688 321 653 369 688 m 361 504 b 322 433 332 486 322 454 b 378 379 322 408 336 379 b 438 435 411 379 438 400 b 382 500 438 456 426 465 b 361 504 372 508 368 508 m 439 667 b 386 618 408 667 386 649 b 429 561 386 597 397 585 b 450 558 440 553 444 554 b 483 621 474 574 483 599 b 439 667 483 644 472 667 "},"":{"ha":950,"x_min":0,"x_max":0,"o":"m 308 681 b 321 688 313 685 315 688 b 347 679 332 688 338 679 b 376 688 357 679 368 688 b 385 679 382 688 385 683 b 383 669 385 676 385 674 l 300 407 b 303 394 299 400 297 396 l 332 392 b 344 381 340 392 344 388 b 331 368 344 374 340 368 l 188 368 b 174 381 178 368 174 374 b 186 392 174 388 178 392 l 215 394 b 226 404 224 396 224 397 l 285 586 b 286 596 286 590 286 593 b 282 601 286 600 285 601 b 271 594 278 601 275 600 l 239 560 b 224 550 235 554 231 550 b 210 563 217 550 210 557 b 217 578 210 568 213 572 m 451 671 b 469 686 454 681 460 686 b 493 681 476 686 481 685 b 544 675 503 678 521 675 b 608 682 569 675 590 678 b 629 689 619 686 626 689 b 638 681 633 689 638 685 b 625 661 638 675 633 669 b 510 614 599 638 560 614 b 476 617 499 614 486 615 b 461 610 468 618 464 618 l 449 571 b 460 561 446 563 447 557 b 500 567 471 564 483 567 b 590 496 556 567 590 546 b 453 361 590 415 532 361 b 365 428 393 361 365 393 b 407 478 365 456 383 478 b 440 446 425 478 440 467 b 418 410 440 424 428 414 b 407 399 411 406 407 404 b 438 383 407 390 421 383 b 521 494 494 383 521 453 b 482 539 521 519 511 539 b 431 513 456 539 438 521 b 414 504 424 507 419 504 b 400 517 406 504 400 508 b 404 533 400 522 401 525 m 874 250 b 950 174 917 250 950 217 b 874 97 950 131 917 97 b 797 174 831 97 797 131 b 874 250 797 217 831 250 m 875 -99 b 950 -174 918 -99 950 -131 b 875 -249 950 -217 918 -249 b 800 -174 832 -249 800 -217 b 875 -99 800 -131 832 -99 m 350 364 b 738 -39 590 364 738 203 b 544 -521 738 -221 665 -390 b 35 -875 397 -679 219 -785 b 11 -882 26 -879 18 -882 b -7 -865 -1 -882 -7 -874 b 14 -840 -7 -854 1 -847 b 413 -494 186 -742 329 -624 b 529 -51 499 -361 529 -194 b 318 311 529 167 465 311 b 93 154 176 311 93 210 b 115 129 93 140 97 129 b 185 139 133 129 147 139 b 318 -6 253 139 318 83 b 171 -153 318 -92 258 -153 b 0 54 58 -153 0 -57 b 350 364 0 188 108 364 "},"":{"ha":950,"x_min":0,"x_max":0,"o":"m 875 -99 b 950 -174 918 -99 950 -131 b 875 -249 950 -217 918 -249 b 800 -174 832 -249 800 -217 b 875 -99 800 -131 832 -99 m 388 363 b 738 -39 606 347 738 190 b 544 -521 738 -221 665 -390 b 35 -875 397 -679 219 -785 b 11 -882 26 -879 18 -882 b -7 -865 -1 -882 -7 -874 b 14 -840 -7 -854 1 -847 b 413 -494 186 -742 329 -624 b 529 -51 499 -361 529 -194 b 318 311 529 167 465 311 b 93 154 176 311 93 210 b 115 129 93 140 97 129 b 185 139 133 129 147 139 b 318 -6 253 139 318 83 b 171 -153 318 -92 258 -153 b 0 54 58 -153 0 -57 b 314 363 0 182 97 347 b 328 378 326 364 328 367 l 328 446 b 315 458 328 456 325 458 l 231 458 b 218 468 222 458 218 460 b 219 478 218 469 218 472 l 344 908 b 353 918 346 914 347 918 b 361 908 358 918 360 914 l 486 478 b 488 468 488 472 488 469 b 475 458 488 460 483 458 l 390 458 b 378 446 381 458 378 456 l 378 378 b 388 363 378 365 378 364 m 874 97 b 797 174 831 97 797 131 b 874 250 797 217 831 250 b 950 174 917 250 950 217 b 874 97 950 131 917 97 "},"":{"ha":944,"x_min":0,"x_max":0,"o":"m 350 364 b 738 -39 590 364 738 203 b 544 -521 738 -221 665 -390 b 417 -640 504 -565 461 -604 b 406 -662 408 -649 406 -653 l 406 -915 b 418 -928 406 -925 408 -928 l 503 -928 b 515 -937 511 -928 515 -929 b 514 -947 515 -939 515 -942 l 389 -1378 b 381 -1387 388 -1383 386 -1387 b 372 -1378 375 -1387 374 -1383 l 247 -947 b 246 -937 246 -942 246 -939 b 258 -928 246 -929 250 -928 l 343 -928 b 356 -915 353 -928 356 -925 l 356 -706 b 342 -697 356 -692 347 -693 l 343 -697 b 35 -875 244 -767 142 -824 b 11 -882 26 -879 18 -882 b -7 -865 -1 -882 -7 -874 b 14 -840 -7 -854 1 -847 b 413 -494 186 -742 329 -624 b 529 -51 499 -361 529 -194 b 318 311 529 167 465 311 b 93 154 176 311 93 210 b 115 129 93 140 97 129 b 185 139 133 129 147 139 b 318 -6 253 139 318 83 b 171 -153 318 -92 258 -153 b 0 54 58 -153 0 -57 b 350 364 0 188 108 364 m 874 97 b 797 174 831 97 797 131 b 874 250 797 217 831 250 b 950 174 917 250 950 217 b 874 97 950 131 917 97 m 875 -99 b 950 -174 918 -99 950 -131 b 875 -249 950 -217 918 -249 b 800 -174 832 -249 800 -217 b 875 -99 800 -131 832 -99 "},"":{"ha":531,"x_min":0,"x_max":0,"o":"m 222 -326 b 203 -347 222 -337 214 -347 l 19 -347 b 0 -326 8 -347 0 -337 l 0 326 b 19 347 0 338 8 347 l 203 347 b 222 326 214 347 222 338 l 222 -326 m 531 -326 b 511 -347 531 -337 522 -347 l 328 -347 b 308 -326 317 -347 308 -337 l 308 326 b 328 347 308 338 317 347 l 511 347 b 531 326 522 347 531 338 "},"":{"ha":433,"x_min":0,"x_max":0,"o":"m 433 -625 b 411 -646 433 -636 424 -646 l 22 -646 b 0 -625 10 -646 0 -636 l 0 619 b 22 640 0 631 10 640 l 411 640 b 433 619 424 640 433 631 l 433 -625 m 378 478 b 357 499 378 489 368 499 l 76 499 b 56 478 65 499 56 489 l 56 -483 b 76 -504 56 -494 65 -504 l 357 -504 b 378 -483 368 -504 378 -494 l 378 478 "},"":{"ha":349,"x_min":0,"x_max":0,"o":"m 307 -874 b 292 -869 301 -874 296 -872 l 19 -724 b 1 -694 8 -718 1 -707 l 1 694 b 19 724 1 707 8 718 l 292 869 b 307 874 296 872 301 874 b 336 856 318 874 331 867 b 340 840 339 851 340 846 b 322 811 340 829 333 817 l 68 675 l 68 201 l 307 201 b 340 168 325 201 340 186 b 307 135 340 150 325 135 l 68 135 l 68 -146 l 307 -146 b 340 -179 325 -146 340 -161 b 307 -212 340 -197 325 -212 l 68 -212 l 68 -675 l 322 -811 b 340 -840 333 -817 340 -829 b 336 -856 340 -846 339 -851 b 307 -874 331 -867 318 -874 "},"":{"ha":643,"x_min":0,"x_max":0,"o":"m 638 15 l 354 -94 l 354 -247 b 321 -281 354 -265 339 -281 b 288 -247 301 -281 288 -265 l 288 -119 l 3 -229 l 3 -6 l 288 103 l 288 253 b 321 286 288 271 301 286 b 354 253 339 286 354 271 l 354 129 l 638 238 "},"":{"ha":568,"x_min":0,"x_max":0,"o":"m 324 988 l 324 407 l 240 407 l 240 988 l 25 988 l 25 1061 l 538 1061 l 538 988 m 474 -317 l 406 -121 l 154 -121 l 85 -317 l -4 -317 l 229 336 l 338 336 l 567 -317 m 282 247 l 175 -50 l 383 -50 m 525 -851 b 332 -1039 525 -960 450 -1039 l 38 -1039 l 38 -385 l 303 -385 b 496 -551 426 -385 496 -456 b 406 -693 496 -617 465 -665 b 525 -851 489 -725 525 -774 m 413 -562 b 282 -458 413 -496 375 -458 l 121 -458 l 121 -667 l 282 -667 b 413 -562 375 -667 413 -629 m 442 -853 b 325 -740 442 -789 403 -740 l 121 -740 l 121 -965 l 325 -965 b 442 -853 403 -965 442 -915 "},"":{"ha":376,"x_min":0,"x_max":0,"o":"m 215 651 l 215 263 l 160 263 l 160 651 l 15 651 l 15 700 l 358 700 l 358 651 m 315 -222 l 271 -90 l 101 -90 l 56 -222 l -4 -222 l 153 215 l 225 215 l 378 -222 m 188 156 l 115 -44 l 256 -44 m 350 -581 b 221 -706 350 -653 300 -706 l 24 -706 l 24 -268 l 201 -268 b 331 -379 285 -268 331 -315 b 271 -475 331 -424 310 -456 b 350 -581 326 -496 350 -528 m 275 -387 b 188 -317 275 -343 250 -317 l 79 -317 l 79 -457 l 188 -457 b 275 -387 250 -457 275 -432 m 294 -581 b 217 -506 294 -539 269 -506 l 79 -506 l 79 -656 l 217 -656 b 294 -581 269 -656 294 -624 "},"":{"ha":428,"x_min":0,"x_max":0,"o":"m 429 0 l 0 -346 l 0 347 "},"":{"ha":429,"x_min":0,"x_max":0,"o":"m 390 265 l 63 0 l 390 -265 m 429 347 l 429 -346 l 0 0 "},"":{"ha":858,"x_min":0,"x_max":0,"o":"m 858 0 l 429 -346 l 429 347 m 390 -429 l 63 -694 l 390 -960 m 429 -347 l 429 -1040 l 0 -694 "},"":{"ha":856,"x_min":0,"x_max":0,"o":"m 390 960 l 63 694 l 390 429 m 429 1042 l 429 349 l 0 694 m 856 0 l 426 -346 l 426 347 "},"":{"ha":936,"x_min":0,"x_max":0,"o":"m 288 1310 b 204 1196 242 1310 204 1272 b 358 903 204 1100 250 1011 b 446 821 381 881 414 849 b 464 832 456 813 461 814 b 472 960 469 868 472 915 b 288 1310 472 1176 372 1310 m 343 143 b 328 163 346 160 344 164 b 122 -64 215 153 122 58 b 253 -261 122 -151 175 -222 b 275 -253 269 -269 272 -269 m 439 364 b 460 331 435 338 435 339 b 661 61 582 289 661 179 b 501 -185 661 -64 596 -153 b 464 -193 490 -189 474 -193 b 447 -178 453 -193 447 -186 b 468 -160 447 -168 458 -164 b 568 -11 526 -135 568 -75 b 429 151 568 68 514 128 b 401 140 407 157 404 156 l 332 -274 b 351 -293 329 -289 331 -289 b 429 -300 374 -297 401 -300 b 829 28 672 -300 829 -165 b 700 350 829 110 815 219 b 488 547 617 443 553 494 b 468 542 474 558 471 557 m 418 576 b 410 603 421 593 418 594 b 332 682 388 624 358 653 b 146 1132 215 810 146 975 b 236 1456 146 1253 179 1372 b 308 1525 257 1486 293 1525 b 399 1458 328 1525 371 1489 b 535 1026 501 1344 535 1171 b 515 799 535 946 525 856 b 528 765 513 782 511 779 b 785 518 617 692 713 607 b 940 121 881 399 940 269 b 435 -350 940 -121 775 -350 b 339 -342 403 -350 367 -347 b 318 -354 324 -339 321 -337 b 281 -633 301 -447 281 -568 b 501 -864 281 -839 419 -864 b 613 -824 576 -864 613 -842 b 568 -800 613 -814 600 -810 b 475 -669 525 -787 475 -750 b 608 -528 475 -593 524 -528 b 757 -687 701 -528 757 -601 b 493 -914 757 -778 703 -914 b 219 -636 400 -914 219 -872 b 260 -339 219 -557 244 -425 b 242 -315 263 -322 261 -324 b 8 15 101 -260 8 -142 b 343 350 8 193 139 350 b 383 375 379 350 379 350 "},"":{"ha":936,"x_min":0,"x_max":0,"o":"m 288 -621 b 472 -271 372 -621 472 -487 b 464 -143 472 -226 469 -179 b 446 -132 461 -125 456 -124 b 358 -214 414 -160 381 -192 b 204 -507 250 -322 204 -411 b 288 -621 204 -583 242 -621 m 275 942 b 253 950 272 958 269 958 b 122 753 175 911 122 840 b 328 526 122 631 215 536 b 343 546 344 525 346 529 m 468 147 b 488 142 471 132 474 131 b 700 339 553 194 617 246 b 829 661 815 469 829 579 b 429 989 829 854 672 989 b 351 982 401 989 374 986 b 332 963 331 978 329 978 l 401 549 b 429 538 404 533 407 532 b 568 700 514 561 568 621 b 468 849 568 764 526 824 b 447 867 458 853 447 857 b 464 882 447 875 453 882 b 501 874 474 882 490 878 b 661 628 596 842 661 753 b 460 358 661 510 582 400 b 439 325 435 350 435 351 m 383 314 b 343 339 379 339 379 339 b 8 674 139 339 8 496 b 242 1004 8 831 101 949 b 260 1028 261 1013 263 1011 b 219 1325 244 1114 219 1246 b 493 1603 219 1561 400 1603 b 757 1376 703 1603 757 1467 b 608 1217 757 1290 701 1217 b 475 1358 524 1217 475 1282 b 568 1489 475 1439 525 1476 b 613 1513 600 1499 613 1503 b 501 1553 613 1531 576 1553 b 281 1322 419 1553 281 1528 b 318 1043 281 1257 301 1136 b 339 1031 321 1026 324 1028 b 435 1039 367 1036 403 1039 b 940 568 775 1039 940 810 b 785 171 940 419 881 290 b 528 -76 713 82 617 -3 b 515 -110 511 -90 513 -93 b 535 -337 525 -167 535 -257 b 399 -769 535 -482 501 -656 b 308 -836 371 -800 328 -836 b 236 -767 293 -836 257 -797 b 146 -443 179 -683 146 -564 b 332 7 146 -286 215 -121 b 410 86 358 36 388 65 b 418 113 418 94 421 96 "},"":{"ha":971,"x_min":0,"x_max":0,"o":"m 942 699 b 971 669 961 699 971 689 l 971 -669 b 942 -699 971 -689 961 -699 l 822 -699 b 793 -669 803 -699 793 -689 l 793 669 b 822 699 793 689 803 699 m 651 669 b 681 699 651 689 661 699 l 682 699 b 711 669 701 699 711 689 l 711 -669 b 682 -699 711 -689 701 -699 l 681 -699 b 651 -669 661 -699 651 -689 l 651 -61 b 639 -53 651 -50 644 -51 b 515 -256 603 -62 544 -99 b 489 -290 511 -278 503 -290 b 460 -253 474 -290 467 -276 b 311 -124 442 -192 410 -124 b 196 -394 221 -124 196 -212 b 343 -658 196 -576 228 -658 b 424 -647 374 -658 401 -654 b 461 -621 447 -640 461 -631 b 424 -600 461 -614 439 -606 b 368 -510 396 -590 368 -562 b 463 -414 368 -449 408 -414 b 569 -528 522 -414 569 -454 b 328 -703 569 -615 493 -703 b 0 -399 100 -703 0 -543 b 290 -74 0 -207 106 -74 b 375 -86 331 -74 357 -81 b 415 -85 389 -90 403 -93 b 465 0 435 -72 465 -28 b 415 85 465 28 435 72 b 375 86 403 93 389 90 b 290 74 357 81 331 74 b 0 399 106 74 0 207 b 328 703 0 543 100 703 b 569 528 493 703 569 615 b 463 414 569 454 522 414 b 368 510 408 414 368 449 b 424 600 368 563 396 590 b 461 621 439 606 461 614 b 424 647 461 631 447 640 b 343 658 401 654 374 658 b 196 394 228 658 196 576 b 311 124 196 213 221 124 b 460 253 410 124 442 192 b 489 290 467 276 474 290 b 515 256 503 290 511 278 b 639 53 544 99 603 63 b 651 61 644 51 651 50 "},"":{"ha":957,"x_min":0,"x_max":0,"o":"m 600 364 b 950 54 842 364 950 188 b 779 -153 950 -57 892 -153 b 632 -6 692 -153 632 -92 b 765 139 632 83 697 139 b 835 129 803 139 817 129 b 857 154 853 129 857 140 b 632 311 857 210 774 311 b 421 -51 485 311 421 167 b 538 -494 421 -194 451 -361 b 936 -840 621 -624 764 -742 b 957 -865 949 -847 957 -854 b 939 -882 957 -874 951 -882 b 915 -875 932 -882 924 -879 b 406 -521 731 -785 553 -679 b 213 -39 285 -390 213 -221 b 600 364 213 203 360 364 m 75 -99 b 150 -174 118 -99 150 -131 b 75 -249 150 -217 118 -249 b 0 -174 32 -249 0 -217 b 75 -99 0 -131 32 -99 m 76 250 b 153 174 119 250 153 217 b 76 97 153 131 119 97 b 0 174 33 97 0 131 b 76 250 0 217 33 250 "},"":{"ha":950,"x_min":0,"x_max":0,"o":"m 600 -367 b 213 36 360 -367 213 -206 b 406 518 213 218 285 388 b 915 872 553 676 731 782 b 939 879 924 876 932 879 b 957 863 951 879 957 871 b 936 838 957 851 949 844 b 538 492 764 739 621 621 b 421 49 451 358 421 192 b 632 -314 421 -169 485 -314 b 857 -157 774 -314 857 -212 b 835 -132 857 -143 853 -132 b 765 -142 817 -132 803 -142 b 632 3 697 -142 632 -86 b 779 150 632 89 692 150 b 950 -57 892 150 950 54 b 600 -367 950 -190 842 -367 m 75 96 b 0 171 32 96 0 128 b 75 246 0 214 32 246 b 150 171 118 246 150 214 b 75 96 150 128 118 96 m 76 -253 b 0 -176 33 -253 0 -219 b 76 -100 0 -133 33 -100 b 153 -176 119 -100 153 -133 b 76 -253 153 -219 119 -253 "},"":{"ha":1197,"x_min":0,"x_max":0,"o":"m 1197 721 l 951 -1133 l 907 -1131 l 907 614 l 736 614 l 736 -1131 l 692 -1131 l 692 614 l 521 614 l 521 -1131 l 476 -1131 l 476 614 l 306 614 l 306 -1131 l 261 -1133 l 8 721 l 261 721 l 261 938 l 133 938 l 31 836 l 0 867 l 114 982 l 261 982 l 261 1132 l 306 1132 l 306 982 l 476 982 l 476 1132 l 521 1132 l 521 982 l 692 982 l 692 1132 l 736 1132 l 736 982 l 907 982 l 907 1132 l 951 1132 l 951 982 l 1092 982 l 1197 876 l 1165 844 l 1072 938 l 951 938 l 951 721 m 261 614 l 65 614 l 261 -804 m 476 721 l 476 938 l 306 938 l 306 721 m 692 721 l 692 938 l 521 938 l 521 721 m 907 721 l 907 938 l 736 938 l 736 721 m 951 -794 l 1139 614 l 951 614 "},"":{"ha":394,"x_min":0,"x_max":0,"o":"m 0 629 b 11 646 1 636 4 646 b 18 643 13 646 15 644 b 171 604 31 635 106 604 b 306 642 235 604 292 631 b 319 647 311 646 315 647 b 329 629 326 647 329 642 b 158 483 313 486 197 483 l 150 483 b 81 489 125 483 97 483 b 69 492 76 490 72 492 b 54 471 60 492 54 485 l 54 28 b 56 15 54 21 54 15 b 63 25 57 15 60 18 l 67 35 b 185 199 92 96 122 168 b 242 213 204 208 224 213 b 349 147 285 213 325 189 b 394 -67 383 89 394 8 b 374 -258 394 -146 382 -219 b 293 -486 357 -332 322 -417 b 242 -579 279 -517 260 -553 b 183 -643 240 -581 189 -643 b 192 -611 183 -635 192 -611 b 325 -103 310 -403 325 -146 b 247 58 325 -46 300 58 b 10 -304 122 58 21 -304 b 0 -274 0 -304 0 -286 "},"":{"ha":611,"x_min":0,"x_max":0,"o":"m 536 -54 b 404 67 532 22 481 67 b 443 -189 424 -36 429 -107 b 536 -64 508 -161 536 -128 m 85 -15 b 339 -207 90 -174 240 -207 b 399 -199 365 -207 385 -204 l 351 63 b 253 -33 303 53 253 31 l 253 -42 b 304 -122 254 -79 286 -115 b 318 -139 311 -126 318 -133 b 307 -147 318 -143 314 -147 b 288 -143 303 -147 296 -146 b 190 -22 244 -129 204 -83 b 185 18 186 -10 185 4 b 331 201 185 100 249 178 l 314 311 b 85 -7 194 222 85 140 m 421 803 b 314 603 349 800 314 697 b 315 571 314 592 314 581 b 322 525 315 565 319 547 b 469 710 419 600 458 635 b 471 729 471 717 471 724 b 421 803 471 779 451 803 m 611 -12 b 450 -235 611 -114 551 -197 b 479 -433 460 -299 479 -364 b 313 -631 479 -576 376 -626 b 292 -632 306 -631 297 -632 b 118 -476 142 -632 118 -528 b 122 -444 118 -458 121 -444 b 233 -344 129 -387 179 -344 b 274 -354 247 -344 260 -347 b 328 -444 311 -369 328 -406 l 328 -451 b 240 -546 328 -506 278 -535 b 217 -551 232 -550 225 -550 b 208 -560 213 -554 208 -556 b 217 -569 208 -562 211 -565 b 293 -587 236 -583 263 -587 l 311 -587 b 433 -437 322 -587 433 -586 b 424 -346 433 -419 428 -368 l 406 -247 b 339 -251 386 -247 367 -251 b 1 39 190 -251 18 -182 b 0 67 0 49 0 58 b 285 490 0 242 150 376 l 274 549 b 267 640 268 581 267 611 b 414 982 267 806 328 943 b 482 894 414 982 447 976 b 522 721 508 836 522 778 b 356 332 522 560 478 444 b 379 208 365 282 369 268 b 390 210 382 210 388 210 l 400 210 b 611 1 517 210 603 118 "},"":{"ha":703,"x_min":0,"x_max":0,"o":"m 142 -440 b 121 -461 142 -451 133 -461 l 21 -461 b 0 -440 10 -461 0 -451 l 0 440 b 21 461 0 451 10 461 l 121 461 b 142 440 133 461 142 451 m 549 300 b 451 425 549 357 531 425 b 392 401 431 425 410 419 b 389 397 389 400 389 399 b 406 386 389 392 403 389 b 456 325 414 379 456 357 b 379 256 456 289 418 256 b 308 336 339 256 308 297 b 482 461 308 374 349 461 b 703 247 614 461 703 353 b 500 36 703 142 633 36 b 428 63 456 36 440 63 b 394 31 417 63 403 43 b 390 25 394 28 392 28 b 381 0 385 13 381 3 b 392 -29 381 -10 388 -18 b 428 -64 400 -43 414 -64 b 500 -35 440 -64 456 -35 b 703 -249 633 -35 703 -142 b 482 -461 703 -353 614 -461 b 308 -335 349 -461 308 -372 b 379 -254 308 -297 339 -254 b 456 -324 418 -254 456 -287 b 403 -386 456 -361 413 -376 b 389 -397 400 -389 389 -392 b 393 -403 389 -399 390 -400 b 451 -424 401 -411 414 -424 b 549 -300 531 -424 549 -358 l 549 -192 b 485 -93 549 -119 546 -93 b 388 -165 425 -93 401 -119 b 367 -192 381 -185 374 -192 b 346 -165 357 -192 349 -178 b 260 -47 322 -56 286 -50 l 260 -442 b 228 -461 260 -453 239 -461 b 208 -442 217 -461 208 -453 l 208 440 b 228 461 208 453 217 461 b 260 440 239 461 260 453 l 260 47 b 346 165 286 50 322 56 b 367 192 349 178 357 192 b 388 165 374 192 381 185 b 485 94 401 119 425 94 b 549 190 546 94 549 119 "},"":{"ha":642,"x_min":0,"x_max":0,"o":"m 231 236 b 400 169 231 236 325 231 b 486 -25 446 132 483 71 l 486 -31 b 447 -193 486 -79 472 -136 b 299 -410 415 -268 364 -344 b -3 -575 229 -479 104 -575 b -21 -560 -8 -575 -21 -567 b -3 -535 -21 -556 -17 -543 b 136 -454 44 -508 93 -487 b 293 -242 214 -394 261 -335 b 325 -39 314 -178 325 -107 b 322 13 325 -22 325 -4 b 321 24 322 19 321 22 b 278 153 315 71 311 114 b 204 188 257 175 233 188 b 190 189 204 188 199 189 b 76 107 165 189 108 181 b 75 101 76 107 75 104 b 97 82 75 93 78 82 l 124 82 b 235 -14 163 82 235 68 b 122 -131 235 -69 178 -131 l 117 -131 b 1 -4 64 -131 11 -87 b 0 8 0 0 0 4 b 225 236 0 93 69 236 m 581 -57 b 643 -118 615 -57 643 -85 b 581 -179 643 -151 615 -179 b 521 -118 549 -179 521 -151 b 581 -57 521 -85 549 -57 m 581 176 b 642 117 614 176 642 150 b 581 54 642 82 614 54 b 519 117 546 54 519 82 b 581 176 519 150 546 176 "},"":{"ha":285,"x_min":0,"x_max":0,"o":"m 76 151 b 67 140 72 149 68 144 b 53 99 58 129 53 114 b 54 89 53 96 53 93 b 128 17 64 44 101 17 b 179 67 156 17 179 44 b 174 86 179 74 176 79 b 139 133 167 104 154 119 b 115 153 131 140 124 147 b 96 161 110 156 99 161 b 76 151 88 161 81 157 m 124 285 b 149 238 124 265 138 250 b 185 203 160 226 171 213 b 203 197 192 200 199 197 b 235 264 226 197 233 239 b 222 300 235 276 231 292 b 167 319 211 313 190 319 b 124 285 146 318 126 308 m 163 343 b 285 260 185 343 285 329 b 242 190 285 211 254 200 b 231 168 233 183 231 176 b 236 146 231 160 231 153 b 249 99 244 131 249 115 b 185 8 249 61 224 25 b 128 0 169 3 147 0 b 3 81 81 0 14 29 b 0 97 1 88 0 94 b 71 189 0 136 35 176 b 79 196 76 190 79 192 b 76 200 79 199 78 200 b 54 257 61 218 54 238 b 110 335 54 290 74 321 b 157 343 124 342 140 343 "},"":{"ha":499,"x_min":0,"x_max":0,"o":"m 167 0 b 0 13 124 6 0 -12 b 65 54 11 38 40 3 b 119 189 76 76 121 189 b 122 201 119 189 122 196 b 113 211 122 207 121 211 b 65 185 99 211 93 185 b 50 196 57 185 50 189 b 53 204 50 199 50 200 b 174 342 61 214 164 333 b 196 354 183 350 189 354 b 242 339 210 354 219 339 b 261 344 250 339 257 344 b 268 338 267 344 268 343 l 268 332 b 146 43 267 322 147 54 b 183 13 146 14 183 28 b 167 0 183 6 176 0 m 240 119 l 246 119 b 279 83 265 119 279 103 b 256 33 279 63 260 58 b 296 14 256 18 279 14 b 379 107 317 15 351 28 b 389 151 386 126 389 140 b 343 196 389 190 358 196 b 264 158 306 196 278 158 b 249 171 249 158 249 164 b 315 344 249 193 299 342 l 406 344 b 499 339 453 344 499 346 b 422 286 499 308 451 292 l 382 278 b 335 268 367 275 351 272 l 315 264 b 306 228 308 258 306 238 b 311 224 306 226 307 224 b 354 228 322 224 342 228 b 414 211 388 228 397 211 l 418 207 b 450 131 439 192 450 161 b 294 -4 450 47 369 -4 b 208 76 251 -4 208 24 b 231 117 208 94 215 108 "},"":{"ha":0,"x_min":0,"x_max":0,"o":""},"":{"ha":653,"x_min":0,"x_max":0,"o":"m 625 0 b 326 -347 625 -192 492 -347 b 28 0 161 -347 28 -192 b 326 349 28 193 161 349 b 625 0 492 349 625 193 m 326 306 b 222 10 268 306 222 174 b 326 -285 222 -153 268 -285 b 431 10 383 -285 431 -153 b 326 306 431 174 383 306 "},"":{"ha":464,"x_min":0,"x_max":0,"o":"m 167 322 b 192 349 172 335 178 349 b 199 347 193 349 196 347 b 271 343 219 344 244 343 b 343 349 289 343 324 349 b 371 317 363 347 371 339 l 371 -256 b 415 -304 371 -279 396 -304 b 436 -325 436 -304 436 -325 b 414 -347 436 -325 436 -347 l 118 -347 b 88 -325 100 -347 88 -340 b 111 -304 88 -308 101 -304 b 172 -251 140 -304 172 -283 l 172 107 b 164 126 172 115 169 126 b 150 113 161 126 156 122 b 75 -10 135 86 75 -10 b 56 -22 75 -10 69 -22 b 43 -19 54 -22 49 -21 b 28 0 32 -15 28 -7 b 33 18 28 10 33 18 "},"":{"ha":619,"x_min":0,"x_max":0,"o":"m 585 -126 b 396 -347 563 -342 456 -347 b 196 -272 272 -347 251 -272 b 67 -357 114 -272 97 -357 b 56 -354 64 -357 60 -357 b 31 -311 40 -344 31 -326 b 32 -303 31 -308 32 -306 b 186 -99 56 -215 110 -147 b 343 43 254 -57 293 -24 b 390 185 374 83 390 132 b 265 318 390 225 389 318 b 156 265 183 318 158 285 b 251 150 156 238 251 233 b 154 28 251 115 239 28 b 40 104 104 28 61 61 b 28 164 32 125 28 144 b 67 265 28 201 43 236 b 197 343 100 304 149 333 b 318 353 233 351 281 353 b 528 285 349 353 457 344 b 592 142 564 254 592 207 b 532 14 592 81 565 40 b 407 -40 486 -24 428 -35 b 228 -140 376 -49 258 -90 b 279 -132 243 -135 261 -132 b 429 -165 336 -132 401 -154 b 471 -181 443 -172 453 -174 b 494 -185 481 -183 488 -185 b 549 -125 524 -185 535 -158 b 550 -121 549 -124 550 -122 b 568 -107 553 -112 557 -107 b 585 -126 578 -107 585 -110 "},"":{"ha":585,"x_min":0,"x_max":0,"o":"m 296 344 b 528 175 354 340 528 303 b 497 86 528 143 519 111 b 443 49 482 68 464 58 b 400 36 431 42 415 40 b 394 24 396 35 394 29 b 396 17 394 21 394 19 b 410 10 399 11 403 11 l 456 -3 l 485 -19 b 518 -49 499 -28 510 -37 b 544 -89 529 -61 539 -75 b 557 -146 553 -107 556 -126 l 557 -156 b 278 -349 557 -278 415 -349 l 265 -349 b 28 -196 129 -346 31 -304 b 58 -111 28 -165 35 -132 b 125 -75 75 -93 101 -79 b 140 -74 131 -74 135 -74 b 233 -131 178 -74 218 -96 b 240 -174 239 -144 240 -160 b 208 -265 239 -214 208 -235 l 208 -272 b 247 -294 210 -293 236 -293 b 260 -296 249 -294 254 -296 b 365 -132 290 -296 365 -279 b 193 -6 365 -114 353 -6 b 158 11 182 -6 158 -6 b 192 35 158 26 178 33 b 361 182 279 39 361 79 l 361 192 b 232 299 361 225 350 299 b 174 264 219 299 176 288 l 174 258 b 201 239 174 239 194 242 b 247 182 208 236 243 233 l 247 171 b 156 81 247 125 217 81 l 149 81 b 36 193 63 86 36 147 b 275 346 36 267 156 346 b 296 344 282 346 289 344 "},"":{"ha":653,"x_min":0,"x_max":0,"o":"m 604 -103 b 625 -129 619 -103 625 -112 b 604 -156 625 -146 618 -156 l 503 -156 l 503 -237 b 546 -290 503 -282 532 -290 b 576 -318 560 -290 576 -299 b 549 -347 576 -337 563 -347 l 253 -347 b 226 -318 232 -347 226 -332 b 258 -292 226 -304 236 -292 b 314 -243 283 -292 314 -281 l 314 -156 l 56 -156 b 28 -132 39 -156 28 -146 b 32 -117 28 -128 29 -122 b 33 -112 32 -115 33 -114 l 42 -101 b 219 322 83 -43 219 150 b 251 349 219 344 239 349 b 350 346 263 349 325 346 b 444 349 375 346 432 349 b 465 329 456 349 465 340 b 464 322 465 326 464 325 b 126 -103 460 307 238 -8 l 314 -103 l 314 14 b 326 46 314 31 321 39 l 458 206 b 486 218 467 215 474 218 b 503 194 501 218 503 206 l 503 -103 "},"":{"ha":560,"x_min":0,"x_max":0,"o":"m 106 76 b 111 67 106 72 106 67 b 118 68 113 67 115 67 b 303 108 163 94 222 108 b 532 -121 429 108 532 6 b 274 -349 532 -246 440 -349 b 28 -176 103 -349 28 -292 b 29 -151 28 -168 28 -160 b 139 -49 33 -103 64 -49 b 247 -157 199 -49 247 -96 b 194 -250 247 -196 226 -231 b 178 -269 188 -254 178 -260 b 194 -289 179 -279 188 -285 b 226 -293 204 -293 215 -293 b 344 -121 263 -293 344 -274 b 201 60 344 33 249 60 b 107 14 154 60 121 28 b 76 -14 92 -1 90 -14 b 49 7 63 -14 49 -11 l 49 10 l 64 318 b 97 342 65 329 72 342 b 285 328 121 339 240 328 b 456 340 329 328 438 340 b 475 311 471 340 475 329 b 275 178 475 289 468 178 b 139 190 218 178 153 188 l 133 190 b 113 172 121 190 114 183 b 106 82 111 160 106 82 "},"":{"ha":603,"x_min":0,"x_max":0,"o":"m 361 139 b 356 144 360 140 357 142 b 335 201 342 160 335 181 b 344 242 335 215 338 229 b 379 294 353 258 379 275 b 333 315 379 308 361 315 b 218 51 304 315 222 308 b 231 18 218 29 222 18 b 239 21 233 18 236 18 b 365 69 275 53 321 69 b 489 26 408 69 451 54 b 575 -132 533 -7 575 -54 b 494 -296 575 -194 543 -257 b 313 -346 444 -336 375 -346 b 201 -326 278 -346 236 -342 b 71 -193 147 -303 100 -246 b 28 -1 40 -137 29 -65 l 28 4 b 82 201 28 69 51 143 b 336 349 132 296 231 347 b 446 331 372 349 413 344 b 533 236 488 315 526 282 b 535 221 535 231 535 226 b 458 121 535 176 501 132 b 424 115 447 118 435 115 b 361 139 401 115 378 122 m 308 3 b 228 -153 264 3 228 -67 b 308 -308 228 -239 264 -308 b 390 -153 353 -308 390 -239 b 308 3 390 -67 353 3 "},"":{"ha":613,"x_min":0,"x_max":0,"o":"m 585 278 b 419 -296 585 135 419 -64 b 397 -347 419 -336 411 -347 b 283 -335 383 -347 318 -335 b 193 -347 249 -335 218 -347 b 167 -304 167 -347 167 -333 b 263 -108 167 -250 210 -169 b 453 107 346 -10 453 68 b 443 119 451 115 449 119 b 431 114 440 119 435 117 b 361 85 419 106 400 85 b 158 189 281 85 214 189 b 64 74 96 189 78 108 b 43 46 58 58 54 46 b 28 68 29 46 28 68 l 28 297 b 42 314 28 310 35 314 b 58 304 49 314 56 310 b 94 271 65 290 83 271 b 132 296 104 272 113 278 b 253 346 151 314 172 346 b 468 228 368 346 433 228 b 532 324 503 228 522 307 b 561 339 538 333 560 339 b 585 283 585 339 585 321 "},"":{"ha":606,"x_min":0,"x_max":0,"o":"m 464 50 b 578 -112 529 17 578 -29 b 290 -360 578 -300 429 -360 b 28 -183 153 -360 28 -304 b 156 -15 28 -96 83 -50 b 35 169 89 22 35 74 b 306 360 35 286 144 360 b 547 197 343 360 547 339 b 464 50 547 128 514 82 m 285 -314 b 421 -211 378 -314 421 -267 b 217 -46 421 -119 318 -90 b 107 -176 156 -69 107 -121 b 285 -314 107 -267 192 -314 m 392 82 b 465 200 438 108 465 144 b 303 319 465 297 347 319 b 163 232 242 319 163 290 b 392 82 163 144 281 121 "},"":{"ha":603,"x_min":0,"x_max":0,"o":"m 242 -136 b 247 -142 243 -137 246 -139 b 268 -199 261 -157 268 -178 b 258 -239 268 -212 265 -226 b 224 -292 250 -256 224 -272 b 269 -312 224 -306 242 -312 b 385 -49 299 -312 381 -306 b 372 -15 385 -26 381 -15 b 364 -18 369 -15 367 -15 b 238 -67 328 -50 282 -67 b 114 -24 194 -67 151 -51 b 28 135 69 10 28 57 b 108 299 28 197 60 260 b 290 349 158 339 228 349 b 401 329 325 349 367 344 b 532 196 456 306 503 249 b 575 4 563 140 574 68 l 575 -1 b 521 -199 575 -67 551 -140 b 267 -346 471 -293 372 -344 b 157 -328 231 -346 190 -342 b 69 -233 115 -312 76 -279 b 68 -218 68 -228 68 -224 b 144 -118 68 -174 101 -129 b 179 -112 156 -115 168 -112 b 242 -136 201 -112 225 -119 m 294 0 b 375 156 339 0 375 69 b 294 311 375 242 339 311 b 213 156 250 311 213 242 b 294 0 213 69 250 0 "},"":{"ha":589,"x_min":0,"x_max":0,"o":"m 324 349 b 560 150 350 349 560 332 b 454 31 560 35 454 31 b 347 135 415 31 347 56 b 435 238 347 178 379 238 b 460 268 456 238 460 256 b 358 315 460 282 431 315 b 178 39 283 315 178 268 b 350 -300 178 -190 238 -300 b 547 -79 394 -300 547 -258 b 568 -54 547 -56 557 -54 b 589 -85 574 -54 589 -54 b 310 -346 589 -125 553 -346 b 97 -253 226 -346 150 -317 b 8 -51 51 -197 15 -126 b 7 -14 7 -39 7 -26 b 196 321 7 118 72 267 b 324 349 233 338 282 349 "},"":{"ha":579,"x_min":0,"x_max":0,"o":"m 243 231 b 228 253 243 242 235 253 b 224 250 226 253 225 253 b 171 36 193 207 171 142 b 228 -239 171 -93 190 -186 b 235 -243 229 -242 232 -243 b 243 -226 239 -243 243 -239 m 558 -56 b 581 -82 565 -56 579 -56 b 307 -346 581 -125 543 -342 b 292 -365 297 -350 292 -357 l 292 -475 b 267 -499 292 -487 282 -499 b 243 -475 256 -499 243 -487 l 243 -368 b 217 -333 243 -356 226 -337 b 92 -253 168 -321 125 -293 b 1 -53 43 -196 8 -126 b 0 -14 0 -40 0 -26 b 189 319 0 118 64 265 l 226 333 b 243 356 229 333 243 346 l 243 390 l 243 478 b 267 501 243 489 256 501 b 292 478 282 501 292 489 l 292 376 b 307 344 292 369 299 346 b 315 346 317 344 313 346 b 551 149 342 346 551 329 b 446 29 551 33 446 29 b 339 132 407 29 339 54 b 426 235 339 175 371 235 b 451 265 447 235 451 254 b 350 313 451 279 421 313 b 326 311 343 313 335 313 b 292 276 317 310 292 286 l 292 -274 b 306 -294 292 -285 300 -293 b 342 -299 317 -297 328 -299 b 539 -79 386 -299 539 -257 b 553 -56 539 -58 547 -56 "},"":{"ha":694,"x_min":0,"x_max":0,"o":"m 674 51 b 693 32 683 51 693 44 l 693 -32 b 674 -53 693 -44 683 -53 l 418 -53 b 399 -75 408 -53 399 -61 l 399 -328 b 378 -347 399 -337 390 -347 l 314 -347 b 294 -328 301 -347 294 -337 l 294 -72 b 274 -53 294 -65 288 -53 l 18 -53 b -1 -32 8 -53 -1 -44 l -1 32 b 18 51 -1 44 8 51 l 274 51 b 294 76 282 51 294 64 l 294 328 b 314 347 294 338 301 347 l 378 347 b 399 328 390 347 399 338 l 399 76 b 417 51 399 63 406 51 "},"":{"ha":353,"x_min":0,"x_max":0,"o":"m 343 19 b 353 10 349 19 353 15 l 353 -24 b 343 -33 353 -29 349 -33 l 214 -33 b 203 -46 208 -33 203 -37 l 203 -174 b 193 -183 203 -179 199 -183 l 160 -183 b 150 -174 154 -183 150 -179 l 150 -44 b 139 -33 150 -40 147 -33 l 10 -33 b -1 -24 4 -33 -1 -29 l -1 10 b 10 19 -1 15 4 19 l 139 19 b 150 32 144 19 150 25 l 150 160 b 160 169 150 165 154 169 l 193 169 b 203 160 199 169 203 165 l 203 32 b 213 19 203 25 207 19 "},"":{"ha":525,"x_min":0,"x_max":0,"o":"m 469 254 b 486 263 475 260 481 263 b 493 260 489 263 492 261 l 522 231 b 525 224 524 229 525 226 b 517 207 525 218 522 211 l 54 -256 b 39 -264 50 -261 44 -264 b 32 -261 36 -264 33 -262 l 1 -232 b 0 -225 0 -231 0 -228 b 7 -208 0 -219 3 -214 "},"":{"ha":622,"x_min":0,"x_max":0,"o":"m 622 86 b 597 68 622 76 611 68 l 26 68 b 0 86 11 68 0 76 l 0 154 b 26 172 0 164 11 172 l 597 172 b 622 154 611 172 622 164 m 622 -156 b 597 -174 622 -165 611 -174 l 26 -174 b 0 -156 11 -174 0 -165 l 0 -87 b 26 -69 0 -78 11 -69 l 597 -69 b 622 -87 611 -69 622 -78 "},"":{"ha":622,"x_min":0,"x_max":0,"o":"m 622 -31 b 597 -49 622 -40 611 -49 l 26 -49 b 0 -31 11 -49 0 -40 l 0 38 b 26 56 0 47 11 56 l 597 56 b 622 38 611 56 622 47 "},"":{"ha":550,"x_min":0,"x_max":0,"o":"m 469 268 b 483 274 474 272 478 274 b 497 268 488 274 493 272 l 542 224 b 549 207 546 218 549 213 b 543 194 549 201 546 197 l 363 14 b 357 0 358 10 357 6 b 364 -15 357 -6 358 -11 l 543 -194 b 549 -207 546 -197 549 -201 b 542 -224 549 -212 546 -218 l 497 -268 b 483 -274 493 -272 488 -274 b 469 -268 478 -274 474 -272 b 289 -87 469 -268 292 -92 b 275 -82 286 -85 281 -82 b 260 -89 269 -82 264 -85 l 79 -269 b 67 -275 76 -272 72 -275 b 50 -268 61 -275 56 -272 l 6 -224 b 0 -210 1 -219 0 -214 b 6 -196 0 -204 1 -200 l 186 -15 b 190 -1 189 -12 190 -7 b 183 18 190 6 188 13 l 6 196 b 0 210 1 200 0 204 b 6 224 0 214 1 219 l 50 268 b 67 275 56 272 61 275 b 79 269 72 275 76 272 l 257 92 b 276 82 263 86 269 82 b 288 86 281 82 285 83 "},"":{"ha":153,"x_min":0,"x_max":0,"o":"m 153 -343 b 150 -349 153 -344 151 -349 b 149 -347 150 -349 149 -349 b 0 0 44 -262 0 -140 b 149 346 0 142 47 263 b 153 340 150 346 153 344 l 153 326 b 150 315 153 326 153 318 b 65 0 94 238 65 154 b 149 -317 65 -154 93 -240 b 153 -325 150 -318 153 -321 "},"":{"ha":153,"x_min":0,"x_max":0,"o":"m 0 -325 b 4 -317 0 -321 3 -318 b 88 0 60 -240 88 -154 b 3 315 88 154 58 238 b 0 326 0 318 0 326 l 0 340 b 4 346 0 344 3 346 b 153 0 106 263 153 142 b 4 -347 153 -140 108 -262 b 3 -349 4 -349 3 -349 b 0 -343 1 -349 0 -344 "},"":{"ha":256,"x_min":0,"x_max":0,"o":"m 256 -671 b 253 -679 256 -674 254 -679 b 249 -678 251 -679 250 -679 b 0 1 75 -511 0 -272 b 244 676 0 279 75 513 b 251 682 244 676 250 682 b 256 671 254 682 256 678 l 256 642 b 251 621 256 642 256 628 b 94 1 147 485 94 304 b 250 -618 94 -300 150 -479 b 256 -635 253 -621 256 -628 "},"":{"ha":256,"x_min":0,"x_max":0,"o":"m 0 -635 b 6 -618 0 -628 3 -621 b 161 1 106 -479 161 -300 b 4 621 161 304 108 485 b 0 642 0 628 0 642 l 0 671 b 4 682 0 678 1 682 b 11 676 6 682 11 676 b 256 1 181 513 256 279 b 7 -678 256 -272 181 -511 b 3 -679 6 -679 4 -679 b 0 -671 1 -679 0 -674 "},"":{"ha":275,"x_min":0,"x_max":0,"o":"m 128 192 b 210 165 156 192 186 182 b 256 67 236 144 256 114 l 256 54 b 214 -97 256 10 246 -49 b 53 -208 188 -137 106 -208 b 42 -196 47 -208 43 -204 b 39 -190 42 -194 39 -192 b 53 -176 39 -182 46 -179 b 125 -114 56 -174 97 -149 b 150 -50 140 -93 150 -74 b 147 -33 150 -44 150 -40 b 103 1 147 -33 142 1 b 13 92 50 1 13 36 b 128 192 13 147 57 192 "},"":{"ha":576,"x_min":0,"x_max":0,"o":"m 92 336 b 104 349 94 342 97 349 b 107 347 104 349 106 347 b 142 346 117 346 129 346 b 175 349 150 346 165 349 b 188 333 185 347 188 343 l 188 65 b 208 42 188 54 200 42 b 218 32 218 42 218 32 b 208 22 218 32 218 22 l 69 22 b 56 32 61 22 56 25 b 67 42 56 40 61 42 b 94 67 79 42 94 51 l 94 235 b 90 244 94 239 93 244 b 85 238 89 244 88 242 b 49 181 78 225 49 181 b 40 174 49 181 46 174 b 35 175 39 174 36 175 b 26 185 29 178 26 182 b 29 193 26 189 29 193 m 542 -222 b 553 -235 550 -222 553 -226 b 542 -249 553 -243 549 -249 l 492 -249 l 492 -289 b 513 -315 492 -311 506 -315 b 528 -329 519 -315 528 -319 b 514 -344 528 -339 521 -344 l 367 -344 b 353 -329 356 -344 353 -336 b 369 -317 353 -322 358 -317 b 397 -292 382 -317 397 -311 l 397 -249 l 268 -249 b 254 -236 260 -249 254 -243 b 256 -229 254 -235 254 -232 b 257 -226 256 -228 257 -228 l 261 -221 b 350 -10 282 -192 350 -96 b 365 3 350 1 360 3 b 415 1 371 3 403 1 b 463 3 428 1 456 3 b 472 -7 468 3 472 -1 b 472 -10 472 -8 472 -8 b 303 -222 469 -18 358 -175 l 397 -222 l 397 -164 b 403 -149 397 -156 400 -151 l 469 -68 b 483 -62 474 -64 476 -62 b 492 -74 490 -62 492 -68 l 492 -222 m 493 281 b 510 289 499 286 504 289 b 517 286 513 289 515 288 l 546 257 b 549 250 547 256 549 253 b 540 233 549 244 546 238 l 78 -229 b 63 -237 74 -235 68 -237 b 56 -235 60 -237 57 -236 l 25 -206 b 24 -199 24 -204 24 -201 b 31 -182 24 -193 26 -187 "},"":{"ha":589,"x_min":0,"x_max":0,"o":"m 92 332 b 104 344 94 338 97 344 b 107 343 104 344 106 343 b 142 342 117 342 129 342 b 175 344 150 342 165 344 b 188 329 185 343 188 339 l 188 61 b 208 38 188 50 200 38 b 218 28 218 38 218 28 b 208 18 218 28 218 18 l 69 18 b 56 28 61 18 56 21 b 67 38 56 36 61 38 b 94 63 79 38 94 47 l 94 231 b 90 240 94 235 93 240 b 85 233 89 240 88 238 b 49 176 78 221 49 176 b 40 169 49 176 46 169 b 35 171 39 169 36 171 b 26 181 29 174 26 178 b 29 189 26 185 29 189 m 560 -236 b 471 -339 550 -337 500 -339 b 378 -304 414 -339 404 -304 b 317 -344 339 -304 332 -344 b 313 -343 317 -344 314 -344 b 300 -322 306 -339 300 -329 b 301 -318 300 -321 301 -319 b 374 -222 313 -278 338 -246 b 447 -156 406 -203 424 -187 b 469 -89 461 -137 469 -114 b 410 -26 469 -71 468 -26 b 358 -51 372 -26 360 -43 b 404 -106 358 -65 404 -67 b 358 -164 404 -122 397 -164 b 306 -128 335 -164 315 -147 b 299 -100 301 -118 299 -108 b 317 -51 299 -82 307 -65 b 378 -15 333 -33 356 -19 b 435 -11 396 -11 418 -11 b 533 -43 449 -11 500 -14 b 563 -110 550 -57 563 -79 b 535 -169 563 -139 550 -157 b 476 -196 514 -187 486 -193 b 393 -242 463 -199 407 -219 b 417 -239 400 -240 408 -239 b 488 -254 443 -239 474 -249 b 507 -261 493 -257 499 -258 b 518 -264 511 -262 514 -264 b 543 -235 531 -264 536 -251 b 543 -233 543 -235 543 -233 b 551 -226 544 -229 547 -226 b 560 -236 557 -226 560 -228 m 501 289 b 518 297 507 294 513 297 b 525 294 521 297 524 296 l 554 265 b 557 258 556 264 557 261 b 549 242 557 253 554 246 l 86 -221 b 71 -229 82 -226 76 -229 b 64 -226 68 -229 65 -228 l 33 -197 b 32 -190 32 -196 32 -193 b 39 -174 32 -185 35 -179 "},"":{"ha":624,"x_min":0,"x_max":0,"o":"m 588 -225 b 599 -237 596 -225 599 -229 b 588 -251 599 -246 594 -251 l 538 -251 l 538 -292 b 558 -318 538 -314 551 -318 b 574 -332 565 -318 574 -322 b 560 -347 574 -342 567 -347 l 413 -347 b 399 -332 401 -347 399 -339 b 415 -319 399 -325 404 -319 b 443 -294 428 -319 443 -314 l 443 -251 l 314 -251 b 300 -239 306 -251 300 -246 b 301 -232 300 -237 300 -235 b 303 -229 301 -231 303 -231 l 307 -224 b 396 -12 328 -194 396 -99 b 411 0 396 -1 406 0 b 461 -1 417 0 449 -1 b 508 0 474 -1 501 0 b 518 -10 514 0 518 -4 b 518 -12 518 -11 518 -11 b 349 -225 515 -21 404 -178 l 443 -225 l 443 -167 b 449 -151 443 -158 446 -154 l 515 -71 b 529 -65 519 -67 522 -65 b 538 -76 536 -65 538 -71 l 538 -225 m 160 347 b 276 263 190 344 276 326 b 261 217 276 246 272 229 b 235 199 254 208 244 203 b 213 192 228 194 221 194 b 210 186 211 192 210 189 b 211 182 210 185 210 183 b 218 179 213 179 214 179 l 240 172 l 256 164 b 272 149 263 160 268 154 b 286 129 278 143 283 136 b 292 100 290 119 292 110 l 292 96 b 151 -3 292 33 221 -3 l 144 -3 b 25 75 76 0 26 21 b 40 118 25 90 29 107 b 74 136 49 126 63 133 b 82 136 76 136 79 136 b 129 108 101 136 121 125 b 132 86 132 101 132 93 b 117 40 132 65 117 56 l 117 36 b 136 25 117 26 131 26 b 142 25 136 25 139 25 b 196 107 157 25 196 33 b 108 171 196 117 189 171 b 90 179 103 171 90 171 b 108 192 90 188 101 190 b 193 265 151 193 193 214 l 193 271 b 128 324 193 288 188 324 b 99 307 122 324 100 318 l 99 304 b 113 294 99 294 110 296 b 136 265 117 293 133 292 l 136 260 b 89 214 136 236 121 214 l 86 214 b 29 271 43 217 29 247 b 150 347 29 308 89 347 b 160 347 153 347 157 347 m 518 260 b 535 268 524 265 529 268 b 542 265 538 268 540 267 l 571 236 b 574 229 572 235 574 232 b 565 213 574 224 571 217 l 103 -250 b 88 -258 99 -256 93 -258 b 81 -256 85 -258 82 -257 l 50 -226 b 49 -219 49 -225 49 -222 b 56 -203 49 -214 51 -208 "},"":{"ha":613,"x_min":0,"x_max":0,"o":"m 454 3 b 571 -82 485 0 571 -18 b 556 -128 571 -99 567 -115 b 529 -146 549 -136 539 -142 b 507 -153 522 -150 515 -150 b 504 -158 506 -153 504 -156 b 506 -162 504 -160 504 -161 b 513 -165 507 -165 508 -165 l 535 -172 l 550 -181 b 567 -196 557 -185 563 -190 b 581 -215 572 -201 578 -208 b 586 -244 585 -225 586 -235 l 586 -249 b 446 -347 586 -311 515 -347 l 439 -347 b 319 -269 371 -344 321 -324 b 335 -226 319 -254 324 -237 b 368 -208 343 -218 357 -211 b 376 -208 371 -208 374 -208 b 424 -236 396 -208 415 -219 b 426 -258 426 -243 426 -251 b 411 -304 426 -279 411 -289 l 411 -308 b 431 -319 411 -318 425 -318 b 436 -319 431 -319 433 -319 b 490 -237 451 -319 490 -311 b 403 -174 490 -228 483 -174 b 385 -165 397 -174 385 -174 b 403 -153 385 -157 396 -154 b 488 -79 446 -151 488 -131 l 488 -74 b 422 -21 488 -57 482 -21 b 393 -37 417 -21 394 -26 l 393 -40 b 407 -50 393 -50 404 -49 b 431 -79 411 -51 428 -53 l 431 -85 b 383 -131 431 -108 415 -131 l 381 -131 b 324 -74 338 -128 324 -97 b 444 3 324 -36 383 3 b 454 3 447 3 451 3 m 92 335 b 104 347 94 340 97 347 b 107 346 104 347 106 346 b 142 344 117 344 129 344 b 175 347 150 344 165 347 b 188 332 185 346 188 342 l 188 64 b 208 40 188 53 200 40 b 218 31 218 40 218 31 b 208 21 218 31 218 21 l 69 21 b 56 31 61 21 56 24 b 67 40 56 39 61 40 b 94 65 79 40 94 50 l 94 233 b 90 243 94 238 93 243 b 85 236 89 243 88 240 b 49 179 78 224 49 179 b 40 172 49 179 46 172 b 35 174 39 172 36 174 b 26 183 29 176 26 181 b 29 192 26 188 29 192 m 497 279 b 514 288 503 285 508 288 b 521 285 517 288 519 286 l 550 256 b 553 249 551 254 553 251 b 544 232 553 243 550 236 l 82 -231 b 67 -239 78 -236 72 -239 b 60 -236 64 -239 61 -237 l 29 -207 b 28 -200 28 -206 28 -203 b 35 -183 28 -194 31 -189 "},"":{"ha":619,"x_min":0,"x_max":0,"o":"m 468 3 b 585 -82 499 0 585 -18 b 569 -128 585 -99 581 -115 b 543 -146 563 -136 553 -142 b 521 -153 536 -150 529 -150 b 518 -158 519 -153 518 -156 b 519 -162 518 -160 518 -161 b 526 -165 521 -165 522 -165 l 549 -172 l 564 -181 b 581 -196 571 -185 576 -190 b 594 -215 586 -201 592 -208 b 600 -244 599 -225 600 -235 l 600 -249 b 460 -347 600 -311 529 -347 l 453 -347 b 333 -269 385 -344 335 -324 b 349 -226 333 -254 338 -237 b 382 -208 357 -218 371 -211 b 390 -208 385 -208 388 -208 b 438 -236 410 -208 429 -219 b 440 -258 440 -243 440 -251 b 425 -304 440 -279 425 -289 l 425 -308 b 444 -319 425 -318 439 -318 b 450 -319 444 -319 447 -319 b 504 -237 465 -319 504 -311 b 417 -174 504 -228 497 -174 b 399 -165 411 -174 399 -174 b 417 -153 399 -157 410 -154 b 501 -79 460 -151 501 -131 l 501 -74 b 436 -21 501 -57 496 -21 b 407 -37 431 -21 408 -26 l 407 -40 b 421 -50 407 -50 418 -49 b 444 -79 425 -51 442 -53 l 444 -85 b 397 -131 444 -108 429 -131 l 394 -131 b 338 -74 351 -128 338 -97 b 458 3 338 -36 397 3 b 468 3 461 3 465 3 m 282 122 b 193 19 272 21 221 19 b 100 54 136 19 126 54 b 39 14 61 54 54 14 b 35 15 39 14 36 14 b 22 36 28 21 22 29 b 24 40 22 38 24 39 b 96 136 35 81 60 113 b 169 203 128 156 146 171 b 192 268 183 221 192 244 b 132 332 192 288 190 332 b 81 307 94 332 82 315 b 126 253 81 293 126 292 b 81 194 126 236 119 194 b 28 231 57 194 38 211 b 21 258 24 240 21 250 b 39 307 21 276 29 293 b 100 343 56 325 78 339 b 157 347 118 347 140 347 b 256 315 171 347 222 343 b 285 249 272 301 285 279 b 257 189 285 219 272 201 b 199 163 236 171 208 165 b 115 117 185 160 129 139 b 139 119 122 118 131 119 b 210 104 165 119 196 110 b 229 97 215 101 221 100 b 240 96 233 96 236 96 b 265 124 253 96 258 107 b 265 125 265 124 265 125 b 274 132 267 129 269 132 b 282 122 279 132 282 131 m 510 261 b 526 269 515 267 521 269 b 533 267 529 269 532 268 l 563 238 b 565 231 564 236 565 233 b 557 214 565 225 563 218 l 94 -249 b 79 -257 90 -254 85 -257 b 72 -254 76 -257 74 -256 l 42 -225 b 40 -218 40 -224 40 -221 b 47 -201 40 -212 43 -207 "},"":{"ha":563,"x_min":0,"x_max":0,"o":"m 461 -524 l 281 -100 l 101 -524 l 0 -524 l 232 0 l 0 521 l 101 521 l 281 100 l 461 521 l 563 521 l 331 0 l 563 -524 "},"":{"ha":1174,"x_min":0,"x_max":0,"o":"m -1 1 b 321 347 -1 232 160 347 b 668 47 483 347 622 232 b 944 -207 760 -160 829 -207 b 1106 1 1038 -207 1106 -136 b 1129 279 1106 279 1129 279 b 1175 232 1153 279 1175 279 l 1175 1 b 875 -344 1175 -207 1060 -344 b 506 -67 668 -344 575 -207 b 276 163 461 71 414 163 b 68 -67 183 163 68 94 b 44 -321 68 -321 44 -321 b -1 -275 22 -321 -1 -321 "},"":{"ha":0,"x_min":0,"x_max":0,"o":""},"":{"ha":0,"x_min":0,"x_max":0,"o":""},"":{"ha":832,"x_min":0,"x_max":0,"o":"m 31 215 b 43 204 38 215 43 210 l 43 -206 b 31 -215 43 -211 38 -215 l 13 -215 b 0 -206 4 -215 0 -211 l 0 204 b 13 215 0 210 4 215 m 110 215 b 124 204 117 215 124 210 l 124 -206 b 110 -215 124 -211 117 -215 l 93 -215 b 79 -206 85 -215 79 -211 l 79 204 b 93 215 79 210 85 215 m 554 -68 b 557 -43 556 -61 557 -51 b 386 142 557 40 481 142 b 276 88 343 142 292 135 b 274 56 274 78 274 68 b 319 -68 274 11 294 -36 b 349 -99 329 -79 339 -90 b 415 -136 368 -115 392 -128 b 453 -140 428 -140 439 -140 b 493 -136 467 -140 481 -140 b 554 -68 528 -126 547 -103 m 422 174 b 707 1 551 174 707 100 b 408 -174 707 -94 633 -174 b 125 1 203 -174 125 -89 b 422 174 125 97 239 174 m 739 215 b 753 204 746 215 753 210 l 753 -206 b 739 -215 753 -211 746 -215 l 721 -215 b 707 -206 714 -215 707 -211 l 707 204 b 721 215 707 210 714 215 m 818 215 b 832 204 826 215 832 210 l 832 -206 b 818 -215 832 -211 826 -215 l 800 -215 b 786 -206 794 -215 786 -211 l 786 204 b 800 215 786 210 794 215 "},"":{"ha":578,"x_min":0,"x_max":0,"o":"m 35 -21 b 113 -65 35 -47 64 -65 l 469 -65 b 543 -21 514 -65 543 -51 l 543 29 b 469 68 543 51 514 68 l 107 68 b 35 22 56 68 35 53 m 543 258 b 560 275 543 268 550 275 b 578 258 569 275 578 268 l 578 -246 b 560 -264 578 -254 569 -264 b 543 -246 550 -264 543 -254 l 543 -201 b 510 -174 543 -189 529 -174 l 64 -174 b 35 -206 51 -174 35 -190 l 35 -246 b 17 -264 35 -254 26 -264 b 0 -246 7 -264 0 -254 l 0 258 b 17 275 0 268 7 275 b 35 258 26 275 35 268 l 35 207 b 60 174 35 185 50 174 l 510 174 b 543 210 525 174 543 185 "},"":{"ha":586,"x_min":0,"x_max":0,"o":"m 300 174 b 586 3 429 174 586 101 b 286 -174 586 -94 514 -174 b 0 3 79 -174 0 -90 b 300 174 0 97 115 174 m 154 88 b 150 54 151 76 150 65 b 199 -69 150 10 171 -37 b 228 -100 207 -81 217 -90 b 293 -136 247 -117 269 -129 b 329 -142 306 -140 317 -142 b 372 -136 343 -142 358 -140 b 433 -69 407 -128 426 -104 b 436 -43 435 -61 436 -53 b 264 143 436 40 360 143 b 154 88 221 143 169 136 "},"":{"ha":410,"x_min":0,"x_max":0,"o":"m 135 -174 b 0 -58 58 -174 0 -132 b 272 174 0 14 65 174 b 410 58 353 174 410 129 b 135 -174 410 13 364 -174 m 240 -64 b 367 61 338 0 367 33 b 358 88 367 71 363 79 b 307 117 349 104 333 117 b 167 63 279 117 236 103 b 40 -61 71 7 40 -31 b 49 -89 40 -71 44 -81 b 104 -121 58 -106 75 -121 b 240 -64 135 -121 178 -106 "},"":{"ha":410,"x_min":0,"x_max":0,"o":"m 135 -174 b 0 -58 60 -174 0 -131 b 275 174 0 61 122 174 b 410 58 354 174 410 129 b 135 -174 410 -60 258 -174 "},"":{"ha":410,"x_min":0,"x_max":0,"o":""},"":{"ha":758,"x_min":0,"x_max":0,"o":"m 121 -126 l 257 0 l 121 126 m 636 128 l 500 0 l 636 -128 m 557 -136 l 406 0 l 557 136 l 489 136 l 379 43 l 267 136 l 200 136 l 351 0 l 200 -136 l 267 -136 l 379 -43 l 489 -136 m 42 -207 b 29 -215 42 -211 38 -215 l 13 -215 b 0 -207 6 -215 0 -211 l 0 206 b 13 215 0 210 6 215 l 29 215 b 42 206 38 215 42 210 m 679 -207 b 668 -215 679 -211 674 -215 l 649 -215 b 636 -207 643 -215 636 -211 l 636 -157 b 610 -174 632 -167 622 -174 l 488 -174 b 468 -165 481 -174 474 -171 l 379 -92 l 289 -165 b 269 -174 283 -171 276 -174 l 146 -174 b 121 -157 135 -174 125 -167 l 121 -207 b 108 -215 121 -211 114 -215 l 90 -215 b 79 -207 83 -215 79 -211 l 79 206 b 90 215 79 210 83 215 l 108 215 b 121 206 114 215 121 210 l 121 157 b 146 174 125 167 136 174 l 269 174 b 289 167 276 174 283 171 l 379 92 l 467 167 b 488 174 472 171 481 174 l 611 174 b 636 157 622 174 632 167 l 636 206 b 649 215 636 210 643 215 l 668 215 b 679 206 674 215 679 210 m 758 -207 b 744 -215 758 -211 753 -215 l 728 -215 b 714 -207 721 -215 714 -211 l 714 206 b 728 215 714 210 721 215 l 744 215 b 758 206 753 215 758 210 "},"":{"ha":524,"x_min":0,"x_max":0,"o":"m 172 -165 b 153 -174 167 -171 160 -174 l 31 -174 b 1 -143 14 -174 1 -158 b 11 -119 1 -135 4 -126 l 128 0 l 11 119 b 0 143 4 126 0 135 b 29 174 0 158 15 174 l 153 174 b 172 165 160 174 167 171 l 263 90 l 351 165 b 371 174 357 171 364 174 l 494 174 b 522 143 510 174 522 158 b 513 119 522 135 519 126 l 397 0 l 513 -119 b 524 -143 519 -126 524 -135 b 493 -174 524 -158 510 -174 l 371 -174 b 351 -165 364 -174 357 -171 l 263 -92 m 440 -136 l 289 0 l 440 136 l 372 136 l 263 43 l 151 136 l 85 136 l 236 0 l 85 -136 l 151 -136 l 263 -43 l 372 -136 "},"":{"ha":464,"x_min":0,"x_max":0,"o":"m 432 174 b 464 143 451 174 464 160 b 457 122 464 133 463 126 l 329 -21 l 449 -121 b 461 -142 457 -126 461 -133 b 429 -174 461 -157 444 -174 l 371 -174 b 350 -165 364 -174 357 -169 l 261 -96 l 201 -164 b 178 -174 196 -171 186 -174 l 31 -174 b 0 -143 14 -174 0 -160 b 7 -122 0 -133 3 -126 l 135 21 l 14 119 b 4 143 7 128 4 135 b 35 174 4 158 18 174 l 92 174 b 111 165 100 174 106 171 l 201 94 l 261 164 b 285 174 268 171 276 174 m 199 4 l 68 -143 l 142 -143 l 239 -33 l 371 -143 l 429 -143 l 264 -6 l 396 143 l 322 143 l 225 32 l 92 143 l 35 143 "},"":{"ha":403,"x_min":0,"x_max":0,"o":"m 396 -137 b 403 -154 400 -142 403 -147 b 385 -174 403 -162 396 -174 b 375 -169 382 -174 378 -172 l 200 -24 l 28 -169 b 18 -174 25 -172 22 -174 b 0 -153 7 -174 0 -164 b 7 -137 0 -147 1 -142 l 172 0 l 7 139 b 0 156 3 143 0 150 b 17 174 0 164 7 174 b 28 171 21 174 25 172 l 200 25 l 375 171 b 385 174 378 172 382 174 b 403 154 393 174 403 165 b 396 139 403 149 400 142 l 231 0 l 396 -137 "},"":{"ha":344,"x_min":0,"x_max":0,"o":"m 278 -46 b 333 -56 301 -46 326 -49 b 343 -111 339 -62 343 -87 b 333 -161 343 -133 340 -154 b 281 -175 324 -171 303 -175 b 225 -161 257 -175 235 -169 b 218 -108 219 -157 218 -133 b 171 -44 213 -89 189 -44 b 128 -103 153 -44 136 -83 b 125 -108 126 -104 125 -107 b 114 -161 125 -131 122 -154 b 63 -175 106 -171 83 -175 b 7 -161 39 -175 17 -169 b 0 -108 3 -158 0 -133 b 7 -56 0 -83 3 -60 b 67 -46 15 -49 42 -46 l 81 -46 b 144 1 100 -39 144 -17 b 79 47 144 11 94 39 b 65 46 75 47 71 46 b 7 60 42 46 17 51 b 0 114 3 64 0 89 b 7 165 0 139 3 163 b 64 175 15 172 40 175 b 114 165 86 175 108 172 b 125 111 121 160 125 135 b 172 46 131 92 153 46 b 218 111 189 46 211 96 b 225 165 218 136 219 161 b 282 175 232 172 257 175 b 333 165 306 175 328 172 b 343 110 339 158 343 133 b 333 60 343 88 340 67 b 281 46 324 51 303 46 b 264 47 275 46 269 47 b 199 0 244 40 199 19 b 264 -46 199 -10 249 -37 "},"":{"ha":532,"x_min":0,"x_max":0,"o":"m 438 -125 b 432 -157 438 -136 438 -149 b 499 0 476 -122 499 -71 b 431 163 499 76 476 129 b 438 110 435 153 438 131 b 428 60 438 88 435 67 b 375 46 418 51 397 46 b 358 47 369 46 364 47 b 293 0 339 40 293 19 b 358 -46 293 -10 343 -37 l 372 -46 b 428 -56 396 -46 421 -49 b 438 -111 433 -62 438 -87 m 114 -168 b 267 -201 151 -190 203 -201 b 408 -171 324 -201 372 -192 b 375 -175 399 -174 388 -175 b 319 -161 351 -175 329 -169 b 313 -108 314 -157 313 -133 b 265 -44 307 -89 283 -44 b 222 -103 247 -44 231 -83 b 219 -108 221 -104 219 -107 b 208 -161 219 -131 217 -154 b 157 -175 200 -171 178 -175 b 114 -168 140 -175 125 -172 m 175 -46 b 239 1 194 -39 239 -17 b 174 47 239 11 189 39 b 160 46 169 47 165 46 b 101 60 136 46 111 51 b 94 114 97 64 94 89 b 99 160 94 133 97 151 b 33 0 56 128 33 75 b 100 -160 33 -60 49 -118 b 94 -108 97 -153 94 -131 b 101 -56 94 -83 97 -60 b 161 -46 110 -49 136 -46 m 415 171 b 267 201 378 192 329 201 b 117 171 201 201 153 190 b 158 175 128 174 143 175 b 208 165 181 175 203 172 b 219 111 215 160 219 135 b 267 46 225 92 247 46 b 313 111 283 46 306 96 b 319 165 313 136 314 161 b 376 175 326 172 351 175 b 415 171 392 175 404 174 m 453 188 b 532 0 506 149 532 85 b 453 -183 532 -82 506 -143 b 267 -235 407 -217 344 -235 b 81 -186 186 -235 125 -219 b 0 0 28 -147 0 -85 b 22 114 0 44 8 83 b 81 188 35 144 54 169 b 267 235 124 219 185 235 b 453 188 349 235 408 218 "},"":{"ha":657,"x_min":0,"x_max":0,"o":"m 39 -208 b 28 -215 39 -212 35 -215 l 11 -215 b 0 -208 4 -215 0 -212 l 0 207 b 11 215 0 211 4 215 l 28 215 b 39 207 35 215 39 211 m 110 -208 b 99 -215 110 -212 104 -215 l 83 -215 b 72 -208 76 -215 72 -212 l 72 207 b 83 215 72 211 76 215 l 99 215 b 110 207 104 215 110 211 m 586 -208 b 575 -215 586 -212 581 -215 l 558 -215 b 547 -208 553 -215 547 -212 l 547 207 b 558 215 547 211 553 215 l 575 215 b 586 207 581 215 586 211 m 657 -208 b 644 -215 657 -212 651 -215 l 629 -215 b 617 -208 624 -215 617 -212 l 617 207 b 629 215 617 211 624 215 l 644 215 b 657 207 651 215 657 211 m 285 -174 b 267 -158 275 -174 267 -167 l 257 -71 l 146 -50 b 129 -32 136 -49 129 -40 l 129 33 b 146 51 129 43 138 50 l 257 72 l 267 157 b 285 174 268 167 276 174 l 372 174 b 390 157 382 174 389 165 l 399 72 l 513 51 b 526 33 521 50 526 42 l 526 -32 b 513 -50 526 -42 519 -49 l 399 -71 l 390 -158 b 372 -174 389 -167 381 -174 m 347 -147 l 358 -42 l 442 -18 l 442 19 l 358 43 l 347 147 l 308 147 l 297 43 l 215 19 l 215 -18 l 297 -42 l 308 -147 "},"":{"ha":396,"x_min":0,"x_max":0,"o":"m 218 -147 l 229 -42 l 313 -18 l 313 19 l 229 42 l 218 147 l 179 147 l 168 42 l 86 19 l 86 -18 l 168 -42 l 179 -147 m 154 -174 b 136 -158 146 -174 138 -168 l 126 -71 l 14 -50 b 0 -33 6 -50 0 -40 l 0 35 b 14 51 0 43 7 50 b 128 71 128 71 128 71 l 136 156 b 154 174 138 167 146 174 l 242 174 b 260 156 250 174 258 165 b 269 71 269 71 269 71 l 382 51 b 396 33 390 50 396 42 l 396 -33 b 382 -50 396 -42 389 -50 l 268 -71 l 260 -158 b 242 -174 258 -167 250 -174 "},"":{"ha":363,"x_min":0,"x_max":0,"o":"m 211 174 b 229 158 221 174 229 165 b 338 50 229 81 265 50 l 349 50 b 363 32 357 49 363 39 l 363 -32 b 349 -51 363 -42 356 -50 b 235 -160 281 -76 260 -92 b 217 -174 233 -168 224 -174 l 142 -174 b 124 -160 132 -174 124 -167 l 124 -150 b 25 -57 124 -85 89 -57 l 15 -57 b 0 -37 7 -56 0 -46 l 0 36 b 15 54 0 46 8 53 b 128 158 81 81 104 93 b 147 174 129 167 139 174 m 331 15 b 319 29 331 22 324 29 l 231 40 b 217 51 224 42 218 43 l 203 125 b 189 136 201 132 196 136 l 169 136 b 157 125 164 136 157 132 l 144 51 b 128 38 143 43 136 39 l 46 29 b 33 15 38 28 33 22 l 33 -17 b 44 -29 33 -22 38 -28 l 128 -40 b 142 -53 135 -42 140 -46 l 157 -126 b 169 -137 157 -132 164 -137 l 189 -137 b 203 -126 196 -137 201 -132 l 214 -53 b 231 -39 215 -46 222 -39 l 319 -29 b 331 -17 326 -28 331 -22 "},"":{"ha":346,"x_min":0,"x_max":0,"o":"m 326 19 b 346 0 336 19 346 11 b 326 -19 346 -11 336 -19 l 192 -19 l 192 -154 b 172 -174 192 -165 182 -174 b 153 -154 161 -174 153 -165 l 153 -19 l 18 -19 b -1 0 7 -19 -1 -11 b 18 19 -1 11 7 19 l 153 19 l 153 154 b 172 174 153 165 161 174 b 192 154 182 174 192 165 l 192 19 l 326 19 "},"":{"ha":586,"x_min":0,"x_max":0,"o":"m 574 215 b 586 206 581 215 586 211 l 586 -207 b 574 -215 586 -211 581 -215 l 556 -215 b 543 -207 550 -215 543 -211 l 543 206 b 556 215 543 211 550 215 m 497 215 b 510 206 504 215 510 211 l 510 -207 b 497 -215 510 -211 504 -215 l 479 -215 b 467 -207 474 -215 467 -211 l 467 206 b 479 215 467 211 474 215 m 293 174 b 465 0 390 174 465 97 b 293 -174 465 -96 390 -174 b 122 0 199 -174 122 -96 b 293 174 122 97 199 174 m 374 108 b 293 135 351 125 324 135 b 217 108 265 135 239 125 l 294 31 m 188 82 b 208 0 196 49 208 32 b 186 -79 208 -29 192 -57 l 268 1 m 214 -106 b 293 -133 238 -124 264 -133 b 375 -106 324 -133 351 -124 l 294 -26 m 403 -78 b 375 0 394 -58 375 -29 b 403 81 375 22 388 49 l 322 1 m 107 215 b 119 206 114 215 119 211 l 119 -207 b 107 -215 119 -211 114 -215 l 90 -215 b 78 -207 83 -215 78 -211 l 78 206 b 90 215 78 211 83 215 m 29 215 b 43 206 36 215 43 211 l 43 -207 b 29 -215 43 -211 36 -215 l 13 -215 b 0 -207 6 -215 0 -211 l 0 206 b 13 215 0 211 6 215 "},"":{"ha":346,"x_min":0,"x_max":0,"o":"m 172 174 b 346 0 268 174 346 97 b 172 -174 346 -96 268 -174 b 0 0 78 -174 0 -96 b 172 174 0 97 78 174 m 281 -76 b 260 0 272 -56 260 -25 b 281 81 260 31 267 49 l 201 1 l 271 -67 m 253 108 b 172 135 229 125 203 135 b 96 108 144 135 117 125 l 174 31 m 65 82 b 83 0 75 49 83 32 b 65 -79 83 -29 71 -57 l 146 1 m 93 -107 b 172 -133 115 -124 143 -133 b 254 -107 203 -133 231 -124 l 174 -26 "},"":{"ha":347,"x_min":0,"x_max":0,"o":"m 261 -47 b 293 40 278 -25 293 10 b 281 81 293 56 289 68 l 207 7 m 253 108 b 213 119 240 117 228 119 b 126 89 182 119 147 106 l 179 36 m 86 50 b 54 -40 69 26 54 -8 b 65 -79 54 -56 57 -68 l 140 -6 m 93 -107 b 135 -119 106 -117 118 -119 b 222 -86 165 -119 199 -104 l 168 -32 m 172 174 b 347 0 268 174 347 97 b 172 -174 347 -96 268 -174 b 0 0 78 -174 0 -96 b 172 174 0 97 78 174 "},"":{"ha":346,"x_min":0,"x_max":0,"o":"m 172 174 b 346 0 268 174 346 96 b 172 -174 346 -96 268 -174 b 0 0 78 -174 0 -96 b 172 174 0 96 78 174 m 306 0 b 281 81 306 29 296 58 l 201 1 l 282 -79 b 306 0 297 -57 306 -29 m 251 108 b 172 133 229 124 203 133 b 94 108 143 133 117 124 l 174 29 l 251 108 m 39 0 b 65 -81 39 -29 47 -58 l 146 1 l 67 81 b 39 0 49 58 39 31 m 92 -107 b 172 -133 115 -124 143 -133 b 253 -107 203 -133 231 -124 l 174 -26 l 92 -107 "},"":{"ha":829,"x_min":0,"x_max":0,"o":"m 829 -206 b 815 -214 829 -210 824 -214 l 799 -214 b 783 -206 792 -214 783 -210 l 783 204 b 799 214 783 208 792 214 l 815 214 b 829 204 824 214 829 208 m 749 -206 b 736 -214 749 -210 743 -214 l 718 -214 b 706 -206 711 -214 706 -210 l 706 204 b 718 214 706 208 711 214 l 736 214 b 749 204 743 214 749 208 m 419 174 b 704 0 549 174 704 99 b 406 -174 704 -96 632 -174 b 124 0 203 -174 124 -90 b 419 174 124 94 238 174 m 122 -206 b 110 -214 122 -210 115 -214 l 92 -214 b 79 -206 85 -214 79 -210 l 79 204 b 92 214 79 208 85 214 l 110 214 b 122 204 115 214 122 208 m 43 -206 b 31 -214 43 -210 38 -214 l 13 -214 b 0 -206 6 -214 0 -210 l 0 204 b 13 214 0 208 6 214 l 31 214 b 43 204 38 214 43 208 m 500 86 b 385 140 469 118 429 140 b 338 136 369 140 351 139 l 428 31 m 456 0 l 540 -100 b 551 -69 546 -92 549 -82 b 554 -46 553 -61 554 -54 b 524 53 554 -14 543 21 m 350 -100 b 414 -137 368 -117 390 -129 b 451 -142 426 -140 439 -142 b 493 -137 465 -142 479 -140 l 513 -129 l 424 -25 l 338 -90 m 276 86 b 271 51 272 74 271 63 b 311 -60 271 13 289 -28 l 397 6 l 299 118 b 276 86 289 111 282 100 "},"":{"ha":583,"x_min":0,"x_max":0,"o":"m 379 86 b 263 142 349 119 308 142 b 215 138 247 142 232 140 l 307 32 m 333 0 l 419 -100 b 431 -69 426 -90 429 -81 b 433 -44 432 -62 433 -53 b 403 53 433 -11 422 22 m 226 -100 b 290 -136 246 -117 268 -129 b 329 -142 303 -140 315 -142 b 371 -136 343 -142 357 -140 b 390 -129 378 -135 385 -132 l 301 -24 l 215 -90 m 299 174 b 583 1 428 174 583 100 b 285 -174 583 -94 513 -174 b 0 1 78 -174 0 -90 b 299 174 0 96 114 174 m 154 88 b 147 51 150 76 147 64 b 189 -60 147 13 167 -29 l 274 7 l 175 121 b 154 88 165 113 158 101 "},"":{"ha":408,"x_min":0,"x_max":0,"o":"m 257 -67 b 358 61 332 -22 358 14 b 356 88 358 69 357 78 l 225 -3 m 329 115 b 299 121 321 119 311 121 b 182 81 274 121 236 111 l 207 31 m 67 -110 b 117 -125 78 -118 94 -125 b 224 -87 143 -125 176 -115 l 193 -25 m 149 63 b 40 -58 67 14 40 -28 b 46 -82 40 -67 43 -75 l 175 10 m 135 -174 b 0 -58 58 -174 0 -132 b 272 174 0 14 65 174 b 408 57 351 174 408 128 b 135 -174 408 13 364 -174 "},"":{"ha":401,"x_min":0,"x_max":0,"o":"m 361 142 b 401 51 386 119 401 88 b 351 -78 401 29 392 -26 b 271 -146 329 -107 303 -129 b 138 -174 233 -164 188 -174 b 42 -142 100 -174 65 -162 b 0 -51 14 -119 0 -89 b 57 88 0 -18 14 39 b 263 174 90 126 153 174 b 361 142 301 174 336 163 m 263 139 b 151 117 221 139 183 132 l 124 103 l 193 32 l 296 136 b 263 139 286 138 274 139 m 35 -51 b 54 -107 35 -74 42 -93 l 169 8 l 97 81 l 82 64 b 35 -51 49 26 35 -22 m 256 -114 b 278 -100 263 -110 271 -106 l 193 -17 l 82 -126 b 138 -139 99 -135 117 -139 b 256 -114 182 -139 222 -131 m 358 7 b 367 51 364 26 367 44 b 339 114 367 78 357 99 l 329 121 l 218 8 l 306 -79 l 324 -57 b 358 7 343 -33 353 -8 "},"":{"ha":435,"x_min":0,"x_max":0,"o":"m 0 -174 l 0 174 l 435 174 l 435 -174 m 396 -133 l 396 135 l 39 135 l 39 -133 "},"":{"ha":435,"x_min":0,"x_max":0,"o":"m 0 -174 l 0 174 l 435 174 l 435 -174 "},"":{"ha":671,"x_min":0,"x_max":0,"o":"m 671 -206 b 657 -215 671 -211 665 -215 l 639 -215 b 625 -206 632 -215 625 -211 l 625 206 b 639 215 625 210 632 215 l 657 215 b 671 206 665 215 671 210 m 597 -206 b 583 -215 597 -211 592 -215 l 567 -215 b 553 -206 560 -215 553 -211 l 553 -168 b 542 -174 550 -171 546 -174 l 129 -174 b 118 -168 125 -174 121 -171 l 118 -206 b 104 -215 118 -211 113 -215 l 88 -215 b 74 -206 81 -215 74 -211 l 74 206 b 88 215 74 210 81 215 l 104 215 b 118 206 113 215 118 210 l 118 -149 l 322 167 b 333 174 325 171 329 174 b 344 167 339 174 342 171 l 553 -149 l 553 206 b 567 215 553 210 560 215 l 583 215 b 597 206 592 215 597 210 m 413 -94 b 333 103 413 -17 364 51 b 256 -93 304 53 256 -17 b 279 -132 256 -106 265 -132 l 392 -132 b 413 -94 404 -132 413 -107 m 31 215 b 44 206 39 215 44 210 l 44 -206 b 31 -215 44 -211 39 -215 l 14 -215 b 0 -206 7 -215 0 -211 l 0 206 b 14 215 0 210 7 215 l 31 215 "},"":{"ha":443,"x_min":0,"x_max":0,"o":"m 14 -174 b 0 -160 6 -174 0 -167 b 1 -153 0 -157 1 -154 l 208 167 b 219 174 211 171 217 174 b 231 167 225 174 229 171 l 442 -153 b 443 -160 442 -154 443 -157 b 429 -174 443 -167 438 -174 m 278 -132 b 299 -94 290 -132 299 -107 b 219 104 299 -17 250 53 b 140 -93 190 54 140 -17 b 164 -132 140 -106 151 -132 "},"":{"ha":396,"x_min":0,"x_max":0,"o":"m 286 -36 l 224 74 l 111 -133 l 238 -133 m 207 174 b 219 167 213 174 218 168 l 394 -153 b 396 -160 396 -156 396 -157 b 382 -174 396 -167 392 -174 l 14 -174 b 0 -160 7 -174 0 -167 b 3 -151 0 -157 1 -154 l 194 167 b 207 174 197 171 203 174 "},"":{"ha":407,"x_min":0,"x_max":0,"o":"m 0 -174 l 201 174 l 407 -174 m 338 -135 l 201 96 l 68 -135 "},"":{"ha":407,"x_min":0,"x_max":0,"o":"m 0 -174 l 200 174 l 407 -174 "},"":{"ha":471,"x_min":0,"x_max":0,"o":"m 0 -174 l 0 174 l 471 -174 m 351 -133 l 39 99 l 39 -133 "},"":{"ha":471,"x_min":0,"x_max":0,"o":"m 0 -174 l 0 174 l 471 -174 "},"":{"ha":471,"x_min":0,"x_max":0,"o":"m 471 -174 l 0 -174 l 471 174 m 119 -133 l 431 -133 l 431 99 "},"":{"ha":471,"x_min":0,"x_max":0,"o":"m 471 -174 l 0 -174 l 471 174 "},"":{"ha":671,"x_min":0,"x_max":0,"o":"m 671 -206 b 657 -215 671 -210 665 -215 l 639 -215 b 625 -206 632 -215 625 -210 l 625 206 b 639 215 625 211 632 215 l 657 215 b 671 206 665 215 671 211 m 597 -206 b 583 -215 597 -210 592 -215 l 567 -215 b 553 -206 560 -215 553 -210 l 553 149 l 344 -167 b 333 -174 342 -171 339 -174 b 322 -167 329 -174 325 -171 l 118 149 l 118 -206 b 104 -215 118 -210 113 -215 l 88 -215 b 74 -206 81 -215 74 -210 l 74 206 b 88 215 74 211 81 215 l 104 215 b 118 206 113 215 118 211 l 118 168 b 129 174 121 171 125 174 l 542 174 b 553 168 546 174 550 171 l 553 206 b 567 215 553 211 560 215 l 583 215 b 597 206 592 215 597 211 m 413 94 b 392 132 413 107 404 132 l 279 132 b 256 93 265 132 256 106 b 333 -103 256 17 304 -53 b 413 94 364 -51 413 17 m 14 -215 b 0 -206 7 -215 0 -210 l 0 206 b 14 215 0 211 7 215 l 31 215 b 44 206 39 215 44 211 l 44 -206 b 31 -215 44 -210 39 -215 "},"":{"ha":443,"x_min":0,"x_max":0,"o":"m 429 174 b 443 160 438 174 443 167 b 442 153 443 157 442 154 l 231 -167 b 219 -174 229 -171 225 -174 b 208 -167 217 -174 211 -171 l 1 153 b 0 160 1 154 0 157 b 14 174 0 167 6 174 m 164 132 b 140 93 151 132 140 106 b 219 -104 140 17 190 -54 b 299 94 250 -53 299 17 b 278 132 299 107 290 132 "},"":{"ha":396,"x_min":0,"x_max":0,"o":"m 110 36 l 172 -74 l 285 133 l 158 133 m 189 -174 b 176 -167 183 -174 178 -168 l 1 153 b 0 160 0 156 0 157 b 14 174 0 167 4 174 l 382 174 b 396 160 389 174 396 167 b 393 151 396 157 394 154 l 201 -167 b 189 -174 199 -171 193 -174 "},"":{"ha":407,"x_min":0,"x_max":0,"o":"m 0 174 l 407 174 l 201 -174 m 338 135 l 68 135 l 201 -96 "},"":{"ha":406,"x_min":0,"x_max":0,"o":"m 0 174 l 406 174 l 200 -174 "},"":{"ha":471,"x_min":0,"x_max":0,"o":"m 471 174 l 471 -174 l 0 174 m 119 135 l 432 -97 l 432 135 "},"":{"ha":471,"x_min":0,"x_max":0,"o":"m 471 174 l 471 -174 l 0 174 "},"":{"ha":438,"x_min":0,"x_max":0,"o":"m 219 -174 b 49 -118 144 -174 86 -156 b 0 0 17 -89 0 -47 l 0 174 l 438 174 l 438 0 b 389 -118 438 -33 429 -81 b 219 -174 351 -156 293 -174 m 39 0 b 219 -135 39 -40 57 -135 b 361 -92 283 -135 332 -119 b 399 0 392 -62 399 -25 l 399 135 l 39 135 "},"":{"ha":438,"x_min":0,"x_max":0,"o":"m 219 -174 b 49 -118 144 -174 86 -156 b 0 0 17 -89 0 -47 l 0 174 l 438 174 l 438 0 b 389 -118 438 -33 429 -81 b 219 -174 351 -156 293 -174 "},"":{"ha":386,"x_min":0,"x_max":0,"o":"m 0 108 l 15 119 b 192 174 71 156 131 174 b 369 119 254 174 315 156 l 386 108 l 193 -174 m 193 -106 l 332 97 b 192 135 288 122 239 135 b 54 97 144 135 97 122 "},"":{"ha":386,"x_min":0,"x_max":0,"o":"m 0 108 l 15 119 b 192 174 71 156 131 174 b 369 119 254 174 315 156 l 386 108 l 193 -174 "},"":{"ha":410,"x_min":0,"x_max":0,"o":"m 43 -250 b -28 -190 13 -231 -3 -218 b -101 3 -79 -131 -101 -72 b -39 182 -101 72 -81 131 b 44 253 -17 208 1 224 l 50 243 b -26 151 8 208 -10 188 b -50 4 -43 115 -50 67 b -29 -139 -50 -54 -43 -99 b 50 -240 -14 -183 3 -204 m 360 -240 b 440 -139 407 -204 424 -183 b 461 4 454 -99 461 -54 b 438 151 461 67 453 115 b 360 243 421 188 403 208 l 365 253 b 449 182 410 224 426 208 b 511 3 490 131 511 72 b 438 -190 511 -72 489 -131 b 368 -250 414 -218 399 -231 "},"":{"ha":410,"x_min":0,"x_max":0,"o":"m 517 222 b 521 211 519 219 521 215 b 511 196 521 206 517 200 l 396 113 b 410 57 406 97 410 78 b 135 -174 410 -60 258 -174 b 38 -143 96 -174 61 -164 l -81 -226 b -92 -229 -83 -228 -87 -229 b -107 -221 -97 -229 -104 -226 b -111 -210 -110 -217 -111 -214 b -103 -194 -111 -204 -107 -197 l 13 -111 b 0 -60 4 -96 0 -79 b 274 174 0 61 122 174 b 371 143 313 174 346 163 l 489 228 b 500 232 492 231 496 232 b 517 222 506 232 511 228 "},"":{"ha":410,"x_min":0,"x_max":0,"o":"m 513 -193 b 522 -208 518 -196 522 -203 b 518 -219 522 -212 521 -217 b 501 -228 514 -225 508 -228 b 489 -225 499 -228 493 -228 l 319 -104 b 135 -174 265 -147 197 -174 b 0 -60 60 -174 0 -132 b 60 82 0 -8 22 42 l -101 197 b -110 213 -107 200 -110 207 b -107 224 -110 217 -108 221 b -90 233 -103 229 -96 233 b -78 229 -86 233 -82 232 l 89 110 b 275 174 139 149 203 174 b 410 57 354 174 410 128 b 350 -75 410 10 388 -36 l 513 -193 "},"":{"ha":406,"x_min":0,"x_max":0,"o":"m 532 214 b 536 203 535 210 536 206 b 526 188 536 197 532 190 l 397 103 b 406 57 404 89 406 74 b 132 -174 406 13 361 -174 b 28 -135 89 -174 53 -161 l -64 -194 b -74 -197 -67 -196 -71 -197 b -90 -187 -81 -197 -86 -194 b -93 -178 -92 -185 -93 -181 b -85 -161 -93 -171 -90 -165 l 7 -101 b 0 -58 3 -89 0 -75 b 271 174 0 13 63 174 b 375 135 315 174 351 158 l 506 219 b 517 222 510 222 514 222 b 532 214 524 222 529 219 m 165 61 b 40 -61 71 7 40 -32 b 44 -79 40 -67 42 -74 l 335 108 b 304 115 326 113 317 115 b 165 61 276 115 233 101 m 238 -64 b 363 61 335 0 363 35 b 358 78 363 67 361 72 l 67 -110 b 104 -119 76 -115 88 -119 b 238 -64 133 -119 175 -104 "},"":{"ha":407,"x_min":0,"x_max":0,"o":"m 518 -150 b 528 -167 524 -154 528 -160 b 524 -176 528 -169 526 -174 b 508 -186 521 -183 515 -186 b 497 -183 506 -186 501 -185 l 346 -85 b 133 -174 306 -133 239 -174 b 0 -57 58 -174 0 -131 b 67 96 0 -19 18 44 l -92 199 b -101 214 -99 201 -101 208 b -99 225 -101 217 -100 221 b -82 233 -94 231 -89 233 b -72 231 -79 233 -75 233 l 97 122 b 271 174 139 151 196 174 b 407 58 351 174 407 129 b 369 -56 407 38 399 -8 l 518 -150 m 354 89 b 306 117 344 106 332 117 b 178 69 279 117 239 104 l 307 -14 b 364 61 349 19 364 42 b 354 89 364 71 361 79 m 239 -64 b 275 -39 251 -54 264 -47 l 140 47 b 40 -61 65 0 40 -33 b 49 -89 40 -71 44 -81 b 104 -119 58 -106 75 -119 b 239 -64 133 -119 175 -104 "},"":{"ha":581,"x_min":0,"x_max":0,"o":"m 207 -81 b 226 -100 213 -87 218 -94 b 290 -136 244 -115 267 -129 b 325 -142 303 -139 315 -142 b 368 -136 339 -142 354 -139 b 429 -69 401 -128 422 -104 b 431 -46 431 -62 431 -54 b 404 49 431 -14 421 18 m 382 79 b 261 142 351 117 310 142 b 154 88 218 142 168 133 b 149 54 150 76 149 65 b 183 -50 149 18 164 -19 m 571 201 b 582 206 575 204 578 206 b 597 197 588 206 593 201 b 601 186 600 193 601 190 b 592 171 601 181 597 175 l 504 114 b 581 1 550 83 581 46 b 283 -174 581 -94 507 -174 b 108 -144 210 -174 151 -162 l 0 -215 b -11 -218 -4 -217 -7 -218 b -26 -210 -17 -218 -22 -215 b -31 -199 -29 -207 -31 -203 b -21 -183 -31 -193 -26 -187 l 71 -124 b 0 1 21 -92 0 -46 b 297 174 0 96 114 174 b 467 135 354 174 415 160 "},"":{"ha":581,"x_min":0,"x_max":0,"o":"m 149 56 b 196 -69 149 11 171 -37 b 226 -100 206 -79 215 -90 b 290 -136 244 -115 267 -129 b 325 -142 303 -139 315 -142 b 368 -136 339 -142 354 -139 b 414 -106 388 -131 404 -121 l 149 67 m 429 -69 b 431 -46 431 -61 431 -54 b 261 142 431 39 356 142 b 163 104 225 142 183 136 m 596 -179 b 606 -194 601 -182 606 -189 b 601 -206 606 -199 604 -201 b 586 -214 599 -211 593 -214 b 576 -211 583 -214 579 -214 l 474 -144 b 283 -174 428 -162 365 -174 b 0 1 79 -174 0 -90 b 72 117 0 47 26 88 l -15 175 b -25 190 -21 178 -25 185 b -21 201 -25 193 -24 197 b -6 210 -18 207 -12 210 b 4 207 -3 210 1 210 l 110 139 b 297 174 158 160 222 174 b 581 1 425 174 581 100 b 513 -124 581 -47 561 -93 "},"":{"ha":828,"x_min":0,"x_max":0,"o":"m 110 215 b 122 204 117 215 122 210 l 122 -207 b 110 -215 122 -211 117 -215 l 92 -215 b 79 -207 85 -215 79 -211 l 79 204 b 92 215 79 210 85 215 l 110 215 m 31 215 b 43 204 38 215 43 210 l 43 -207 b 31 -215 43 -211 38 -215 l 13 -215 b 0 -207 6 -215 0 -211 l 0 204 b 13 215 0 210 6 215 l 31 215 m 814 215 b 828 204 821 215 828 210 l 828 -207 b 814 -215 828 -211 821 -215 l 796 -215 b 782 -207 790 -215 782 -211 l 782 204 b 796 215 782 210 790 215 l 814 215 m 736 215 b 749 204 742 215 749 210 l 749 -207 b 736 -215 749 -211 742 -215 l 717 -215 b 704 -207 710 -215 704 -211 l 704 204 b 717 215 704 210 710 215 l 736 215 m 596 131 b 703 0 657 100 703 53 b 406 -174 703 -94 631 -174 b 272 -158 353 -174 308 -167 l 175 -244 b 161 -249 171 -247 165 -249 b 146 -243 156 -249 150 -247 b 140 -229 143 -239 140 -233 b 147 -214 140 -224 143 -218 l 228 -143 b 124 0 154 -110 124 -56 b 419 174 124 94 238 174 b 554 147 464 174 513 163 l 646 229 b 658 233 650 232 653 233 b 674 228 664 233 669 231 b 679 214 678 224 679 218 b 672 199 679 208 678 203 l 596 131 m 272 54 b 315 -65 272 13 290 -33 l 492 92 b 385 139 463 119 425 139 b 275 86 342 139 290 132 b 272 54 274 76 272 65 m 551 -69 b 554 -44 553 -62 554 -53 b 518 61 554 -8 540 29 l 343 -94 l 347 -100 b 414 -136 367 -117 389 -129 b 450 -142 426 -140 438 -142 b 490 -136 464 -142 478 -140 b 551 -69 525 -128 544 -104 "},"":{"ha":828,"x_min":0,"x_max":0,"o":"m 110 215 b 122 206 117 215 122 210 l 122 -206 b 110 -215 122 -211 117 -215 l 92 -215 b 79 -206 85 -215 79 -211 l 79 206 b 92 215 79 210 85 215 l 110 215 m 31 215 b 43 206 38 215 43 210 l 43 -206 b 31 -215 43 -211 38 -215 l 13 -215 b 0 -206 6 -215 0 -211 l 0 206 b 13 215 0 210 6 215 l 31 215 m 814 215 b 828 206 821 215 828 210 l 828 -206 b 814 -215 828 -211 821 -215 l 796 -215 b 782 -206 790 -215 782 -211 l 782 206 b 796 215 782 210 790 215 l 814 215 m 736 215 b 749 206 742 215 749 210 l 749 -206 b 736 -215 749 -211 742 -215 l 717 -215 b 704 -206 710 -215 704 -211 l 704 206 b 717 215 704 210 710 215 l 736 215 m 703 0 b 597 -144 703 -60 675 -112 l 676 -212 b 682 -228 681 -217 682 -222 b 678 -242 682 -232 681 -237 b 663 -247 674 -246 667 -247 b 649 -243 657 -247 653 -246 l 554 -158 b 406 -174 514 -168 465 -174 b 124 0 203 -174 124 -90 b 225 133 124 54 161 103 l 150 200 b 144 215 147 204 144 210 b 149 229 144 219 146 225 b 164 235 153 232 160 235 b 178 231 169 235 175 233 l 268 150 b 419 174 310 164 361 174 b 703 0 549 174 703 99 m 517 -125 b 275 86 293 72 276 86 b 272 54 274 76 272 65 b 318 -69 272 10 293 -36 b 347 -100 328 -79 338 -92 b 414 -136 367 -117 389 -129 b 450 -142 426 -140 438 -142 b 490 -136 464 -142 478 -140 m 543 -94 b 551 -69 546 -87 550 -78 b 554 -44 553 -62 554 -53 b 385 139 554 39 478 139 b 301 119 356 139 324 136 "},"":{"ha":600,"x_min":0,"x_max":0,"o":"m 586 215 b 600 207 593 215 600 211 l 600 -207 b 586 -215 600 -211 593 -215 l 571 -215 b 560 -207 564 -215 560 -211 l 560 207 b 571 215 560 211 564 215 m 514 215 b 525 207 521 215 525 211 l 525 -207 b 514 -215 525 -211 521 -215 l 499 -215 b 486 -207 492 -215 486 -211 l 486 207 b 499 215 486 211 492 215 m 482 -8 b 485 -17 485 -10 485 -12 l 485 -22 l 376 -171 b 368 -174 374 -174 371 -174 b 361 -172 365 -174 363 -174 l 118 7 b 114 14 115 10 114 11 l 113 14 l 113 -207 b 100 -215 113 -211 107 -215 l 85 -215 b 72 -207 78 -215 72 -211 l 72 207 b 85 215 72 211 78 215 l 100 215 b 113 207 107 215 113 211 l 113 17 b 114 21 113 18 113 19 l 224 169 b 232 174 225 172 228 174 b 238 172 233 174 235 172 m 369 -106 b 376 -108 372 -107 375 -108 b 424 -44 378 -108 379 -107 b 421 -37 424 -40 422 -37 l 228 106 b 221 108 225 107 221 108 b 172 44 219 108 218 108 b 176 38 172 42 175 38 m 28 215 b 39 207 35 215 39 211 l 39 -207 b 28 -215 39 -211 35 -215 l 11 -215 b 0 -207 4 -215 0 -211 l 0 207 b 11 215 0 211 4 215 "},"":{"ha":375,"x_min":0,"x_max":0,"o":"m 258 -104 b 265 -107 261 -106 263 -107 b 313 -44 267 -107 268 -107 b 308 -36 313 -40 311 -37 l 114 107 b 108 108 113 107 111 108 b 106 107 107 108 106 108 l 60 46 b 64 39 60 43 63 40 m 263 -169 b 254 -174 261 -172 258 -174 b 249 -172 253 -174 251 -172 l 4 7 b 0 17 3 10 0 15 b 3 22 0 18 1 19 l 111 171 b 118 174 113 174 115 174 b 125 172 121 174 124 174 l 369 -7 b 375 -15 372 -8 375 -12 b 372 -22 375 -18 374 -19 "},"":{"ha":349,"x_min":0,"x_max":0,"o":"m 249 47 b 207 71 238 63 222 71 b 146 46 186 71 165 60 b 85 -24 115 24 85 1 b 93 -49 85 -31 86 -42 b 133 -68 104 -61 117 -68 b 197 -42 153 -68 176 -57 b 257 25 226 -22 257 0 b 249 47 257 32 254 39 m 182 -171 b 174 -174 179 -174 176 -174 b 168 -171 172 -174 169 -174 l 4 -7 b 0 0 1 -6 0 -3 b 4 7 0 3 1 4 l 168 171 b 174 174 169 172 172 174 b 182 171 176 174 179 172 l 346 7 b 349 0 347 4 349 3 b 346 -7 349 -3 347 -6 "},"":{"ha":488,"x_min":0,"x_max":0,"o":"m 347 46 b 288 69 332 61 311 69 b 204 44 261 69 231 58 b 118 -25 161 22 118 0 b 131 -47 118 -32 122 -40 b 186 -69 144 -64 164 -69 b 276 -43 214 -69 247 -58 b 360 24 317 -24 360 -1 b 347 46 360 31 356 38 m 254 -171 b 243 -174 251 -172 247 -174 b 233 -171 240 -174 236 -172 l 6 -8 b 0 -1 1 -6 0 -4 b 6 6 0 1 1 3 l 235 171 b 243 174 236 172 240 174 b 253 171 247 174 251 172 l 485 6 b 488 -1 486 3 488 1 b 485 -8 488 -4 486 -7 "},"":{"ha":347,"x_min":0,"x_max":0,"o":"m 181 -171 b 174 -174 178 -174 175 -174 b 167 -171 171 -174 169 -174 l 4 -7 b 0 1 1 -4 0 -1 b 3 8 0 4 0 6 l 165 171 b 174 174 167 172 171 174 b 182 171 178 174 181 172 l 344 8 b 347 1 346 7 347 4 b 344 -6 347 -1 346 -4 "},"":{"ha":486,"x_min":0,"x_max":0,"o":"m 254 -169 b 242 -174 250 -172 246 -174 b 232 -169 239 -174 235 -172 l 4 -6 b 0 1 0 -6 0 -1 b 4 8 0 4 0 6 l 229 169 b 242 174 233 172 239 174 b 256 169 246 174 251 172 l 482 8 b 486 1 485 6 486 4 b 482 -6 486 -1 485 -4 "},"":{"ha":347,"x_min":0,"x_max":0,"o":"m 50 1 l 174 -121 l 297 1 l 174 125 m 174 174 b 183 169 178 174 182 171 l 344 8 b 347 1 346 7 347 4 b 344 -6 347 -1 346 -4 l 181 -171 b 174 -174 179 -172 176 -174 b 167 -171 171 -174 168 -172 l 3 -6 b 0 1 1 -4 0 -1 b 3 8 0 4 1 7 l 164 169 b 174 174 165 171 169 174 "},"":{"ha":486,"x_min":0,"x_max":0,"o":"m 61 0 l 242 -131 l 424 0 l 242 129 m 243 174 b 258 168 250 174 254 171 l 482 7 b 486 0 485 4 486 3 b 482 -7 486 -3 485 -6 l 254 -169 b 242 -174 250 -172 246 -174 b 232 -169 239 -174 236 -172 l 7 -8 b 0 0 3 -6 0 -3 b 6 8 0 3 1 6 l 226 167 b 243 174 232 171 238 174 "},"":{"ha":625,"x_min":0,"x_max":0,"o":"m 256 -14 b 307 -131 256 -43 290 -131 b 361 10 329 -131 361 -29 b 310 117 361 51 331 117 b 256 -14 286 117 256 22 m 42 -207 b 29 -215 42 -212 36 -215 l 13 -215 b 0 -207 4 -215 0 -212 l 0 206 b 13 215 0 210 4 215 l 29 215 b 42 206 36 215 42 210 m 117 -207 b 106 -215 117 -212 111 -215 l 89 -215 b 76 -207 81 -215 76 -212 l 76 206 b 89 215 76 210 81 215 l 106 215 b 117 206 111 215 117 210 m 547 -207 b 535 -215 547 -212 542 -215 l 517 -215 b 506 -207 511 -215 506 -212 l 506 206 b 517 215 506 210 511 215 l 535 215 b 547 206 542 215 547 210 m 625 -207 b 611 -215 625 -212 618 -215 l 593 -215 b 581 -207 588 -215 581 -212 l 581 206 b 593 215 581 210 588 215 l 611 215 b 625 206 618 215 625 210 m 472 18 b 492 -3 486 10 492 4 b 474 -19 492 -7 486 -14 b 404 -71 454 -31 417 -58 b 328 -156 393 -85 333 -144 b 311 -174 322 -165 317 -174 b 293 -156 306 -174 300 -165 b 149 -15 260 -103 204 -46 b 135 0 139 -11 135 -4 b 149 17 135 4 139 11 b 224 67 178 32 200 47 b 293 150 251 90 276 117 b 313 174 301 165 307 174 b 335 150 319 174 325 165 b 411 58 354 115 381 82 "},"":{"ha":407,"x_min":0,"x_max":0,"o":"m 149 -14 b 200 -131 149 -43 182 -131 b 254 10 221 -131 254 -29 b 201 117 254 51 221 117 b 149 -14 179 117 149 22 m 183 150 b 203 174 192 165 199 174 b 225 150 210 174 215 165 b 386 18 261 86 325 61 b 407 -3 400 10 407 4 b 388 -19 407 -8 401 -14 b 218 -156 340 -46 242 -108 b 200 -174 213 -167 207 -174 b 183 -156 196 -174 190 -167 b 14 -15 151 -103 69 -46 b 0 0 4 -11 0 -6 b 14 17 0 4 4 11 b 183 150 72 46 154 93 "},"":{"ha":404,"x_min":0,"x_max":0,"o":"m 181 149 b 203 174 190 167 196 174 b 228 149 210 174 217 165 b 314 57 250 115 281 82 b 382 17 326 50 360 32 b 404 -4 399 8 404 3 b 385 -21 404 -8 399 -14 b 308 -72 363 -32 321 -58 b 219 -157 293 -85 226 -146 b 200 -174 213 -168 207 -174 b 181 -157 193 -174 188 -168 b 17 -17 143 -104 81 -47 b 0 -1 6 -12 0 -7 b 17 17 0 4 6 10 b 56 36 31 22 44 28 b 103 67 72 46 86 56 b 181 149 135 90 163 118 m 249 26 b 185 63 226 47 206 63 b 149 47 174 63 161 58 b 131 14 136 35 131 24 b 171 -42 131 -4 149 -22 b 222 -72 190 -60 206 -72 b 260 -53 233 -72 246 -65 b 281 -18 274 -40 281 -28 b 249 26 281 -4 269 10 "},"":{"ha":403,"x_min":0,"x_max":0,"o":"m 178 149 b 203 174 189 165 196 174 b 226 149 208 174 217 165 b 313 57 250 115 278 82 l 382 17 b 403 -4 396 7 403 1 b 382 -24 403 -11 396 -17 b 306 -74 361 -35 319 -60 b 218 -158 290 -86 226 -146 b 199 -174 211 -169 207 -174 b 178 -158 193 -174 186 -169 b 15 -18 143 -106 79 -49 b 0 -1 6 -14 0 -6 b 17 17 0 6 6 10 l 56 36 b 101 67 71 46 86 56 b 178 149 132 90 161 118 "},"":{"ha":401,"x_min":0,"x_max":0,"o":"m 179 149 b 201 174 189 165 196 174 b 225 149 210 174 217 165 b 313 57 249 115 278 82 l 382 15 b 401 -6 394 7 401 1 b 382 -22 401 -11 394 -15 b 304 -72 361 -33 318 -58 b 218 -158 292 -86 225 -146 b 200 -174 211 -168 207 -174 b 179 -158 193 -174 186 -168 b 17 -17 143 -104 79 -47 b 0 -1 7 -12 0 -6 b 18 15 0 6 7 10 b 57 36 31 22 44 28 b 101 67 71 46 88 56 b 179 149 133 90 161 117 m 200 -71 b 228 -79 210 -76 219 -79 b 275 -56 240 -79 256 -72 b 300 -14 292 -40 300 -26 b 258 46 300 6 282 24 b 200 86 239 64 221 78 l 200 -71 "},"":{"ha":474,"x_min":0,"x_max":0,"o":"m 238 232 b 475 -3 368 232 475 126 b 238 -237 475 -132 368 -237 b 0 -3 108 -237 0 -132 b 238 232 0 126 108 232 m 238 213 b 19 -3 118 213 19 115 b 29 -64 19 -24 24 -43 l 29 -57 b 303 174 29 63 151 174 b 388 154 335 174 365 168 b 238 213 349 190 296 213 m 238 -218 b 456 -3 358 -218 456 -121 b 436 85 456 28 449 58 b 439 58 439 76 439 68 b 164 -174 439 -58 288 -174 b 83 -153 132 -174 106 -165 b 238 -218 122 -193 176 -218 "},"":{"ha":457,"x_min":0,"x_max":0,"o":"m 229 232 b 457 3 354 232 457 129 b 229 -225 457 -122 354 -225 b 0 3 103 -225 0 -122 b 229 232 0 129 103 232 m 74 -89 b 129 -121 83 -106 100 -121 b 264 -64 158 -121 201 -106 b 389 60 361 -1 389 32 b 381 86 389 69 386 78 b 331 115 371 103 357 115 b 192 61 303 115 260 101 b 65 -61 96 7 65 -32 b 74 -89 65 -71 69 -81 m 229 213 b 19 3 114 213 19 118 b 25 -50 19 -15 21 -33 b 296 174 31 25 99 174 b 375 154 326 174 354 167 b 229 213 338 190 286 213 m 229 -207 b 439 3 346 -207 439 -112 b 432 54 439 21 436 39 b 158 -174 431 7 383 -174 b 106 -165 140 -174 122 -172 b 229 -207 140 -192 183 -207 "},"":{"ha":607,"x_min":0,"x_max":0,"o":"m 517 206 b 607 -10 575 149 607 71 b 517 -224 607 -90 575 -167 b 303 -312 460 -281 385 -312 b 89 -224 222 -312 147 -281 b 0 -10 32 -167 0 -90 b 89 206 0 71 32 149 b 303 293 147 263 222 293 b 517 206 385 293 460 263 m 110 185 b 46 85 81 157 58 122 b 310 174 92 138 183 174 b 567 71 406 174 517 132 b 497 185 553 114 531 153 b 303 265 446 236 376 265 b 110 185 231 265 161 236 m 440 -69 b 443 -46 442 -61 443 -54 b 274 140 443 38 368 140 b 167 88 231 140 181 133 b 161 53 163 76 161 64 b 210 -71 161 11 182 -39 b 238 -100 218 -81 226 -90 b 303 -136 257 -117 278 -129 b 338 -142 314 -140 325 -142 b 379 -136 351 -142 365 -140 b 440 -69 414 -128 433 -104 m 497 -203 b 567 -83 532 -169 554 -129 b 294 -174 531 -137 447 -174 b 39 -83 158 -174 78 -136 b 110 -203 51 -128 75 -169 b 303 -283 161 -254 231 -283 b 497 -203 376 -283 446 -254 "},"":{"ha":838,"x_min":0,"x_max":0,"o":"m 31 215 b 43 206 39 215 43 211 l 43 -207 b 31 -215 43 -212 39 -215 l 13 -215 b 0 -207 6 -215 0 -212 l 0 206 b 13 215 0 211 6 215 l 31 215 m 822 215 b 838 206 831 215 838 211 l 838 -207 b 822 -215 838 -212 831 -215 l 806 -215 b 790 -207 799 -215 790 -212 l 790 206 b 806 215 790 211 799 215 l 822 215 m 743 215 b 757 206 750 215 757 211 l 757 -207 b 743 -215 757 -212 750 -215 l 725 -215 b 711 -207 718 -215 711 -212 l 711 -64 b 631 -215 700 -121 672 -174 b 419 -303 574 -272 499 -303 b 207 -215 339 -303 264 -272 b 124 -54 163 -169 135 -115 l 124 -207 b 111 -215 124 -212 118 -215 l 93 -215 b 81 -207 86 -215 81 -212 l 81 206 b 93 215 81 211 86 215 l 111 215 b 124 206 118 215 124 211 l 124 46 b 207 208 135 107 163 164 b 419 296 264 264 339 296 b 631 208 499 296 574 264 b 711 57 672 167 700 114 l 711 206 b 725 215 711 211 718 215 l 743 215 m 419 264 b 169 96 307 264 210 196 b 424 174 219 143 308 174 b 674 82 515 174 618 138 b 419 264 638 188 536 264 m 560 -44 b 389 140 560 40 483 140 b 279 88 344 140 294 135 b 275 56 276 76 275 67 b 322 -71 275 10 296 -37 l 351 -101 b 418 -137 371 -118 393 -131 b 456 -143 431 -142 442 -143 b 496 -137 469 -143 483 -142 b 557 -71 531 -129 551 -104 b 560 -44 558 -62 560 -54 m 419 -272 b 667 -106 531 -272 628 -203 b 410 -174 624 -147 543 -174 b 169 -104 290 -174 214 -146 b 419 -272 210 -201 307 -272 "},"":{"ha":576,"x_min":0,"x_max":0,"o":"m 288 -287 b 85 -204 211 -287 139 -258 b 0 0 31 -150 0 -78 b 85 203 0 76 31 149 b 288 286 139 257 211 286 b 492 203 365 286 438 257 b 576 0 546 149 576 76 b 492 -204 576 -78 546 -150 b 288 -287 438 -258 365 -287 m 288 253 b 35 0 149 253 35 140 b 288 -253 35 -140 149 -253 b 542 0 428 -253 542 -140 b 288 253 542 140 428 253 m 218 -174 b 83 -58 142 -174 83 -132 b 357 174 83 61 206 174 b 493 58 438 174 493 129 b 218 -174 493 -61 342 -174 "},"":{"ha":560,"x_min":0,"x_max":0,"o":"m 210 -174 b 75 -58 135 -174 75 -131 b 349 174 75 14 140 174 b 485 58 429 174 485 129 b 210 -174 485 14 440 -174 m 315 -64 b 440 60 413 0 440 32 b 432 88 440 69 438 79 b 383 117 424 104 410 117 b 243 63 354 117 311 101 b 117 -61 147 7 117 -31 b 125 -89 117 -71 119 -81 b 181 -121 135 -106 151 -121 b 315 -64 210 -121 253 -106 m 281 -281 b 83 -199 206 -281 136 -251 b 0 0 31 -146 0 -75 b 83 199 0 75 31 146 b 281 281 136 251 206 281 b 478 199 356 281 425 251 b 560 0 531 146 560 75 b 478 -199 560 -75 531 -146 b 281 -281 425 -251 356 -281 m 281 246 b 33 0 144 246 33 136 b 281 -246 33 -136 144 -246 b 526 0 415 -246 526 -136 b 281 246 526 136 415 246 "},"":{"ha":751,"x_min":0,"x_max":0,"o":"m 82 0 b 382 174 82 94 197 174 b 669 0 511 174 669 99 b 368 -174 669 -97 594 -174 b 82 0 161 -174 82 -93 m 347 140 b 238 86 303 140 253 133 b 232 53 233 75 232 64 b 281 -72 232 8 254 -39 b 310 -103 289 -83 299 -93 b 376 -139 329 -119 351 -132 b 411 -146 388 -143 399 -146 b 453 -139 425 -146 440 -143 b 515 -72 488 -131 508 -107 b 517 -46 515 -64 517 -56 b 347 140 517 38 442 140 m 376 -281 b 113 -222 264 -281 175 -260 b 0 -1 38 -175 0 -101 b 31 133 0 49 10 94 b 113 226 49 169 76 201 b 376 293 176 271 267 293 b 639 225 483 293 575 271 b 721 133 674 201 701 169 b 751 -1 740 94 751 49 b 638 -222 751 -101 713 -175 b 376 -281 575 -260 488 -281 m 376 260 b 132 197 274 260 190 238 b 33 -1 67 153 33 86 b 60 -118 33 -46 42 -86 b 131 -193 76 -147 100 -174 b 376 -247 189 -229 271 -247 b 619 -193 481 -247 563 -229 b 692 -118 651 -174 675 -147 b 718 -1 710 -86 718 -46 b 619 197 718 86 685 153 b 376 260 561 238 478 260 "},"":{"ha":769,"x_min":0,"x_max":0,"o":"m 665 -175 b 708 -121 682 -158 697 -142 b 735 -1 725 -89 735 -47 b 665 178 735 74 711 133 m 146 -204 b 385 -253 204 -236 285 -253 b 624 -203 486 -253 568 -236 b 589 -174 622 -190 607 -174 b 178 -172 483 -174 265 -172 b 146 -204 167 -172 151 -190 m 106 178 b 35 -1 58 133 35 74 b 61 -121 35 -47 44 -89 b 106 -175 74 -142 86 -158 m 589 174 b 624 208 603 174 622 185 b 385 265 565 246 483 265 b 144 208 286 265 204 246 b 174 174 146 185 163 174 m 144 -17 b 233 -68 144 -47 178 -68 l 542 -68 b 625 -17 590 -68 625 -53 l 625 18 b 542 63 625 44 592 63 l 226 63 b 144 22 168 63 144 57 m 665 224 b 738 136 696 199 721 169 b 769 -1 758 96 769 50 b 665 -219 769 -99 735 -171 l 665 -235 b 646 -254 665 -244 657 -254 b 626 -242 636 -254 631 -249 b 385 -287 565 -271 485 -287 b 143 -242 286 -287 204 -271 b 125 -254 140 -249 132 -254 b 106 -235 114 -254 106 -244 l 106 -219 b 0 -1 36 -171 0 -99 b 32 136 0 50 11 96 b 106 224 49 169 74 199 l 106 246 b 125 265 106 257 114 265 b 144 247 135 265 143 258 b 385 300 208 282 289 300 b 625 247 479 300 563 282 b 646 265 626 258 635 265 b 665 246 657 265 665 257 "},"":{"ha":635,"x_min":0,"x_max":0,"o":"m 317 -317 b 93 -225 233 -317 153 -285 b 0 0 33 -165 0 -85 b 93 225 0 85 33 165 b 317 317 153 285 233 317 b 542 225 401 317 482 285 b 635 0 601 165 635 85 b 542 -225 635 -85 601 -165 b 317 -317 482 -285 401 -317 m 317 279 b 38 0 164 279 38 154 b 317 -279 38 -154 164 -279 b 596 0 471 -279 596 -154 b 317 279 596 154 471 279 m 511 -137 b 519 -154 515 -142 519 -149 b 514 -167 519 -158 518 -162 b 501 -174 511 -171 507 -174 b 492 -171 497 -174 494 -172 l 315 -25 l 143 -171 b 133 -174 142 -172 138 -174 b 118 -167 129 -174 122 -171 b 115 -156 117 -162 115 -160 b 122 -137 115 -150 118 -143 l 289 0 l 122 139 b 115 156 118 143 115 150 b 118 168 115 160 117 164 b 132 174 122 171 128 174 b 143 169 136 174 140 172 l 315 25 l 492 169 b 501 174 494 172 497 174 b 514 168 507 174 511 171 b 519 156 518 164 519 158 b 511 139 519 149 515 143 l 347 0 l 511 -137 "},"":{"ha":764,"x_min":0,"x_max":0,"o":"m 765 -203 b 750 -215 765 -210 758 -215 l 728 -215 b 713 -203 721 -215 713 -210 l 713 381 b 728 396 713 389 721 396 l 750 396 b 765 381 758 396 765 389 m 682 -203 b 665 -215 682 -210 675 -215 l 646 -215 b 629 -203 638 -215 629 -210 l 629 -164 b 618 -174 626 -168 622 -174 l 147 -174 b 136 -164 143 -174 139 -168 l 136 -203 b 119 -215 136 -210 129 -215 l 99 -215 b 83 -203 92 -215 83 -210 l 83 381 b 99 396 83 389 92 396 l 119 396 b 136 381 129 396 136 389 l 136 -136 l 367 339 b 379 347 369 344 375 347 b 394 339 386 347 392 344 l 629 -136 l 629 381 b 646 396 629 389 638 396 l 665 396 b 682 381 675 396 682 389 m 471 -54 b 379 243 471 64 413 168 b 292 -53 347 168 292 64 b 317 -111 292 -71 301 -111 l 446 -111 b 471 -54 460 -111 471 -72 m 35 396 b 51 381 44 396 51 389 l 51 -203 b 35 -215 51 -210 44 -215 l 15 -215 b 0 -203 8 -215 0 -210 l 0 381 b 15 396 0 389 8 396 l 35 396 "},"":{"ha":500,"x_min":0,"x_max":0,"o":"m 15 -174 b 0 -153 7 -174 0 -164 b 1 -142 0 -150 1 -144 l 235 338 b 247 347 238 343 243 347 b 261 338 254 347 258 343 l 497 -142 b 500 -153 499 -146 500 -150 b 485 -174 500 -164 493 -174 m 314 -111 b 338 -56 328 -111 338 -74 b 247 243 338 63 282 165 b 158 -53 215 168 158 63 b 185 -111 158 -71 169 -111 "},"":{"ha":500,"x_min":0,"x_max":0,"o":"m 360 32 l 282 196 l 140 -114 l 300 -114 m 263 347 b 276 335 268 347 275 339 l 499 -144 b 500 -154 500 -147 500 -150 b 482 -174 500 -164 493 -174 l 18 -174 b 0 -154 8 -174 0 -164 b 3 -142 0 -150 1 -146 l 246 338 b 263 347 249 343 256 347 "},"":{"ha":461,"x_min":0,"x_max":0,"o":"m 0 -174 l 228 347 l 461 -174 "},"":{"ha":765,"x_min":0,"x_max":0,"o":"m 765 -207 b 750 -222 765 -215 758 -222 l 728 -222 b 713 -207 721 -222 713 -215 l 713 376 b 728 389 713 383 721 389 l 750 389 b 765 376 758 389 765 383 m 682 -207 b 665 -222 682 -215 675 -222 l 646 -222 b 629 -207 638 -222 629 -215 l 629 310 l 394 -165 b 379 -174 392 -171 386 -174 b 367 -165 375 -174 369 -171 l 136 310 l 136 -207 b 119 -222 136 -215 129 -222 l 99 -222 b 83 -207 92 -222 83 -215 l 83 376 b 99 389 83 383 92 389 l 119 389 b 136 376 129 389 136 383 l 136 338 b 147 347 139 342 143 347 l 618 347 b 629 338 622 347 626 342 l 629 376 b 646 389 629 383 638 389 l 665 389 b 682 376 675 389 682 383 m 471 228 b 446 285 471 246 460 285 l 317 285 b 292 226 301 285 292 244 b 379 -69 292 110 347 6 b 471 228 413 6 471 110 m 15 -222 b 0 -207 8 -222 0 -215 l 0 376 b 15 389 0 383 8 389 l 35 389 b 51 376 44 389 51 383 l 51 -207 b 35 -222 51 -215 44 -222 "},"":{"ha":500,"x_min":0,"x_max":0,"o":"m 485 347 b 500 326 493 347 500 338 b 497 315 500 324 499 319 l 261 -164 b 247 -174 258 -169 254 -174 b 235 -164 243 -174 238 -169 l 1 315 b 0 326 1 318 0 324 b 15 347 0 338 7 347 m 185 285 b 158 226 169 285 158 244 b 247 -69 158 111 215 6 b 338 229 282 8 338 111 b 314 285 338 247 328 285 "},"":{"ha":500,"x_min":0,"x_max":0,"o":"m 300 288 l 140 288 l 282 -22 l 360 142 m 263 -174 b 246 -164 256 -174 249 -169 l 3 315 b 0 328 1 319 0 324 b 18 347 0 338 8 347 l 482 347 b 500 328 493 347 500 338 b 499 318 500 324 500 321 l 276 -161 b 263 -174 275 -165 268 -174 "},"":{"ha":461,"x_min":0,"x_max":0,"o":"m 461 347 l 228 -174 l 0 347 "},"":{"ha":101,"x_min":0,"x_max":0,"o":"m 144 -251 b 74 -192 114 -232 99 -219 b 0 1 22 -132 0 -74 b 63 181 0 71 21 129 b 146 251 85 207 103 222 l 151 242 b 75 150 110 207 92 186 b 51 3 58 114 51 65 b 72 -140 51 -56 58 -100 b 151 -242 88 -185 104 -206 "},"":{"ha":101,"x_min":0,"x_max":0,"o":"m -50 -242 b 31 -140 -3 -206 14 -185 b 51 3 44 -100 51 -56 b 28 150 51 65 43 114 b -50 242 11 186 -7 207 l -44 251 b 39 181 0 222 17 207 b 101 1 81 129 101 71 b 28 -192 101 -74 79 -132 b -42 -251 4 -219 -11 -232 "},"":{"ha":347,"x_min":0,"x_max":0,"o":"m 174 174 b 347 0 269 174 347 96 b 174 -174 347 -96 269 -174 b 0 0 78 -174 0 -96 b 174 174 0 96 78 174 m 174 129 b 44 0 103 129 44 72 b 68 -74 44 -28 53 -53 l 249 107 b 174 129 228 121 201 129 m 174 -129 b 303 0 244 -129 303 -72 b 279 74 303 28 294 53 l 99 -107 b 174 -129 119 -121 146 -129 "},"":{"ha":535,"x_min":0,"x_max":0,"o":"m 526 -135 b 535 -151 532 -139 535 -144 b 513 -174 535 -164 526 -172 l 431 -174 b 417 -171 425 -174 419 -174 l 267 -58 l 117 -171 b 106 -174 114 -174 110 -174 l 22 -174 b 1 -160 13 -174 4 -168 b 0 -151 0 -157 0 -154 b 8 -135 0 -144 4 -139 l 189 0 l 8 135 b 0 151 4 140 0 146 b 1 160 0 154 0 157 b 22 174 4 168 13 174 l 106 174 b 117 171 110 174 114 174 l 267 60 l 417 171 b 431 174 419 174 425 174 l 513 174 b 535 153 524 174 535 165 b 526 135 535 147 532 140 l 346 0 l 526 -135 "},"":{"ha":535,"x_min":0,"x_max":0,"o":"m 624 126 b 635 106 632 121 635 113 b 632 92 635 100 633 96 b 611 81 626 85 619 81 b 597 85 606 81 600 82 l 524 133 l 346 0 l 526 -135 b 535 -151 532 -139 535 -144 b 513 -174 535 -164 526 -172 l 431 -174 b 417 -171 425 -174 419 -174 l 267 -58 l 118 -171 b 106 -174 115 -174 110 -174 l 22 -174 b 1 -160 13 -174 4 -168 b 0 -151 0 -157 0 -154 b 8 -135 0 -144 4 -139 l 189 0 l 10 133 l -64 85 b -76 81 -67 82 -72 81 b -97 92 -85 81 -92 85 b -101 106 -100 96 -101 100 b -90 126 -101 113 -97 121 l 253 357 b 267 361 257 360 263 361 b 281 357 272 361 275 360 l 624 126 m 464 174 l 267 307 l 72 174 l 106 174 b 118 171 110 174 115 174 l 267 58 l 417 171 b 431 174 419 174 425 174 "},"":{"ha":586,"x_min":0,"x_max":0,"o":"m 300 174 b 586 3 429 174 586 101 b 286 -174 586 -94 514 -174 b 0 3 79 -174 0 -90 b 300 174 0 97 115 174 "},"":{"ha":410,"x_min":0,"x_max":0,"o":"m 135 -174 b 0 -58 58 -174 0 -132 b 272 174 0 14 65 174 b 410 58 353 174 410 129 b 135 -174 410 13 364 -174 "},"":{"ha":400,"x_min":0,"x_max":0,"o":"m 208 -172 b 199 -174 206 -174 203 -174 b 189 -171 196 -174 192 -174 l 4 0 b 0 8 1 3 0 6 b 4 17 0 11 1 14 l 190 172 b 199 174 193 174 197 174 b 208 171 203 174 206 174 l 397 0 b 400 -7 399 -3 400 -6 b 396 -17 400 -11 399 -14 l 365 -42 b 356 -44 363 -43 360 -44 b 346 -40 353 -44 349 -43 l 190 101 b 181 106 188 104 185 106 b 172 103 176 106 174 104 l 79 26 b 74 17 75 24 74 19 b 78 10 74 15 75 11 l 235 -135 b 239 -142 238 -136 239 -140 b 233 -151 239 -144 238 -149 "},"":{"ha":507,"x_min":0,"x_max":0,"o":"m 0 -231 l 507 346 l 507 228 l 0 -349 "},"":{"ha":738,"x_min":0,"x_max":0,"o":"m 736 347 l 139 -347 l 0 -347 l 597 347 "},"":{"ha":1361,"x_min":0,"x_max":0,"o":"m 688 306 l 174 -306 l 660 -306 l 1174 306 m 1361 347 l 764 -347 l 0 -347 l 597 347 "},"":{"ha":1083,"x_min":0,"x_max":0,"o":"m 688 306 l 174 -306 l 382 -306 l 896 306 m 1083 347 l 486 -347 l 0 -347 l 597 347 "},"":{"ha":694,"x_min":0,"x_max":0,"o":"m 347 -347 l 0 0 l 347 347 l 694 0 m 124 1 l 347 -222 l 571 1 l 347 222 "},"":{"ha":254,"x_min":0,"x_max":0,"o":"m 0 -89 l 254 172 l 254 85 l 0 -175 "},"":{"ha":738,"x_min":0,"x_max":0,"o":"m 438 0 l 736 -347 l 597 -347 l 368 -81 l 139 -347 l 0 -347 l 299 0 l 0 347 l 139 347 l 368 81 l 597 347 l 736 347 "},"":{"ha":507,"x_min":0,"x_max":0,"o":"m 489 -361 l 263 -51 l 0 -349 l 0 -231 l 215 14 l -18 333 l 18 358 l 246 49 l 507 346 l 507 228 l 293 -17 l 525 -336 "},"":{"ha":736,"x_min":0,"x_max":0,"o":"m 415 -26 l 639 -335 l 603 -360 l 385 -61 l 139 -347 l 0 -347 l 321 26 l 96 335 l 132 360 l 351 61 l 597 347 l 736 347 "},"":{"ha":1085,"x_min":0,"x_max":0,"o":"m 668 -136 l 813 -335 l 778 -360 l 639 -171 l 486 -347 l 0 -347 l 415 136 l 271 335 l 306 360 l 444 169 l 597 347 l 1083 347 m 504 89 l 601 -44 l 896 306 l 688 306 m 572 -79 l 475 53 l 174 -306 l 382 -306 "},"":{"ha":1613,"x_min":0,"x_max":0,"o":"m 814 306 l 300 -306 l 786 -306 l 1300 306 m 1488 347 l 890 -347 l 126 -347 l 724 347 m 31 347 b 43 336 38 347 43 342 l 43 -337 b 31 -347 43 -343 38 -347 l 13 -347 b 0 -337 4 -347 0 -343 l 0 336 b 13 347 0 342 4 347 m 110 347 b 124 336 117 347 124 342 l 124 -337 b 110 -347 124 -343 117 -347 l 93 -347 b 79 -337 85 -347 79 -343 l 79 336 b 93 347 79 342 85 347 m 1519 347 b 1532 336 1526 347 1532 342 l 1532 -337 b 1519 -347 1532 -343 1526 -347 l 1501 -347 b 1489 -337 1493 -347 1489 -343 l 1489 336 b 1501 347 1489 342 1493 347 m 1599 347 b 1613 336 1606 347 1613 342 l 1613 -337 b 1599 -347 1613 -343 1606 -347 l 1582 -347 b 1568 -337 1574 -347 1568 -343 l 1568 336 b 1582 347 1568 342 1574 347 "},"":{"ha":694,"x_min":0,"x_max":0,"o":"m 694 0 b 347 -347 694 -193 539 -347 b 0 0 154 -347 0 -193 b 347 347 0 194 154 347 b 694 0 539 347 694 194 "},"":{"ha":694,"x_min":0,"x_max":0,"o":"m 347 -347 b 103 -246 258 -346 169 -312 b 0 0 38 -181 0 -93 b 103 247 0 94 38 182 b 347 347 169 314 254 347 b 597 249 440 347 532 314 b 694 0 664 182 694 94 b 599 -246 694 -93 664 -181 b 347 -347 532 -312 440 -347 m 347 296 b 140 211 271 296 196 268 b 53 0 83 154 53 81 b 139 -210 53 -79 83 -154 b 347 -294 196 -267 268 -294 b 561 -210 428 -294 504 -267 b 643 0 618 -154 643 -79 b 561 211 643 81 618 154 b 347 296 504 268 428 296 "},"":{"ha":696,"x_min":0,"x_max":0,"o":"m 347 -347 b 103 -247 256 -347 168 -312 b 0 0 36 -181 0 -93 b 103 246 0 92 36 179 b 347 347 168 311 256 347 b 594 246 442 347 529 311 b 696 0 660 179 696 92 b 594 -247 696 -93 660 -181 b 347 -347 529 -312 442 -347 m 347 296 b 139 210 269 296 194 265 b 53 0 83 154 53 79 b 139 -210 53 -81 83 -154 b 347 -297 194 -267 269 -297 b 558 -210 428 -297 501 -267 b 644 0 614 -154 644 -81 b 558 208 644 79 614 154 b 347 296 501 265 428 296 m 347 79 b 426 0 393 79 426 43 b 347 -79 426 -43 393 -79 b 269 0 304 -79 269 -43 b 347 79 269 43 304 79 "},"":{"ha":349,"x_min":0,"x_max":0,"o":"m 349 0 b 174 -174 349 -96 271 -174 b 0 0 78 -174 0 -96 b 174 174 0 96 78 174 b 349 0 271 174 349 96 "},"":{"ha":349,"x_min":0,"x_max":0,"o":"m 175 -174 b 1 0 79 -174 1 -96 b 175 174 1 96 79 174 b 349 0 272 174 349 96 b 175 -174 349 -96 272 -174 m 175 133 b 42 0 101 133 42 74 b 175 -133 42 -74 101 -133 b 310 0 249 -133 310 -74 b 175 133 310 74 249 133 "},"":{"ha":349,"x_min":0,"x_max":0,"o":"m 174 -174 b 0 0 78 -174 0 -96 b 174 174 0 96 78 174 b 349 0 271 174 349 96 b 174 -174 349 -96 271 -174 m 174 133 b 42 0 100 133 42 74 b 174 -133 42 -74 100 -133 b 308 0 247 -133 308 -74 b 174 133 308 74 247 133 m 174 50 b 224 0 203 50 224 28 b 174 -50 224 -28 203 -50 b 124 0 147 -50 124 -28 b 174 50 124 28 147 50 "},"":{"ha":696,"x_min":0,"x_max":0,"o":"m 632 201 b 696 0 672 144 696 75 b 347 -347 696 -192 540 -347 b 147 -283 274 -347 203 -324 l -249 -679 l -293 -633 l 100 -243 b 0 0 38 -179 0 -94 b 347 347 0 192 156 347 b 590 250 442 347 529 310 l 1019 679 l 1064 633 "},"":{"ha":696,"x_min":0,"x_max":0,"o":"m 614 225 b 696 0 667 161 696 83 b 594 -246 696 -93 660 -179 b 347 -347 529 -311 442 -347 b 124 -265 265 -347 186 -319 l -290 -679 l -335 -633 l 79 -221 b 0 0 29 -158 0 -82 b 103 246 0 93 36 179 b 347 347 168 311 256 347 b 568 269 429 347 507 321 l 978 679 l 1022 633 m 53 0 b 115 -183 53 -68 75 -132 l 533 232 b 347 297 481 275 417 297 b 139 210 269 297 194 265 b 53 0 83 154 53 79 m 644 0 b 578 188 644 69 621 135 l 160 -228 b 347 -297 213 -274 278 -297 b 558 -210 428 -297 501 -265 b 644 0 614 -154 644 -79 "},"":{"ha":346,"x_min":0,"x_max":0,"o":"m 315 100 b 346 0 335 72 346 38 b 174 -174 346 -96 269 -174 b 74 -142 136 -174 103 -162 l -424 -639 l -467 -597 l 32 -100 b 0 0 13 -72 0 -37 b 174 174 0 96 78 174 b 274 140 210 174 244 163 l 769 639 l 813 597 "},"":{"ha":346,"x_min":0,"x_max":0,"o":"m 315 99 b 346 0 335 72 346 38 b 172 -174 346 -96 269 -174 b 74 -142 136 -174 103 -162 l -424 -639 l -467 -597 l 32 -100 b 0 0 13 -72 0 -37 b 172 174 0 96 78 174 b 274 140 210 174 244 161 l 769 639 l 813 597 m 40 0 b 61 -71 40 -26 49 -50 l 243 113 b 172 132 224 125 199 132 b 40 0 100 132 40 74 m 306 0 b 285 71 306 26 297 50 l 104 -112 b 172 -132 124 -125 149 -132 b 306 0 246 -132 306 -74 "},"":{"ha":696,"x_min":0,"x_max":0,"o":"m 0 -347 l 0 347 l 694 347 l 694 -347 "},"":{"ha":696,"x_min":0,"x_max":0,"o":"m 0 -347 l 0 347 l 694 347 l 694 -347 m 646 -300 l 646 300 l 47 300 l 47 -300 "},"":{"ha":347,"x_min":0,"x_max":0,"o":"m 406 -12 l 339 53 b 347 -1 344 35 347 17 b 297 -122 347 -46 331 -89 b 175 -174 263 -157 219 -174 b 118 -164 156 -174 136 -171 l 186 -232 l 158 -260 l 50 -150 l -33 -233 l -61 -207 l 22 -124 l -86 -14 l -58 14 l 10 -56 b 0 1 3 -37 0 -18 b 51 124 0 46 18 89 b 175 174 85 157 131 174 b 226 167 193 174 210 172 l 160 232 l 188 260 l 297 151 l 381 236 l 408 208 l 324 124 l 433 14 "},"":{"ha":347,"x_min":0,"x_max":0,"o":"m 406 -12 l 339 53 b 347 -1 344 35 347 17 b 297 -122 347 -46 331 -89 b 175 -174 263 -157 219 -174 b 118 -164 156 -174 136 -171 l 186 -232 l 160 -260 l 50 -150 l -33 -233 l -61 -207 l 22 -124 l -86 -14 l -58 14 l 10 -56 b 0 1 3 -37 0 -18 b 51 124 0 46 18 89 b 175 174 85 157 131 174 b 226 167 193 174 210 172 l 160 232 l 188 260 l 297 151 l 381 236 l 408 208 l 324 124 l 433 14 m 79 96 b 39 1 53 69 39 36 b 67 -79 39 -28 49 -56 l 254 108 b 174 136 231 126 201 136 b 79 96 139 136 106 122 m 269 -94 b 308 0 296 -68 308 -35 b 282 81 308 28 300 57 l 93 -107 b 174 -135 117 -125 144 -135 b 269 -94 208 -135 243 -121 "},"":{"ha":461,"x_min":0,"x_max":0,"o":"m 0 -174 l 0 868 l 461 868 l 461 -174 m 389 -100 l 389 794 l 74 794 l 74 -100 "},"":{"ha":461,"x_min":0,"x_max":0,"o":"m 0 -174 l 0 868 l 461 868 l 461 -174 "},"":{"ha":519,"x_min":0,"x_max":0,"o":"m 58 -26 b 93 -94 60 -57 72 -78 b 181 -118 115 -110 147 -118 b 371 -47 242 -118 314 -92 b 464 101 429 -3 464 51 l 464 719 b 429 786 463 746 451 769 b 338 813 407 803 375 813 b 138 743 263 813 192 788 b 58 592 88 701 58 646 m 519 101 b 406 -92 519 35 478 -36 b 181 -174 338 -143 254 -174 b 1 -69 94 -174 6 -126 b 0 139 0 -51 0 35 b 3 592 0 347 3 592 b 103 786 3 663 39 733 b 338 868 167 839 250 868 b 464 829 388 868 431 854 b 514 756 489 811 508 774 b 519 713 519 736 519 717 "},"":{"ha":461,"x_min":0,"x_max":0,"o":"m 461 88 b 151 -174 461 -46 290 -174 b 0 -54 71 -174 7 -131 l 0 607 b 308 868 0 742 138 868 b 461 738 386 868 457 824 "},"":{"ha":843,"x_min":0,"x_max":0,"o":"m 354 -99 b 458 -142 379 -121 413 -142 b 500 -136 471 -142 486 -139 b 575 -54 558 -121 575 -89 b 576 47 575 -22 576 13 b 392 314 576 176 558 314 b 263 215 286 314 263 267 l 263 135 b 354 -99 263 36 269 -25 m 843 -206 b 829 -215 843 -211 838 -215 l 811 -215 b 796 -206 806 -215 796 -211 l 796 386 b 811 396 796 390 806 396 l 829 396 b 843 386 838 396 843 390 m 124 -206 b 111 -215 124 -211 118 -215 l 93 -215 b 81 -206 86 -215 81 -211 l 81 386 b 93 396 81 390 86 396 l 111 396 b 124 386 118 396 124 390 m 43 -206 b 31 -215 43 -211 39 -215 l 13 -215 b 0 -206 6 -215 0 -211 l 0 386 b 13 396 0 390 6 396 l 31 396 b 43 386 39 396 43 390 m 761 -206 b 749 -215 761 -211 756 -215 l 729 -215 b 717 -206 724 -215 717 -211 l 717 386 b 729 396 717 390 724 396 l 749 396 b 761 386 756 396 761 390 m 426 347 b 715 164 563 347 715 264 l 715 3 b 413 -174 715 -93 643 -174 b 125 3 206 -174 125 -89 l 125 164 b 426 347 125 261 242 347 "},"":{"ha":600,"x_min":0,"x_max":0,"o":"m 158 258 b 153 222 154 247 153 235 b 181 129 153 190 165 157 b 158 96 169 121 163 110 b 153 60 154 83 153 72 b 203 -65 153 15 175 -33 b 232 -97 211 -78 222 -87 b 299 -135 251 -114 275 -126 b 338 -140 311 -139 325 -140 b 381 -135 351 -140 367 -139 b 443 -65 415 -125 436 -101 b 446 -39 444 -57 446 -47 b 421 51 446 -8 436 22 b 443 97 432 63 440 78 b 446 124 444 106 446 115 b 269 315 446 210 368 315 b 158 258 226 315 174 307 m 307 347 b 600 171 439 347 600 272 b 571 79 600 138 592 106 b 600 7 589 57 600 33 b 292 -174 600 -92 526 -174 b 0 7 81 -174 0 -87 b 28 83 0 35 8 60 b 0 171 8 110 0 139 b 307 347 0 268 117 347 "},"":{"ha":431,"x_min":0,"x_max":0,"o":"m 253 -58 b 374 79 356 8 374 44 b 368 142 374 99 368 118 l 368 204 b 322 288 368 247 363 288 b 175 231 293 288 247 272 b 54 118 72 172 54 151 b 61 25 54 96 61 69 b 56 -53 61 1 56 -28 b 110 -118 56 -89 67 -118 b 253 -58 142 -118 186 -103 m 142 -174 b 0 -54 63 -174 0 -131 l 0 104 b 286 347 0 179 68 347 b 431 226 371 347 431 300 l 431 68 b 142 -174 431 19 382 -174 "},"":{"ha":454,"x_min":0,"x_max":0,"o":"m 153 -174 b 24 -103 94 -174 46 -147 b 0 26 8 -67 0 -21 b 33 194 0 88 13 151 b 299 347 75 283 179 347 b 432 278 363 347 411 324 b 454 156 447 243 454 199 b 433 19 454 107 446 60 b 153 -174 399 -83 265 -174 "},"":{"ha":842,"x_min":0,"x_max":0,"o":"m 428 521 b 715 346 558 521 715 446 l 715 3 b 413 -174 715 -94 643 -174 b 126 3 206 -174 126 -89 l 126 346 b 428 521 126 442 242 521 m 565 297 b 390 488 565 382 469 488 b 281 432 347 488 296 481 b 263 303 265 392 263 346 b 267 172 263 257 267 197 b 279 25 267 107 269 75 b 421 -136 296 -53 350 -114 b 458 -142 433 -140 446 -142 b 500 -136 472 -142 486 -140 b 563 -68 533 -128 554 -103 b 572 58 569 -26 572 15 b 565 297 572 131 565 225 m 43 -207 b 31 -215 43 -212 39 -215 l 13 -215 b 0 -207 6 -215 0 -212 l 0 553 b 13 563 0 558 6 563 l 31 563 b 43 553 39 563 43 558 m 125 -207 b 113 -215 125 -212 118 -215 l 93 -215 b 81 -207 86 -215 81 -212 l 81 553 b 93 563 81 558 86 563 l 113 563 b 125 553 118 563 125 558 m 763 -207 b 749 -215 763 -212 757 -215 l 729 -215 b 717 -207 724 -215 717 -212 l 717 553 b 729 563 717 558 724 563 l 749 563 b 763 553 757 563 763 558 m 843 -207 b 829 -215 843 -212 838 -215 l 811 -215 b 797 -207 806 -215 797 -212 l 797 553 b 811 563 797 558 806 563 l 829 563 b 843 553 838 563 843 558 "},"":{"ha":590,"x_min":0,"x_max":0,"o":"m 590 4 b 288 -174 590 -94 518 -174 b 0 4 79 -174 0 -90 l 0 347 b 301 521 0 442 115 521 b 590 347 432 521 590 446 m 393 422 b 265 489 361 461 315 489 b 156 433 222 489 171 482 b 149 376 150 417 149 397 l 149 50 b 200 -67 149 15 160 -18 b 229 -99 208 -81 218 -90 b 294 -136 247 -115 271 -129 b 332 -142 307 -140 319 -142 b 371 -137 344 -142 357 -140 b 375 -136 372 -137 374 -136 b 436 -67 408 -128 429 -103 b 439 -29 439 -54 439 -42 b 436 304 439 51 436 213 b 393 422 436 344 426 383 "},"":{"ha":439,"x_min":0,"x_max":0,"o":"m 258 -56 b 393 78 363 14 393 49 b 385 107 393 89 390 97 b 329 139 375 125 358 139 b 300 135 321 139 311 138 b 288 175 290 140 288 150 l 288 267 b 300 296 288 283 293 292 b 393 400 371 347 393 376 b 385 429 393 411 390 419 b 329 461 374 446 358 461 b 179 403 299 461 251 444 b 44 269 76 343 44 301 b 54 239 44 258 47 249 b 113 206 64 221 81 206 b 142 210 121 206 132 207 b 154 183 150 210 154 196 l 154 88 b 142 58 154 74 150 61 b 44 -51 69 11 44 -24 b 54 -82 44 -62 49 -74 b 113 -115 64 -100 82 -115 b 258 -56 144 -115 190 -100 m 360 189 b 439 75 408 169 439 129 b 144 -174 439 26 392 -174 b 0 -50 64 -174 0 -129 b 61 101 0 -12 17 49 b 75 142 69 111 75 126 b 61 168 75 153 71 163 b 0 271 24 189 0 224 b 293 521 0 349 71 521 b 439 397 378 521 439 474 b 360 226 439 368 424 288 b 350 204 354 221 350 213 b 360 189 350 197 353 190 "},"":{"ha":500,"x_min":0,"x_max":0,"o":"m 324 521 b 500 258 463 521 500 397 b 433 -31 500 146 472 29 b 176 -174 379 -111 269 -174 b 0 94 38 -174 0 -46 b 68 389 0 207 28 326 b 324 521 117 465 213 521 "},"":{"ha":831,"x_min":0,"x_max":0,"o":"m 44 -221 b 31 -229 44 -225 38 -229 l 13 -229 b 0 -221 6 -229 0 -225 l 0 204 b 13 215 0 210 6 215 l 31 215 b 44 204 38 215 44 210 m 124 -221 b 111 -229 124 -225 117 -229 l 93 -229 b 81 -221 86 -229 81 -225 l 81 204 b 93 215 81 210 86 215 l 111 215 b 124 204 117 215 124 210 m 376 -229 l 281 -229 b 197 -125 281 -181 258 -164 b 125 1 147 -92 125 -46 b 421 174 125 97 239 174 b 706 1 550 174 706 100 b 642 -119 706 -44 688 -87 b 575 -228 596 -151 575 -175 l 479 -228 l 479 -219 b 553 -68 479 -153 547 -101 b 556 -44 554 -60 556 -53 b 386 140 556 39 479 140 b 276 88 342 140 292 135 b 272 56 274 78 272 67 b 319 -68 272 11 294 -35 b 376 -183 328 -78 376 -136 m 750 -221 b 738 -229 750 -225 744 -229 l 719 -229 b 707 -221 713 -229 707 -225 l 707 204 b 719 215 707 210 713 215 l 738 215 b 750 204 744 215 750 210 m 831 -221 b 815 -229 831 -225 824 -229 l 799 -229 b 785 -221 792 -229 785 -225 l 785 204 b 799 215 785 210 792 215 l 815 215 b 831 204 824 215 831 210 "},"":{"ha":831,"x_min":0,"x_max":0,"o":"m 785 -137 l 785 139 l 829 139 l 829 -137 m 707 -137 l 707 139 l 750 139 l 750 -137 m 81 -137 l 81 139 l 124 139 l 124 -137 m 0 -137 l 0 139 l 44 139 l 44 -137 m 479 -115 l 479 113 l 575 113 l 575 -115 m 281 -115 l 281 113 l 376 113 l 376 -115 "},"":{"ha":831,"x_min":0,"x_max":0,"o":"m 831 -207 b 815 -215 831 -211 824 -215 l 799 -215 b 785 -207 792 -215 785 -211 l 785 249 b 799 258 785 253 792 258 l 815 258 b 831 249 824 258 831 253 m 750 -207 b 738 -215 750 -211 744 -215 l 719 -215 b 707 -207 713 -215 707 -211 l 707 249 b 719 258 707 253 713 258 l 738 258 b 750 249 744 258 750 253 m 617 119 b 706 0 661 97 706 46 b 407 -174 706 -96 632 -174 b 125 0 203 -174 125 -90 b 165 92 125 33 139 65 b 281 225 186 111 281 154 l 281 258 l 376 258 l 376 200 b 272 54 376 114 272 99 b 319 -71 272 8 294 -37 b 349 -100 328 -81 338 -92 b 415 -137 368 -117 390 -129 b 451 -142 428 -140 439 -142 b 492 -137 465 -142 479 -140 b 553 -71 525 -128 547 -104 b 556 -46 554 -62 556 -54 b 538 29 556 -21 549 6 b 479 150 510 88 479 97 l 479 258 l 575 258 l 575 192 b 617 119 575 149 604 125 m 124 -207 b 111 -215 124 -211 117 -215 l 93 -215 b 81 -207 86 -215 81 -211 l 81 249 b 93 258 81 253 86 258 l 111 258 b 124 249 117 258 124 253 m 44 -207 b 32 -215 44 -211 39 -215 l 13 -215 b 0 -207 6 -215 0 -211 l 0 249 b 13 258 0 253 6 258 l 32 258 b 44 249 39 258 44 253 "},"":{"ha":589,"x_min":0,"x_max":0,"o":"m 374 -139 b 435 -69 408 -129 428 -104 b 438 -44 436 -62 438 -53 b 265 142 438 39 361 142 b 156 88 222 142 171 135 b 150 49 151 75 150 63 b 206 -64 150 4 171 -44 b 254 -136 226 -75 254 -107 l 254 -292 l 146 -292 l 146 -236 b 101 -142 146 -181 146 -162 b 0 1 31 -110 0 -56 b 301 174 0 97 115 174 b 589 1 431 174 589 100 b 486 -143 589 -58 561 -112 b 443 -212 447 -160 443 -175 l 443 -292 l 335 -292 l 335 -174 b 374 -139 335 -154 353 -143 "},"":{"ha":589,"x_min":0,"x_max":0,"o":"m 335 -139 l 335 139 l 443 139 l 443 -139 m 146 -139 l 146 139 l 254 139 l 254 -139 "},"":{"ha":589,"x_min":0,"x_max":0,"o":"m 438 -44 b 335 172 438 51 335 111 l 335 293 l 443 293 l 443 225 b 553 79 443 126 506 131 b 589 3 575 57 589 31 b 288 -174 589 -96 515 -174 b 0 3 81 -174 0 -92 b 90 129 0 65 44 101 b 146 207 121 147 146 181 l 146 293 l 254 293 l 254 185 b 150 54 254 136 150 133 b 229 -100 150 -7 190 -67 b 332 -142 256 -124 288 -142 b 438 -44 397 -142 438 -110 "},"":{"ha":417,"x_min":0,"x_max":0,"o":"m 285 -39 b 371 58 353 6 371 35 b 363 86 371 68 367 76 b 311 115 353 103 339 115 b 169 61 283 115 238 100 b 42 -65 71 4 42 -35 b 50 -93 42 -76 44 -85 b 107 -124 60 -111 76 -124 b 140 -156 114 -124 140 -129 l 140 -210 l 90 -210 l 90 -186 b 69 -168 90 -178 79 -171 b 0 -62 28 -150 0 -114 b 276 174 0 10 65 174 b 415 56 358 174 415 126 b 346 -99 415 29 400 -42 b 325 -161 331 -115 325 -133 l 325 -208 l 274 -208 l 274 -78 b 285 -39 274 -57 275 -46 "},"":{"ha":417,"x_min":0,"x_max":0,"o":"m 325 -137 l 274 -137 l 274 139 l 325 139 m 90 -139 l 90 139 l 140 139 l 140 -139 "},"":{"ha":415,"x_min":0,"x_max":0,"o":"m 365 89 b 303 125 347 121 322 125 b 283 124 294 125 288 124 b 274 129 278 124 274 125 l 274 194 l 325 194 b 374 150 325 172 357 163 b 415 61 400 129 415 99 b 136 -174 415 15 368 -174 b 0 -57 60 -174 0 -131 b 51 79 0 -22 14 33 b 90 131 63 94 90 122 l 90 194 l 140 194 l 140 103 b 42 -60 140 19 42 7 b 50 -87 42 -69 44 -79 b 107 -119 60 -104 76 -119 b 243 -62 136 -119 181 -104 b 371 65 342 3 371 38 b 365 89 371 74 369 81 "},"":{"ha":410,"x_min":0,"x_max":0,"o":"m 97 -246 l 97 -169 b 0 -57 42 -158 0 -118 b 274 174 0 61 122 174 b 410 58 353 174 410 129 b 311 -107 410 -3 368 -64 l 311 -246 "},"":{"ha":410,"x_min":0,"x_max":0,"o":"m 97 -139 l 97 139 l 311 139 l 311 -139 "},"":{"ha":410,"x_min":0,"x_max":0,"o":"m 135 -174 b 0 -58 58 -174 0 -131 b 99 118 0 8 38 74 l 99 279 l 311 279 l 311 171 b 410 58 371 158 410 117 b 135 -174 410 -60 258 -174 "},"":{"ha":368,"x_min":0,"x_max":0,"o":"m 349 24 b 367 8 361 15 367 13 b 347 -14 367 3 361 -4 b 286 -53 328 -28 296 -46 b 206 -149 253 -79 225 -114 b 183 -174 194 -164 188 -174 b 164 -149 181 -174 174 -164 b 93 -62 149 -117 122 -89 b 15 -12 69 -43 44 -26 b 0 7 6 -6 0 1 b 15 19 0 13 13 15 b 40 85 31 39 40 63 b 15 139 40 110 32 129 b 0 165 7 146 0 160 b 15 185 0 171 6 178 b 93 235 44 199 69 215 b 164 321 122 260 149 289 b 183 346 174 336 181 346 b 206 321 188 346 194 336 b 286 225 225 286 253 251 b 347 186 296 218 326 193 b 368 165 363 179 368 172 b 354 142 368 160 365 151 b 332 78 338 128 332 103 b 349 24 332 51 339 28 m 190 260 b 82 156 167 203 118 167 b 103 94 97 136 103 117 b 72 7 103 61 88 31 b 185 -94 101 -3 154 -35 b 303 25 201 -32 263 14 b 282 81 288 36 282 57 b 299 158 282 106 288 132 b 190 260 274 168 210 215 "},"":{"ha":371,"x_min":0,"x_max":0,"o":"m 351 28 b 369 8 363 18 369 13 b 350 -14 369 1 364 -4 b 286 -56 328 -29 297 -47 b 207 -147 257 -81 228 -112 b 185 -174 199 -164 192 -174 b 164 -147 179 -174 172 -164 b 92 -64 147 -115 121 -87 b 15 -12 69 -43 44 -28 b 0 6 6 -6 0 0 b 15 24 0 14 6 17 b 40 88 31 40 40 67 b 15 142 40 110 32 131 b 0 168 7 146 0 161 b 15 186 0 174 6 179 b 92 238 44 201 69 217 b 164 321 121 263 147 289 b 185 347 172 338 179 347 b 207 321 192 347 199 338 b 286 229 228 288 257 254 b 350 188 297 221 326 196 b 371 168 365 181 371 175 b 356 143 371 161 369 151 b 333 82 340 129 333 104 b 351 28 333 54 342 31 "},"":{"ha":379,"x_min":0,"x_max":0,"o":"m 107 203 b 15 321 107 244 51 300 b 0 336 6 325 0 329 b 15 354 0 342 6 349 b 96 407 44 371 71 388 b 168 494 125 433 151 463 b 190 521 178 511 183 521 b 213 494 196 521 201 511 b 293 399 232 460 261 424 b 357 356 304 392 335 365 b 379 336 374 351 379 343 b 358 317 379 329 374 324 b 282 203 304 286 282 250 l 282 144 b 358 31 282 129 304 61 b 378 14 372 24 378 19 b 357 -8 378 7 372 0 b 297 -49 338 -24 311 -40 b 293 -51 296 -50 294 -51 b 213 -147 261 -76 232 -112 b 190 -174 201 -164 196 -174 b 168 -147 183 -174 178 -164 b 96 -60 151 -115 125 -86 b 15 -8 71 -40 44 -22 b 0 11 6 -1 0 4 b 15 26 0 17 6 22 b 107 144 51 47 107 106 m 243 206 b 275 340 244 250 250 300 b 192 439 250 353 208 392 b 92 339 163 381 125 349 b 143 203 117 324 143 276 l 143 144 b 92 10 143 99 122 38 b 192 -92 115 -18 157 -32 b 296 11 219 -32 257 -11 b 243 143 260 38 244 121 "},"":{"ha":381,"x_min":0,"x_max":0,"o":"m 107 204 b 15 321 107 244 53 300 b 0 338 6 326 0 332 b 15 353 0 343 6 349 b 96 407 46 369 71 386 b 169 494 125 433 153 461 b 188 521 178 513 182 521 b 211 494 194 521 201 513 b 294 399 233 458 261 424 b 357 356 306 390 335 365 b 381 338 372 350 381 344 b 358 317 381 332 372 325 b 282 204 304 286 282 250 l 282 146 b 358 29 282 128 304 63 b 379 13 371 24 379 18 b 357 -7 379 7 371 0 b 294 -50 336 -22 306 -43 b 211 -147 261 -76 233 -111 b 188 -174 201 -165 194 -174 b 169 -147 182 -174 178 -165 b 96 -60 153 -114 125 -86 b 15 -6 71 -40 46 -21 b 0 10 6 -1 0 4 b 15 26 0 14 6 21 b 107 146 53 49 107 106 "},"":{"ha":404,"x_min":0,"x_max":0,"o":"m 250 -178 b 293 -19 250 -132 267 -62 b 203 86 267 -7 224 36 b 97 -19 174 22 133 -11 b 154 -178 126 -37 154 -101 l 113 -178 b 18 -40 113 -135 57 -62 b 1 -22 6 -35 1 -28 b 18 -4 1 -17 6 -11 b 103 53 50 13 76 31 b 182 149 133 79 163 110 b 201 174 192 165 197 174 b 226 146 208 174 217 164 b 314 43 249 108 279 71 b 382 -3 325 35 357 8 b 406 -22 399 -8 406 -15 b 383 -44 406 -29 399 -36 b 300 -178 324 -78 300 -126 "},"":{"ha":404,"x_min":0,"x_max":0,"o":"m 250 139 l 300 139 l 300 -139 l 250 -139 m 113 139 l 154 139 l 154 -139 l 113 -139 "},"":{"ha":404,"x_min":0,"x_max":0,"o":"m 299 178 b 382 44 299 126 322 78 b 404 22 397 36 404 29 b 381 3 404 15 397 8 b 313 -43 356 -8 324 -35 b 225 -146 278 -71 247 -108 b 200 -174 215 -164 207 -174 b 181 -149 196 -174 190 -165 b 101 -53 161 -110 132 -79 b 17 4 75 -31 49 -12 b 0 22 4 11 0 17 b 17 40 0 28 4 35 b 111 178 56 63 111 135 l 153 178 b 96 19 153 101 125 38 b 201 -86 132 11 172 -22 b 292 19 222 -36 265 7 b 249 178 265 63 249 132 "},"":{"ha":411,"x_min":0,"x_max":0,"o":"m 114 -174 b 17 -46 114 -129 57 -68 b 0 -28 6 -42 0 -33 b 17 -8 0 -22 6 -15 b 104 50 50 8 76 26 b 183 144 135 78 165 107 b 207 172 193 163 200 172 b 231 144 213 172 219 163 b 318 39 253 106 283 68 b 388 -7 331 32 363 3 b 411 -26 404 -14 411 -19 b 389 -50 411 -33 403 -42 b 306 -174 329 -83 306 -122 "},"":{"ha":411,"x_min":0,"x_max":0,"o":"m 114 139 l 306 139 l 306 -139 l 114 -139 "},"":{"ha":411,"x_min":0,"x_max":0,"o":"m 306 174 b 389 50 306 122 329 83 b 411 26 403 42 411 33 b 388 7 411 19 404 14 b 318 -39 363 -3 331 -32 b 231 -144 283 -68 253 -106 b 207 -172 219 -162 213 -172 b 183 -144 200 -172 193 -162 b 104 -50 165 -107 135 -78 b 17 8 76 -26 50 -8 b 0 28 6 15 0 22 b 17 46 0 33 6 42 b 114 174 57 68 114 129 "},"":{"ha":478,"x_min":0,"x_max":0,"o":"m 0 -187 l 0 174 l 478 174 l 478 -187 "},"":{"ha":478,"x_min":0,"x_max":0,"o":"m 0 -181 l 0 181 l 478 181 l 478 -181 "},"":{"ha":478,"x_min":0,"x_max":0,"o":"m 478 188 l 478 -174 l 0 -174 l 0 188 "},"":{"ha":478,"x_min":0,"x_max":0,"o":"m 478 -187 l 406 -187 l 406 101 l 72 101 l 72 -187 l 0 -187 l 0 174 l 478 174 "},"":{"ha":478,"x_min":0,"x_max":0,"o":"m 478 -181 l 406 -181 l 406 181 l 478 181 m 72 -181 l 0 -181 l 0 181 l 72 181 "},"":{"ha":478,"x_min":0,"x_max":0,"o":"m 478 -174 l 0 -174 l 0 188 l 72 188 l 72 -101 l 406 -101 l 406 188 l 478 188 "},"":{"ha":675,"x_min":0,"x_max":0,"o":"m 540 -32 b 458 -128 540 -93 508 -128 b 376 -31 408 -128 376 -93 b 458 65 376 31 408 65 b 540 -32 510 65 540 31 m 497 -32 b 458 26 497 6 482 26 b 419 -31 435 26 419 4 b 458 -89 419 -67 435 -89 b 497 -32 481 -89 497 -67 m 365 -1 b 338 -99 365 -40 356 -75 b 268 -128 322 -119 301 -128 l 181 -128 l 181 125 l 268 125 b 338 96 301 125 322 117 b 365 -1 356 72 365 38 m 319 -1 b 268 82 319 54 301 82 l 226 82 l 226 -85 l 268 -85 b 319 -1 301 -85 319 -57 m 344 200 b 675 0 493 200 675 114 b 329 -203 675 -111 589 -203 b 0 0 90 -203 0 -107 b 344 200 0 110 132 200 m 331 -168 b 590 -1 526 -168 590 -93 b 343 164 590 93 454 164 b 83 -1 183 164 83 89 b 331 -168 83 -89 151 -168 "},"":{"ha":675,"x_min":0,"x_max":0,"o":"m 324 -128 b 317 -85 317 -115 317 -108 l 317 -58 b 286 -28 317 -36 307 -28 l 228 -28 l 228 -128 l 178 -128 l 178 125 l 308 125 b 374 57 351 125 374 96 b 333 -6 374 26 361 6 b 367 -97 364 -19 365 -24 b 378 -118 367 -108 369 -114 l 378 -128 m 324 50 b 289 82 324 71 317 82 l 228 82 l 228 15 l 289 15 b 324 50 317 15 324 26 m 546 -44 l 425 -44 b 463 -90 426 -81 440 -90 b 497 -72 479 -90 493 -86 l 544 -72 b 460 -128 533 -108 500 -128 b 378 -33 408 -128 378 -93 b 461 65 378 29 410 65 b 546 -37 514 65 546 26 m 497 -11 b 461 29 494 15 481 29 b 425 -11 440 29 428 14 l 497 -11 m 344 200 b 675 0 493 200 675 114 b 329 -203 675 -111 589 -203 b 0 0 90 -203 0 -107 b 344 200 0 110 132 200 m 331 -168 b 590 -1 526 -168 590 -93 b 343 164 590 93 454 164 b 83 -1 183 164 83 89 b 331 -168 83 -89 151 -168 "},"":{"ha":675,"x_min":0,"x_max":0,"o":"m 364 -131 l 364 67 l 321 -131 l 272 -131 l 229 67 l 229 -131 l 179 -131 l 179 122 l 253 122 l 297 -79 l 339 122 l 413 122 l 413 -131 m 442 -131 l 442 57 l 488 57 l 488 -131 m 442 79 l 442 128 l 488 128 l 488 79 m 344 200 b 675 0 493 200 675 114 b 329 -203 675 -111 590 -203 b 0 0 90 -203 0 -107 b 344 200 0 110 132 200 m 331 -168 b 590 -1 526 -168 590 -93 b 343 164 590 93 454 164 b 83 -1 183 164 83 89 b 331 -168 83 -89 151 -168 "},"":{"ha":675,"x_min":0,"x_max":0,"o":"m 332 -168 b 592 -1 528 -168 592 -93 b 344 164 592 93 456 164 b 85 -1 183 164 85 89 b 332 -168 85 -89 153 -168 m 346 200 b 675 0 494 200 675 114 b 331 -203 675 -111 590 -203 b 0 0 92 -203 0 -107 b 346 200 0 110 133 200 m 469 -36 b 450 -42 464 -39 461 -40 l 433 -46 b 408 -68 415 -49 408 -54 b 433 -89 408 -82 418 -89 b 469 -44 456 -89 469 -72 m 475 -125 b 469 -101 471 -119 469 -111 b 415 -128 453 -119 435 -128 b 363 -74 386 -128 363 -111 b 414 -18 363 -40 379 -24 l 432 -14 b 469 8 456 -10 469 -7 b 443 26 469 21 460 26 b 410 1 419 26 413 21 l 367 1 b 442 65 369 44 394 65 b 514 8 489 65 514 46 l 514 -96 b 524 -119 514 -106 515 -111 l 524 -125 m 249 82 l 249 25 l 353 25 l 353 -19 l 249 -19 l 249 -128 l 200 -128 l 200 125 l 367 125 l 367 82 "},"":{"ha":675,"x_min":0,"x_max":0,"o":"m 283 15 b 350 -51 331 7 350 -12 b 246 -132 350 -103 311 -132 b 142 -49 182 -132 142 -103 l 192 -49 b 249 -90 192 -75 214 -90 b 300 -58 281 -90 300 -79 b 253 -24 300 -37 288 -31 l 217 -17 b 146 51 165 -7 146 13 b 242 129 146 101 181 129 b 342 49 304 129 342 101 l 293 49 b 239 88 293 74 272 88 b 196 57 213 88 196 75 b 243 24 196 38 207 31 l 283 15 m 344 200 b 675 0 493 200 675 114 b 329 -203 675 -111 589 -203 b 0 0 90 -203 0 -107 b 344 200 0 110 132 200 m 331 -168 b 590 -1 526 -168 590 -93 b 343 164 590 93 454 164 b 83 -1 183 164 83 89 b 331 -168 83 -89 151 -168 m 449 65 b 542 -32 508 65 542 31 b 450 -128 542 -93 507 -128 b 357 -31 392 -128 357 -93 b 449 65 357 31 392 65 m 450 -89 b 493 -32 475 -89 493 -67 b 450 26 493 6 476 26 b 406 -31 424 26 406 4 b 450 -89 406 -67 424 -89 "},"":{"ha":675,"x_min":0,"x_max":0,"o":"m 331 -168 b 590 -1 526 -168 590 -93 b 343 164 590 93 454 164 b 83 -1 183 164 83 89 b 331 -168 83 -89 151 -168 m 344 200 b 675 0 493 200 675 114 b 329 -203 675 -111 589 -203 b 0 0 90 -203 0 -107 b 344 200 0 110 132 200 m 464 -36 b 444 -42 458 -39 457 -40 l 429 -46 b 403 -68 410 -49 403 -54 b 428 -89 403 -82 413 -89 b 464 -44 450 -89 464 -72 m 469 -125 b 464 -101 465 -119 464 -111 b 411 -128 449 -119 431 -128 b 358 -74 382 -128 358 -111 b 410 -18 358 -40 375 -24 l 428 -14 b 464 8 450 -10 464 -7 b 438 26 464 21 456 26 b 406 1 415 26 408 21 l 363 1 b 436 65 365 44 389 65 b 508 8 483 65 508 46 l 508 -96 b 518 -119 508 -106 510 -111 l 518 -125 m 185 -128 l 185 125 l 232 125 l 232 -85 l 346 -85 l 346 -128 "},"":{"ha":675,"x_min":0,"x_max":0,"o":"m 324 79 l 324 -131 l 271 -131 l 271 79 l 194 79 l 194 122 l 397 122 l 397 79 m 417 -131 l 417 57 l 465 57 l 465 -131 m 418 79 l 418 128 l 467 128 l 467 79 m 344 200 b 675 0 493 200 675 114 b 329 -203 675 -111 590 -203 b 0 0 90 -203 0 -107 b 344 200 0 110 132 200 m 331 -168 b 590 -1 526 -168 590 -93 b 343 164 590 93 454 164 b 83 -1 183 164 83 89 b 331 -168 83 -89 151 -168 "},"":{"ha":676,"x_min":0,"x_max":0,"o":"m 332 -168 b 592 -1 528 -168 592 -93 b 344 164 592 93 456 164 b 85 -1 183 164 85 89 b 332 -168 85 -89 153 -168 m 346 200 b 675 0 494 200 675 114 b 331 -203 675 -111 590 -203 b 0 0 92 -203 0 -107 b 346 200 0 110 133 200 m 326 15 b 393 -51 374 7 393 -12 b 289 -132 393 -103 354 -132 b 185 -49 225 -132 185 -103 l 235 -49 b 292 -90 235 -75 257 -90 b 343 -58 324 -90 343 -79 b 296 -24 343 -37 331 -31 l 260 -17 b 189 51 208 -7 189 13 b 285 129 189 101 224 129 b 385 49 347 129 385 101 l 336 49 b 282 88 336 74 315 88 b 239 57 256 88 239 75 b 286 24 239 38 250 31 m 414 78 l 414 126 l 463 126 l 463 78 m 413 -132 l 413 56 l 461 56 l 461 -132 "},"":{"ha":500,"x_min":0,"x_max":0,"o":"m 164 -201 b 0 -67 71 -201 0 -151 b 333 201 0 15 78 201 b 500 67 432 201 500 149 b 164 -201 500 15 444 -201 m 319 -108 b 458 49 422 -43 458 4 b 439 107 458 68 450 88 b 342 164 418 140 389 164 b 185 111 303 164 253 149 b 40 -44 78 53 40 1 b 57 -99 40 -64 46 -82 b 168 -164 79 -135 114 -164 b 319 -108 207 -164 257 -149 m 429 57 b 354 -29 429 3 401 -29 b 279 58 308 -29 279 3 b 354 146 279 114 308 146 b 429 57 401 146 429 114 m 390 57 b 354 110 390 90 376 110 b 319 58 333 110 319 90 b 354 7 319 26 333 7 b 390 57 376 7 390 26 m 110 -136 l 110 50 l 150 76 l 190 76 b 254 50 221 76 240 68 b 279 -37 271 29 279 -3 b 254 -125 279 -72 271 -104 b 190 -151 240 -143 221 -151 l 138 -151 m 238 -37 b 190 38 238 13 222 38 l 151 38 l 151 -112 l 190 -112 b 238 -37 222 -112 238 -87 "},"":{"ha":501,"x_min":0,"x_max":0,"o":"m 164 -200 b 0 -65 71 -200 0 -150 b 333 203 0 17 78 203 b 500 68 432 203 500 150 b 164 -200 500 17 444 -200 m 319 -107 b 458 50 422 -42 458 6 b 439 108 458 69 450 89 b 343 164 418 142 390 164 b 185 111 306 164 254 149 b 40 -43 78 54 40 3 b 57 -97 40 -62 46 -81 b 168 -162 79 -133 114 -162 b 319 -107 207 -162 257 -147 m 285 17 b 250 -40 285 -11 274 -29 l 256 -43 b 279 -114 276 -53 278 -53 l 238 -133 b 236 -111 236 -128 236 -121 l 236 -86 b 211 -60 236 -68 229 -60 l 163 -60 l 163 -150 l 119 -136 l 119 57 l 149 78 l 231 78 b 285 17 267 78 285 51 m 213 -21 b 243 10 238 -21 243 -10 b 213 39 243 29 236 39 l 163 39 l 163 -21 l 213 -21 m 358 147 b 429 54 403 147 429 111 l 429 49 l 328 49 b 358 6 328 15 340 6 b 389 24 374 6 386 11 l 428 24 b 357 -28 419 -10 392 -28 b 288 57 314 -28 288 4 b 358 147 288 114 315 147 m 389 78 b 358 114 386 101 375 114 b 328 78 340 114 331 101 "},"":{"ha":500,"x_min":0,"x_max":0,"o":"m 164 -200 b 0 -65 71 -200 0 -150 b 333 203 0 17 78 203 b 500 68 432 203 500 150 b 164 -200 500 17 444 -200 m 319 -107 b 458 50 422 -42 458 6 b 439 108 458 69 450 89 b 343 164 418 142 390 164 b 185 111 306 164 254 149 b 40 -43 78 54 40 3 b 57 -97 40 -62 46 -81 b 168 -162 79 -133 114 -162 b 319 -107 207 -162 257 -147 m 172 86 l 208 -89 l 244 92 l 308 92 l 308 -89 l 267 -114 l 267 42 l 231 -136 l 188 -136 l 151 42 l 151 -136 l 108 -136 l 108 51 m 342 -68 l 342 90 l 381 90 l 381 -40 m 342 101 l 342 146 l 381 146 l 381 101 "},"":{"ha":500,"x_min":0,"x_max":0,"o":"m 335 44 b 313 24 318 40 313 36 b 333 6 313 11 319 6 b 364 44 353 6 364 19 b 361 53 364 47 363 53 l 360 51 b 347 47 357 49 354 49 m 369 -28 b 365 -6 365 -22 365 -15 b 318 -31 351 -22 336 -31 b 272 18 293 -31 272 -14 b 317 69 272 49 288 64 l 333 72 b 364 92 353 76 364 79 b 342 108 364 103 357 108 b 314 86 322 108 315 103 l 276 86 b 340 144 278 125 300 144 b 403 92 382 144 403 126 l 403 -1 b 413 -22 403 -10 406 -15 l 413 -28 m 160 36 l 160 -15 l 250 -15 l 250 -54 l 160 -54 l 160 -153 l 118 -139 l 118 50 l 161 75 l 261 75 l 261 36 m 319 -107 b 458 50 422 -42 458 6 b 439 108 458 69 450 89 b 343 164 418 142 390 164 b 185 111 306 164 254 149 b 40 -43 78 54 40 3 b 57 -97 40 -62 46 -81 b 168 -162 79 -133 114 -162 b 319 -107 207 -162 257 -147 m 164 -200 b 0 -65 71 -200 0 -150 b 333 203 0 17 78 203 b 500 68 432 203 500 150 b 164 -200 500 17 444 -200 "},"":{"ha":501,"x_min":0,"x_max":0,"o":"m 164 -200 b 0 -65 71 -200 0 -150 b 333 203 0 17 78 203 b 500 68 432 203 500 150 b 164 -200 500 17 444 -200 m 319 -107 b 458 50 422 -42 458 6 b 439 108 458 69 450 89 b 342 165 418 142 389 165 b 185 113 303 165 253 150 b 40 -43 78 54 40 3 b 57 -97 40 -62 46 -81 b 168 -162 79 -133 114 -162 b 319 -107 207 -162 257 -147 m 189 -150 b 104 -74 136 -150 104 -124 l 144 -74 b 192 -112 144 -99 163 -112 b 232 -83 217 -112 232 -103 b 194 -51 232 -65 222 -58 l 165 -46 b 107 15 124 -36 107 -19 b 185 86 107 60 136 86 b 265 13 235 86 265 61 l 226 13 b 183 49 226 36 210 49 b 147 19 161 49 147 38 b 186 -10 147 4 157 -3 l 218 -17 b 274 -78 257 -25 274 -42 b 189 -150 274 -124 242 -150 m 426 58 b 351 -28 426 4 397 -28 b 276 60 304 -28 276 4 b 351 147 276 115 304 147 b 426 58 399 147 426 115 m 388 58 b 351 111 388 92 374 111 b 315 60 331 111 315 92 b 351 7 315 28 331 7 b 388 58 372 7 388 28 "},"":{"ha":501,"x_min":0,"x_max":0,"o":"m 340 33 b 324 29 335 32 333 31 l 310 26 b 288 4 293 22 288 18 b 308 -14 288 -8 296 -14 b 340 26 329 -14 340 1 m 344 -46 b 340 -25 340 -40 340 -33 b 294 -49 326 -40 311 -49 b 247 0 268 -49 247 -33 b 293 51 247 31 263 44 l 308 54 b 340 74 328 57 340 58 b 317 90 340 85 332 90 b 289 67 297 90 292 85 l 251 67 b 317 126 254 107 275 126 b 378 74 357 126 378 108 l 378 -19 b 388 -40 378 -29 381 -33 l 388 -46 m 236 -140 l 144 -140 l 144 72 l 168 88 l 188 88 l 188 -101 l 285 -101 l 285 -117 m 319 -107 b 458 50 422 -42 458 6 b 439 108 458 69 450 89 b 343 164 418 142 390 164 b 185 111 306 164 254 149 b 40 -43 78 54 40 3 b 57 -97 40 -62 46 -81 b 168 -162 79 -133 114 -162 b 319 -107 207 -162 257 -147 m 164 -200 b 0 -65 71 -200 0 -150 b 333 203 0 17 78 203 b 500 68 432 203 500 150 b 164 -200 500 17 444 -200 "},"":{"ha":500,"x_min":0,"x_max":0,"o":"m 164 -200 b 0 -65 71 -200 0 -150 b 333 203 0 17 78 203 b 500 68 432 203 500 150 b 164 -200 500 17 444 -200 m 319 -107 b 458 50 422 -42 458 6 b 439 108 458 69 450 89 b 343 164 418 142 390 164 b 185 111 306 164 254 149 b 40 -43 78 54 40 3 b 57 -97 40 -62 46 -81 b 168 -162 79 -133 114 -162 b 319 -107 207 -162 257 -147 m 233 35 l 233 -137 l 192 -151 l 192 35 l 129 35 l 129 63 l 147 74 l 294 74 l 294 35 m 333 -82 l 308 -82 l 308 86 l 347 86 l 347 -69 m 308 107 l 308 151 l 349 151 l 349 107 "},"":{"ha":500,"x_min":0,"x_max":0,"o":"m 164 -200 b 0 -65 71 -200 0 -150 b 333 203 0 17 78 203 b 500 68 432 203 500 150 b 164 -200 500 17 444 -200 m 319 -107 b 458 50 422 -42 458 6 b 439 108 458 69 450 89 b 343 164 418 142 390 164 b 185 111 306 164 254 149 b 40 -43 78 54 40 3 b 57 -97 40 -62 46 -81 b 168 -162 79 -133 114 -162 b 319 -107 207 -162 257 -147 m 303 -79 l 303 89 l 343 89 l 343 -79 m 304 110 l 304 154 l 343 154 l 343 110 m 282 -76 b 199 -149 282 -122 251 -149 b 113 -72 146 -149 113 -122 l 154 -72 b 200 -111 154 -97 172 -111 b 242 -82 226 -111 242 -101 b 203 -50 242 -64 231 -57 l 175 -44 b 117 17 133 -35 117 -18 b 194 88 117 61 146 88 b 275 14 244 88 275 63 l 236 14 b 193 50 236 38 219 50 b 157 21 171 50 157 39 b 196 -8 157 6 165 -1 l 228 -15 b 282 -76 265 -24 282 -40 "},"":{"ha":497,"x_min":0,"x_max":0,"o":"m 356 82 b 392 29 376 82 392 63 b 356 -22 392 -1 376 -22 b 319 31 333 -22 319 -1 b 356 82 319 63 333 82 m 179 26 b 226 -49 211 26 226 3 b 179 -122 226 -99 211 -122 l 142 -122 l 142 26 l 179 26 m 332 197 b 497 67 429 197 497 146 b 164 -194 497 -65 313 -194 b 0 -64 72 -194 0 -146 b 332 197 0 71 149 197 m 244 -135 b 269 -47 260 -114 269 -83 b 244 40 269 -12 261 18 b 179 67 231 58 211 67 l 99 67 l 99 -161 l 179 -161 b 244 -135 211 -161 231 -154 m 356 -57 b 431 29 401 -57 431 -25 b 356 118 431 86 403 118 b 281 31 308 118 281 86 b 356 -57 281 -25 308 -57 "},"":{"ha":497,"x_min":0,"x_max":0,"o":"m 361 89 b 392 51 378 89 389 76 l 331 51 b 361 89 333 75 343 89 m 203 39 b 232 10 226 39 232 29 b 203 -21 232 -11 226 -21 l 151 -21 l 151 39 l 203 39 m 331 197 b 497 67 428 197 497 146 b 163 -194 497 -65 313 -194 b 0 -64 71 -194 0 -146 b 331 197 0 71 147 197 m 278 -142 b 268 -122 271 -137 268 -133 b 240 -40 268 -56 267 -53 b 275 17 263 -31 275 -11 b 219 78 275 51 256 78 l 110 78 l 110 -150 l 151 -150 l 151 -60 l 200 -60 b 226 -87 218 -60 226 -68 l 226 -111 b 232 -150 226 -132 226 -139 l 278 -150 m 432 28 b 361 122 432 86 406 122 b 290 32 318 122 290 89 b 360 -53 290 -22 317 -53 b 431 -3 394 -53 422 -36 l 392 -3 b 361 -19 389 -15 376 -19 b 331 22 343 -19 332 -10 l 432 22 "},"":{"ha":497,"x_min":0,"x_max":0,"o":"m 332 199 b 497 68 429 199 497 147 b 163 -193 497 -64 313 -193 b 0 -62 71 -193 0 -144 b 332 199 0 72 149 199 m 303 90 l 239 90 l 203 -90 l 167 90 l 103 90 l 103 -137 l 146 -137 l 146 40 l 182 -137 l 225 -137 l 261 40 l 261 -137 l 303 -137 m 379 86 l 340 86 l 340 -83 l 379 -83 m 381 150 l 340 150 l 340 106 l 381 106 "},"":{"ha":497,"x_min":0,"x_max":0,"o":"m 349 29 b 365 35 358 31 360 32 l 365 26 b 333 -12 365 1 353 -12 b 313 6 321 -12 313 -7 b 335 26 313 18 318 22 m 413 -40 b 403 -19 406 -33 403 -28 l 403 74 b 340 126 403 108 382 126 b 276 68 300 126 279 107 l 314 68 b 342 90 315 85 322 90 b 365 74 357 90 365 85 b 333 54 365 61 353 58 l 317 51 b 272 0 288 46 272 31 b 318 -49 272 -33 293 -49 b 365 -24 336 -49 351 -40 b 369 -46 365 -33 365 -40 l 413 -46 m 253 76 l 108 76 l 108 -151 l 151 -151 l 151 -53 l 240 -53 l 240 -14 l 151 -14 l 151 38 l 253 38 m 332 199 b 497 68 429 199 497 147 b 164 -193 497 -64 313 -193 b 0 -62 72 -193 0 -144 b 332 199 0 72 149 199 "},"":{"ha":497,"x_min":0,"x_max":0,"o":"m 332 199 b 497 68 429 199 497 147 b 164 -193 497 -64 313 -193 b 0 -62 72 -193 0 -146 b 332 199 0 72 149 199 m 169 -150 b 253 -78 222 -150 253 -124 b 199 -17 253 -42 238 -25 l 167 -10 b 128 19 138 -4 128 3 b 164 47 128 36 142 47 b 207 13 190 47 207 35 l 246 13 b 165 85 246 60 215 85 b 88 15 117 85 88 60 b 146 -46 88 -21 104 -37 l 174 -53 b 213 -83 203 -58 213 -65 b 171 -112 213 -103 197 -112 b 125 -75 143 -112 125 -99 l 85 -75 b 169 -150 85 -124 117 -150 m 344 -46 b 419 40 390 -46 419 -14 b 343 128 419 97 392 128 b 269 42 297 128 269 97 b 344 -46 269 -14 297 -46 m 344 93 b 379 40 365 93 379 74 b 344 -11 379 10 365 -11 b 308 42 322 -11 308 10 b 344 93 308 74 322 93 "},"":{"ha":497,"x_min":0,"x_max":0,"o":"m 393 -33 b 385 -8 386 -21 385 -17 l 385 86 b 322 138 385 121 364 138 b 257 79 282 138 260 118 l 296 79 b 324 103 297 97 304 103 b 346 86 339 103 346 97 b 315 65 346 72 335 69 l 299 63 b 254 13 269 57 254 43 b 300 -36 254 -21 275 -36 b 346 -12 317 -36 333 -29 b 351 -33 346 -21 347 -29 m 271 -94 l 172 -94 l 172 94 l 131 94 l 131 -133 l 271 -133 m 331 199 b 497 68 428 199 497 147 b 163 -193 497 -64 313 -193 b 0 -62 71 -193 0 -146 b 331 199 0 72 147 199 m 329 40 b 346 46 340 43 342 43 l 346 39 b 315 -1 346 13 335 -1 b 293 17 301 -1 293 4 b 317 38 293 29 300 35 "},"":{"ha":497,"x_min":0,"x_max":0,"o":"m 332 199 b 497 68 429 199 497 147 b 163 -193 497 -64 313 -193 b 0 -62 71 -193 0 -146 b 332 199 0 72 149 199 m 275 78 l 111 78 l 111 39 l 172 39 l 172 -150 l 215 -150 l 215 39 l 275 39 m 358 88 l 319 88 l 319 -81 l 358 -81 m 358 151 l 319 151 l 319 108 l 358 108 "},"":{"ha":497,"x_min":0,"x_max":0,"o":"m 332 199 b 497 68 429 199 497 147 b 164 -193 497 -64 313 -193 b 0 -62 72 -193 0 -146 b 332 199 0 72 149 199 m 194 -133 b 278 -61 247 -133 278 -108 b 224 -1 278 -26 261 -8 l 192 6 b 153 36 161 13 153 19 b 188 64 153 53 167 64 b 231 28 215 64 231 51 l 271 28 b 190 101 271 76 240 101 b 113 32 140 101 113 76 b 171 -29 113 -4 129 -21 l 199 -36 b 238 -67 226 -42 238 -49 b 196 -96 238 -86 222 -96 b 150 -58 168 -96 150 -83 l 108 -58 b 194 -133 108 -107 142 -133 m 356 88 l 317 88 l 317 -81 l 356 -81 m 357 151 l 318 151 l 318 108 l 357 108 "},"":{"ha":675,"x_min":0,"x_max":0,"o":"m 344 200 b 675 0 557 200 675 114 b 329 -203 675 -111 589 -203 b 0 0 90 -203 0 -107 b 344 200 0 110 132 200 m 331 -168 b 590 0 526 -168 590 -93 b 343 164 590 93 503 164 b 83 0 183 164 83 90 b 331 -168 83 -89 151 -168 m 318 132 l 406 -121 l 353 -121 l 336 -69 l 242 -69 l 218 -128 l 174 -101 l 261 132 m 322 -26 l 289 72 l 256 -26 m 451 32 b 496 49 451 32 475 49 b 525 11 510 49 522 40 l 525 4 b 424 -107 525 -62 424 -107 l 424 118 l 451 118 l 451 32 m 451 -61 b 501 3 451 -61 501 -26 b 486 24 501 15 496 24 b 451 6 478 24 467 18 l 451 -61 "},"":{"ha":675,"x_min":0,"x_max":0,"o":"m 364 133 l 451 -119 l 397 -119 l 381 -68 l 286 -68 l 269 -119 l 215 -119 l 306 133 m 367 -25 l 333 74 l 300 -25 m 344 201 b 675 1 557 201 675 115 b 329 -201 675 -110 589 -201 b 0 1 90 -201 0 -106 b 344 201 0 111 132 201 m 331 -167 b 590 0 526 -167 590 -92 b 343 165 590 94 503 165 b 83 0 183 165 83 92 b 331 -167 83 -87 151 -167 "},"":{"ha":675,"x_min":0,"x_max":0,"o":"m 494 78 l 524 89 l 524 49 l 494 36 l 494 1 l 524 14 l 524 -28 l 494 -39 l 494 -103 l 463 -103 l 463 -51 l 436 -62 l 436 -121 l 404 -121 l 404 -74 l 381 -83 l 381 -42 l 404 -33 l 404 1 l 381 -7 l 381 33 l 404 43 l 404 106 l 436 106 l 436 54 l 463 65 l 463 118 l 494 103 m 463 25 l 436 14 l 436 -21 l 463 -10 m 297 132 l 385 -121 l 331 -121 l 314 -69 l 219 -69 l 197 -128 l 151 -101 l 239 132 m 300 -26 l 267 72 l 233 -26 m 344 200 b 675 0 557 200 675 114 b 329 -203 675 -111 589 -203 b 0 0 90 -203 0 -107 b 344 200 0 110 132 200 m 331 -168 b 590 0 526 -168 590 -93 b 343 164 590 93 503 164 b 83 0 183 164 83 90 b 331 -168 83 -89 151 -168 "},"":{"ha":675,"x_min":0,"x_max":0,"o":"m 467 24 b 511 40 467 24 490 40 b 540 3 525 40 538 32 l 540 -4 b 439 -115 540 -71 439 -115 l 439 110 l 467 110 l 467 24 m 467 -69 b 517 -6 467 -69 517 -35 b 501 15 517 7 511 15 b 467 -3 493 15 482 10 l 467 -69 m 344 200 b 675 0 557 200 675 114 b 329 -203 675 -111 589 -203 b 0 0 90 -203 0 -107 b 344 200 0 110 132 200 m 331 -168 b 590 0 526 -168 590 -93 b 343 164 590 93 503 164 b 83 0 183 164 83 90 b 331 -168 83 -89 151 -168 m 369 4 b 411 -58 397 -12 411 -33 b 322 -131 411 -100 381 -131 l 208 -131 l 208 122 l 321 122 b 404 56 374 122 404 92 b 369 4 404 35 394 19 m 260 22 l 317 22 b 354 50 340 22 354 32 b 317 79 354 69 340 79 l 260 79 m 322 -87 b 361 -54 347 -87 361 -76 b 322 -22 361 -33 347 -22 l 260 -22 l 260 -87 l 322 -87 "},"":{"ha":675,"x_min":0,"x_max":0,"o":"m 344 200 b 675 0 557 200 675 114 b 329 -203 675 -111 589 -203 b 0 0 90 -203 0 -107 b 344 200 0 110 132 200 m 331 -168 b 590 0 526 -168 590 -93 b 343 164 590 93 503 164 b 83 0 183 164 83 90 b 331 -168 83 -89 151 -168 m 408 4 b 450 -58 436 -12 450 -33 b 361 -131 450 -100 419 -131 l 247 -131 l 247 122 l 360 122 b 443 56 413 122 443 92 b 408 4 443 35 433 19 m 299 22 l 356 22 b 393 50 379 22 393 32 b 356 79 393 69 379 79 l 299 79 m 361 -87 b 400 -54 386 -87 400 -76 b 361 -22 400 -33 386 -22 l 299 -22 l 299 -87 l 361 -87 "},"":{"ha":675,"x_min":0,"x_max":0,"o":"m 344 200 b 675 0 557 200 675 114 b 329 -203 675 -111 589 -203 b 0 0 90 -203 0 -107 b 344 200 0 110 132 200 m 331 -168 b 590 0 526 -168 590 -93 b 343 164 590 93 503 164 b 83 0 183 164 83 90 b 331 -168 83 -89 151 -168 m 367 -60 b 289 -132 367 -101 340 -132 l 188 -132 l 188 121 l 288 121 b 361 54 335 121 361 90 b 331 3 361 33 351 18 b 367 -60 356 -14 367 -35 m 317 49 b 283 78 317 68 306 78 l 233 78 l 233 21 l 283 21 b 317 49 306 21 317 31 m 322 -56 b 289 -24 322 -35 311 -24 l 233 -24 l 233 -89 l 289 -89 b 322 -56 311 -89 322 -78 m 494 29 l 494 -6 l 524 6 l 524 -36 l 494 -47 l 494 -111 l 463 -111 l 463 -60 l 436 -69 l 436 -129 l 404 -129 l 404 -82 l 381 -92 l 381 -50 l 404 -42 l 404 -7 l 381 -15 l 381 25 l 404 35 l 404 97 l 436 97 l 436 47 l 463 57 l 463 113 l 494 99 l 494 69 l 524 81 l 524 40 m 463 17 l 436 6 l 436 -29 l 463 -18 "},"":{"ha":675,"x_min":0,"x_max":0,"o":"m 344 200 b 675 0 557 200 675 114 b 329 -203 675 -111 589 -203 b 0 0 90 -203 0 -107 b 344 200 0 110 132 200 m 331 -168 b 590 0 526 -168 590 -93 b 343 164 590 93 503 164 b 83 0 183 164 83 90 b 331 -168 83 -89 151 -168 m 271 -133 b 156 -3 200 -133 156 -85 b 272 128 156 79 200 128 b 378 38 329 128 374 96 l 328 38 b 274 83 321 71 301 83 b 208 -4 233 83 208 53 b 272 -90 208 -58 232 -90 b 328 -43 304 -90 325 -75 l 379 -43 b 271 -133 375 -101 333 -133 m 447 110 l 447 24 b 492 40 447 24 471 40 b 521 3 506 40 518 32 l 521 -4 b 419 -117 521 -71 419 -117 l 419 110 m 447 -71 b 499 -7 447 -71 499 -36 b 482 14 499 6 492 14 b 447 -4 474 14 463 8 "},"":{"ha":675,"x_min":0,"x_max":0,"o":"m 344 200 b 675 0 557 200 675 114 b 329 -203 675 -111 589 -203 b 0 0 90 -203 0 -107 b 344 200 0 110 132 200 m 331 -168 b 590 0 526 -168 590 -93 b 343 164 590 93 503 164 b 83 0 183 164 83 90 b 331 -168 83 -89 151 -168 m 335 -133 b 219 -3 264 -133 219 -85 b 336 128 219 79 264 128 b 442 38 393 128 436 96 l 392 38 b 338 83 383 71 365 83 b 272 -4 296 83 272 53 b 336 -90 272 -58 296 -90 b 392 -43 368 -90 389 -75 l 442 -43 b 335 -133 439 -101 397 -133 "}}}
